{"glyphs":{"0":{"ha":1217,"x_min":139,"x_max":1078,"o":"m 376 -10 q 202 28 265 -10 q 139 189 139 66 l 139 792 q 205 946 139 910 q 376 982 272 982 l 839 982 q 1011 946 944 982 q 1078 792 1078 910 l 1078 189 q 1014 28 1078 65 q 839 -10 951 -10 l 376 -10 m 322 160 l 894 160 q 894 160 894 160 q 894 160 894 160 l 894 813 q 894 813 894 813 q 894 813 894 813 l 322 813 q 322 813 322 813 q 322 813 322 813 l 322 160 q 322 159 322 159 q 322 160 322 160 z "},"1":{"ha":593,"x_min":56,"x_max":426,"o":"m 243 0 l 243 794 l 56 785 l 56 903 l 426 982 l 426 0 l 243 0 z "},"2":{"ha":1146,"x_min":139,"x_max":1035,"o":"m 139 0 l 139 216 q 171 332 139 281 q 265 409 203 383 l 768 618 q 812 649 803 633 q 821 696 821 665 l 821 813 q 821 813 821 813 q 821 813 821 813 l 333 813 q 333 813 333 813 q 333 813 333 813 l 333 613 l 150 650 l 150 800 q 164 877 150 843 q 205 934 178 910 q 274 969 233 957 q 371 982 316 982 l 783 982 q 880 971 839 982 q 949 939 922 960 q 990 885 976 917 q 1004 810 1004 853 l 1004 671 q 995 610 1004 638 q 969 558 986 581 q 930 516 953 534 q 878 487 906 499 l 402 289 q 340 251 358 271 q 322 201 322 231 l 322 169 l 851 169 q 851 169 851 169 q 851 169 851 169 l 851 296 l 1035 265 l 1035 181 q 974 35 1035 70 q 814 0 913 0 l 139 0 z "},"3":{"ha":1168,"x_min":139,"x_max":1029,"o":"m 139 264 l 322 297 l 322 160 q 322 160 322 160 q 322 160 322 160 l 767 160 q 824 183 801 160 q 846 240 846 206 l 846 344 q 826 395 846 376 q 775 415 806 415 l 483 415 l 483 571 l 756 571 q 807 591 787 571 q 826 642 826 610 l 826 736 q 805 792 826 771 q 751 813 784 813 l 331 813 q 331 813 331 813 q 331 813 331 813 l 331 663 l 147 696 l 147 810 q 161 885 147 853 q 202 939 175 917 q 272 971 230 960 q 368 982 313 982 l 775 982 q 877 969 833 982 q 950 931 921 957 q 995 864 980 905 q 1010 768 1010 824 l 1010 691 q 970 558 1010 601 q 853 500 931 514 q 978 449 927 494 q 1029 304 1029 403 l 1029 206 q 1011 106 1029 147 q 963 40 994 65 q 888 2 931 14 q 794 -10 845 -10 l 360 -10 q 199 25 260 -10 q 139 171 139 60 l 139 264 z "},"4":{"ha":1135,"x_min":14,"x_max":1044,"o":"m 14 215 l 14 376 l 683 972 l 856 972 l 856 385 l 1044 385 l 1044 215 l 856 215 l 856 0 l 672 0 l 672 215 l 14 215 m 252 385 l 672 385 l 672 757 l 252 385 z "},"5":{"ha":1068,"x_min":88,"x_max":981,"o":"m 538 -8 q 440 -7 495 -8 q 329 -1 385 -5 q 222 11 273 3 q 133 32 170 19 l 92 201 q 179 183 132 192 q 285 168 226 174 q 414 158 343 162 q 572 154 485 154 q 671 160 628 154 q 741 183 713 167 q 783 228 769 200 q 797 301 797 257 q 786 369 797 341 q 746 417 775 398 q 668 444 717 435 q 540 453 618 453 q 413 449 474 453 q 297 440 353 446 q 190 426 242 433 q 88 410 138 418 l 133 972 l 857 972 l 821 803 l 267 803 l 250 586 q 308 598 275 592 q 380 607 340 603 q 465 613 419 611 q 561 615 510 615 q 744 597 665 615 q 875 541 822 579 q 954 443 928 503 q 981 301 981 384 q 944 142 981 203 q 847 48 908 81 q 705 3 785 15 q 538 -8 625 -8 z "},"6":{"ha":1118,"x_min":104,"x_max":1014,"o":"m 569 -10 q 337 -2 427 -10 q 195 38 247 5 q 124 140 143 72 q 104 332 104 209 q 137 596 104 476 q 241 802 170 716 q 424 937 312 889 q 693 985 535 985 q 747 984 728 985 q 774 982 766 983 l 886 825 q 863 827 877 826 q 831 829 849 828 q 794 830 814 830 q 753 831 774 831 q 531 805 620 831 q 388 719 442 779 q 310 560 333 659 q 288 314 288 461 q 301 231 288 261 q 348 184 315 200 q 436 165 381 169 q 572 161 490 161 q 710 166 659 161 q 789 186 762 172 q 823 227 815 201 q 831 297 831 254 q 819 366 831 340 q 778 406 808 392 q 700 425 749 420 q 576 429 651 429 q 481 425 534 429 q 376 415 428 422 q 278 399 324 408 q 203 381 233 390 l 203 526 q 289 556 242 544 q 384 576 335 568 q 482 588 433 584 q 576 592 531 592 q 781 583 697 592 q 916 543 864 574 q 991 454 968 513 q 1014 297 1014 396 q 997 131 1014 192 q 930 38 979 69 q 795 -1 881 7 q 569 -10 708 -10 z "},"7":{"ha":956,"x_min":44,"x_max":942,"o":"m 44 639 l 44 972 l 942 972 l 942 821 l 527 0 l 315 0 l 733 803 l 222 803 l 222 606 l 44 639 z "},"8":{"ha":1217,"x_min":125,"x_max":1092,"o":"m 308 240 q 331 183 308 206 q 388 160 353 160 l 829 160 q 886 183 864 160 q 908 240 908 206 l 908 333 q 903 362 908 349 q 889 384 898 375 q 866 399 879 394 q 838 404 853 404 l 378 404 q 350 399 363 404 q 328 384 338 394 q 314 362 319 375 q 308 333 308 349 l 308 240 m 888 738 q 866 792 888 771 q 813 813 845 813 l 406 813 q 351 792 372 813 q 329 738 329 771 l 329 643 q 349 593 329 613 q 400 574 369 574 l 817 574 q 868 593 848 574 q 888 643 888 613 l 888 738 m 125 185 l 125 318 q 172 449 125 413 q 306 494 219 485 q 184 552 222 506 q 146 669 146 597 l 146 796 q 201 932 146 882 q 367 982 256 982 l 850 982 q 1016 932 961 982 q 1071 796 1071 882 l 1071 669 q 1032 552 1071 597 q 911 494 994 506 q 1045 449 998 485 q 1092 318 1092 413 l 1092 185 q 1025 32 1092 74 q 857 -10 958 -10 l 360 -10 q 267 0 310 -10 q 192 32 224 9 q 143 92 161 54 q 125 185 125 129 z "},"9":{"ha":1146,"x_min":111,"x_max":1021,"o":"m 556 983 q 789 967 699 983 q 931 907 880 951 q 1002 786 983 863 q 1021 586 1021 708 q 988 321 1021 433 q 883 134 954 208 q 700 25 811 60 q 432 -11 588 -11 q 382 -10 403 -11 q 351 -8 361 -10 l 239 149 q 260 146 247 147 q 289 144 272 145 q 326 143 306 144 q 372 143 347 143 q 599 164 509 143 q 742 238 689 185 q 816 383 795 291 q 838 617 838 474 q 823 724 838 683 q 774 785 808 764 q 686 814 740 807 q 553 821 631 821 q 417 816 468 821 q 339 797 366 812 q 303 756 312 783 q 294 685 294 729 q 305 618 294 644 q 342 578 315 592 q 420 558 370 563 q 549 553 469 553 q 647 557 593 553 q 752 568 700 561 q 849 583 803 574 q 922 601 894 592 l 922 447 q 844 420 887 432 q 752 399 801 408 q 652 386 704 391 q 549 382 601 382 q 330 394 415 382 q 197 439 245 406 q 130 530 148 472 q 111 676 111 587 q 128 832 111 772 q 195 926 146 892 q 331 971 244 959 q 556 983 417 983 z "},"\u0000":{"ha":694,"x_min":0,"x_max":0,"o":""},"\r":{"ha":0,"x_min":0,"x_max":0,"o":""}," ":{"ha":429,"x_min":0,"x_max":0,"o":""}," ":{"ha":429,"x_min":0,"x_max":0,"o":""}," ":{"ha":694,"x_min":0,"x_max":0,"o":""},"​":{"ha":0,"x_min":0,"x_max":0,"o":""}," ":{"ha":231,"x_min":0,"x_max":0,"o":""},"﻿":{"ha":0,"x_min":0,"x_max":0,"o":""},"A":{"ha":1149,"x_min":0,"x_max":1149,"o":"m 0 0 l 499 972 l 643 972 l 1149 0 l 932 0 l 816 226 l 317 226 l 201 0 l 0 0 m 403 393 l 731 393 l 567 712 l 403 393 z "},"B":{"ha":1115,"x_min":139,"x_max":1032,"o":"m 139 0 l 139 972 l 782 972 q 878 964 835 972 q 954 933 922 956 q 1003 868 985 910 q 1021 760 1021 826 l 1021 692 q 988 570 1021 617 q 888 503 956 523 q 998 432 963 485 q 1032 292 1032 379 l 1032 218 q 1014 107 1032 149 q 965 40 997 64 q 890 8 933 17 q 793 0 846 0 l 139 0 m 322 169 l 775 169 q 830 186 812 169 q 849 238 849 203 l 849 346 q 830 401 849 387 q 775 415 812 415 l 322 415 l 322 169 m 322 580 l 764 580 q 819 594 801 580 q 838 649 838 608 l 838 734 q 819 786 838 769 q 764 803 801 803 l 322 803 l 322 580 z "},"C":{"ha":1117,"x_min":118,"x_max":1029,"o":"m 118 792 q 173 938 118 894 q 356 982 228 982 l 785 982 q 968 938 913 982 q 1024 792 1024 894 l 1024 656 l 840 622 l 840 813 q 840 813 840 813 q 840 813 840 813 l 301 813 q 301 813 301 813 q 301 813 301 813 l 301 160 q 301 160 301 160 q 301 160 301 160 l 846 160 q 846 160 846 160 q 846 160 846 160 l 846 368 l 1029 332 l 1029 189 q 975 36 1029 81 q 790 -10 920 -10 l 356 -10 q 172 36 226 -10 q 118 189 118 81 l 118 792 z "},"D":{"ha":1229,"x_min":139,"x_max":1160,"o":"m 322 169 l 686 169 q 807 186 755 169 q 895 242 860 203 q 949 342 931 281 q 967 493 967 404 q 948 638 967 578 q 894 733 930 697 q 806 786 858 770 q 686 803 754 803 l 322 803 l 322 169 m 139 0 l 139 972 l 697 972 q 879 942 794 972 q 1026 852 963 913 q 1124 700 1088 792 q 1160 486 1160 609 q 1123 263 1160 356 q 1024 113 1087 171 q 877 27 962 54 q 697 0 793 0 l 139 0 z "},"E":{"ha":1089,"x_min":139,"x_max":1013,"o":"m 139 0 l 139 972 l 999 972 l 999 803 l 322 803 l 322 583 l 731 583 l 731 414 l 322 414 l 322 169 l 1013 169 l 1013 0 l 139 0 z "},"F":{"ha":1017,"x_min":139,"x_max":972,"o":"m 139 0 l 139 972 l 972 972 l 972 803 l 322 803 l 322 579 l 685 579 l 685 410 l 322 410 l 322 0 l 139 0 z "},"G":{"ha":1200,"x_min":118,"x_max":1089,"o":"m 118 792 q 173 938 118 894 q 356 982 228 982 l 846 982 q 1030 938 974 982 q 1085 792 1085 894 l 1085 719 l 901 681 l 901 813 q 901 813 901 813 q 901 813 901 813 l 301 813 q 301 813 301 813 q 301 813 301 813 l 301 160 q 301 160 301 160 q 301 160 301 160 l 906 160 q 906 160 906 160 q 906 160 906 160 l 906 390 l 600 390 l 600 560 l 1089 560 l 1089 189 q 1034 36 1089 81 q 850 -10 980 -10 l 356 -10 q 172 36 226 -10 q 118 189 118 81 l 118 792 z "},"H":{"ha":1263,"x_min":139,"x_max":1124,"o":"m 139 0 l 139 972 l 322 972 l 322 592 l 940 592 l 940 972 l 1124 972 l 1124 0 l 940 0 l 940 422 l 322 422 l 322 0 l 139 0 z "},"I":{"ha":461,"x_min":139,"x_max":322,"o":"m 139 0 l 139 972 l 322 972 l 322 0 l 139 0 z "},"J":{"ha":1042,"x_min":71,"x_max":914,"o":"m 914 972 l 914 181 q 859 34 914 78 q 676 -10 803 -10 l 310 -10 q 126 34 182 -10 q 71 181 71 78 l 71 408 l 254 447 l 254 160 q 254 160 254 160 q 254 160 254 160 l 731 160 q 731 160 731 160 q 731 160 731 160 l 731 972 l 914 972 z "},"K":{"ha":1156,"x_min":139,"x_max":1156,"o":"m 1054 972 l 519 510 l 519 521 l 1156 0 l 866 0 l 284 482 l 322 482 l 322 0 l 139 0 l 139 972 l 322 972 l 322 510 l 280 510 l 805 972 l 1054 972 z "},"L":{"ha":967,"x_min":139,"x_max":953,"o":"m 139 0 l 139 972 l 322 972 l 322 169 l 953 169 l 953 0 l 139 0 z "},"M":{"ha":1379,"x_min":139,"x_max":1240,"o":"m 139 0 l 139 972 l 303 972 l 693 404 l 1075 972 l 1240 972 l 1240 0 l 1057 0 l 1057 665 l 679 104 l 303 652 l 303 0 l 139 0 z "},"N":{"ha":1271,"x_min":139,"x_max":1132,"o":"m 139 0 l 139 972 l 281 972 l 963 289 l 963 972 l 1132 972 l 1132 0 l 990 0 l 308 679 l 308 0 l 139 0 z "},"O":{"ha":1244,"x_min":118,"x_max":1126,"o":"m 118 792 q 184 946 118 910 q 356 982 251 982 l 888 982 q 1060 946 993 982 q 1126 792 1126 910 l 1126 189 q 1063 28 1126 65 q 888 -10 999 -10 l 356 -10 q 181 28 244 -10 q 118 189 118 66 l 118 792 m 301 813 l 301 160 q 301 160 301 160 q 301 160 301 160 l 943 160 q 943 160 943 160 q 943 160 943 160 l 943 813 q 943 813 943 813 q 943 813 943 813 l 301 813 q 301 813 301 813 q 301 813 301 813 z "},"P":{"ha":1088,"x_min":139,"x_max":1032,"o":"m 139 0 l 139 972 l 793 972 q 965 936 899 972 q 1032 782 1032 901 l 1032 547 q 1017 468 1032 502 q 972 411 1002 434 q 898 378 942 389 q 793 367 853 367 l 322 367 l 322 0 l 139 0 m 322 536 l 775 536 q 830 550 812 536 q 849 606 849 564 l 849 733 q 830 786 849 770 q 775 803 812 803 l 322 803 l 322 536 z "},"Q":{"ha":1244,"x_min":118,"x_max":1126,"o":"m 118 792 q 184 946 118 910 q 356 982 251 982 l 888 982 q 1060 946 993 982 q 1126 792 1126 910 l 1126 189 q 1063 28 1126 65 q 888 -10 999 -10 l 356 -10 q 181 28 244 -10 q 118 189 118 66 l 118 792 m 301 813 l 301 160 q 301 160 301 160 q 301 160 301 160 l 943 160 q 943 160 943 160 q 943 160 943 160 l 943 813 q 943 813 943 813 q 943 813 943 813 l 301 813 q 301 813 301 813 q 301 813 301 813 m 769 -196 l 563 321 l 692 378 l 957 -196 l 769 -196 z "},"R":{"ha":1153,"x_min":139,"x_max":1119,"o":"m 139 0 l 139 972 l 793 972 q 965 936 899 972 q 1032 782 1032 901 l 1032 559 q 973 424 1032 469 q 793 378 913 378 l 733 378 l 1119 0 l 872 0 l 487 378 l 322 378 l 322 0 l 139 0 m 322 548 l 775 548 q 830 562 812 548 q 849 617 849 576 l 849 733 q 830 786 849 770 q 775 803 812 803 l 322 803 l 322 548 z "},"S":{"ha":1106,"x_min":83,"x_max":1015,"o":"m 83 253 l 258 289 l 258 160 q 258 160 258 160 q 258 160 258 160 l 840 160 q 840 160 840 160 q 840 160 840 160 l 840 407 q 840 407 840 407 q 840 407 840 407 l 342 407 q 243 415 287 407 q 168 445 199 424 q 120 507 137 467 q 104 607 104 546 l 104 792 q 122 889 104 851 q 170 947 139 926 q 245 975 201 967 q 342 982 289 982 l 763 982 q 860 975 816 982 q 935 947 903 967 q 984 889 967 926 q 1001 792 1001 851 l 1001 722 l 826 688 l 826 813 q 826 813 826 813 q 826 813 826 813 l 279 813 q 279 813 279 813 q 279 813 279 813 l 279 576 q 279 576 279 576 q 279 576 279 576 l 776 576 q 874 569 830 576 q 949 541 917 562 q 998 483 981 520 q 1015 386 1015 446 l 1015 189 q 952 28 1015 66 q 776 -10 888 -10 l 321 -10 q 222 -2 266 -10 q 147 28 178 6 q 100 89 116 50 q 83 189 83 128 l 83 253 z "},"T":{"ha":983,"x_min":14,"x_max":969,"o":"m 400 0 l 400 803 l 14 803 l 14 972 l 969 972 l 969 803 l 583 803 l 583 0 l 400 0 z "},"U":{"ha":1178,"x_min":128,"x_max":1049,"o":"m 128 972 l 312 972 l 312 167 q 312 167 312 167 q 312 167 312 167 l 866 167 q 866 167 866 167 q 866 167 866 167 l 866 972 l 1049 972 l 1049 189 q 986 28 1049 66 q 810 -10 922 -10 l 366 -10 q 267 -2 311 -10 q 192 28 223 6 q 145 89 161 50 q 128 189 128 128 l 128 972 z "},"V":{"ha":1097,"x_min":0,"x_max":1097,"o":"m 488 0 l 0 972 l 219 972 l 561 260 l 894 972 l 1097 972 l 626 0 l 488 0 z "},"W":{"ha":1371,"x_min":0,"x_max":1371,"o":"m 328 0 l 0 972 l 210 972 l 412 340 l 624 972 l 767 972 l 983 336 l 1194 972 l 1371 972 l 1038 0 l 899 0 l 681 626 l 467 0 l 328 0 z "},"X":{"ha":1042,"x_min":0,"x_max":1042,"o":"m 6 0 l 394 492 l 0 972 l 247 972 l 515 632 l 776 972 l 982 972 l 630 515 l 1042 0 l 799 0 l 508 374 l 213 0 l 6 0 z "},"Y":{"ha":1088,"x_min":0,"x_max":1088,"o":"m 461 0 l 461 425 l 0 972 l 263 972 l 560 593 l 860 972 l 1088 972 l 644 426 l 644 0 l 461 0 z "},"Z":{"ha":992,"x_min":49,"x_max":933,"o":"m 49 0 l 49 85 l 647 812 l 650 806 l 107 806 l 107 972 l 932 972 l 932 888 l 333 160 l 331 167 l 933 167 l 933 0 l 49 0 z "},"a":{"ha":936,"x_min":99,"x_max":821,"o":"m 269 -7 q 144 20 189 -7 q 99 135 99 47 l 99 281 q 160 391 99 366 q 297 415 222 415 l 649 415 l 649 560 q 649 560 649 560 q 649 560 649 560 l 281 560 q 281 560 281 560 q 281 560 281 560 l 281 499 l 108 531 l 108 565 q 156 676 108 651 q 279 701 203 701 l 650 701 q 774 676 726 701 q 821 565 821 651 l 821 0 l 649 0 l 649 104 q 580 17 631 40 q 467 -7 530 -7 l 269 -7 m 271 135 q 271 135 271 135 q 271 135 271 135 l 649 135 l 649 274 l 271 274 q 271 274 271 274 q 271 274 271 274 l 271 135 z "},"b":{"ha":975,"x_min":125,"x_max":869,"o":"m 125 -1 l 125 1006 l 297 1006 l 297 626 q 353 684 312 666 q 464 703 394 703 l 692 703 q 819 676 769 703 q 869 561 869 649 l 869 142 q 822 21 869 51 q 692 -8 775 -8 l 464 -8 q 353 11 394 -8 q 297 69 312 30 l 297 -1 l 125 -1 m 297 149 l 697 149 q 697 149 697 149 q 697 149 697 149 l 697 547 q 697 547 697 547 q 697 547 697 547 l 297 547 l 297 149 z "},"c":{"ha":931,"x_min":106,"x_max":851,"o":"m 106 142 l 106 560 q 147 669 106 636 q 283 701 188 701 l 671 701 q 808 669 767 701 q 849 560 849 636 l 849 486 l 676 453 l 676 546 q 676 546 676 546 q 676 546 676 546 l 278 546 q 278 546 278 546 q 278 546 278 546 l 278 149 q 278 149 278 149 q 278 149 278 149 l 679 149 q 679 149 679 149 q 679 149 679 149 l 679 249 l 851 213 l 851 142 q 811 27 851 61 q 674 -7 771 -7 l 283 -7 q 146 27 186 -7 q 106 142 106 61 z "},"d":{"ha":982,"x_min":106,"x_max":857,"o":"m 106 142 l 106 560 q 147 668 106 635 q 283 701 188 701 l 518 701 q 629 683 588 701 q 685 625 670 664 l 685 1006 l 857 1006 l 857 0 l 685 0 l 685 69 q 629 12 670 31 q 518 -7 588 -7 l 283 -7 q 146 27 187 -7 q 106 142 106 61 m 685 546 l 278 546 q 278 546 278 546 q 278 546 278 546 l 278 149 q 278 149 278 149 q 278 149 278 149 l 685 149 l 685 546 z "},"e":{"ha":956,"x_min":106,"x_max":850,"o":"m 106 174 l 106 549 q 152 662 106 623 q 293 701 198 701 l 661 701 q 803 661 756 701 q 850 546 850 622 l 850 279 l 278 279 l 278 135 q 278 135 278 135 q 278 135 278 135 l 678 135 q 678 135 678 135 q 678 135 678 135 l 678 211 l 850 181 l 850 174 q 799 35 850 76 q 629 -7 749 -7 l 313 -7 q 157 34 208 -7 q 106 174 106 75 m 278 421 l 678 421 l 678 560 q 678 560 678 560 q 678 560 678 560 l 278 560 q 278 560 278 560 q 278 560 278 560 l 278 421 z "},"f":{"ha":572,"x_min":63,"x_max":572,"o":"m 140 0 l 140 553 l 63 553 l 63 694 l 140 694 l 140 829 q 188 964 140 922 q 328 1006 235 1006 l 572 1006 l 542 864 l 313 864 q 313 864 313 864 q 313 864 313 864 l 313 694 l 543 694 l 543 553 l 313 553 l 313 0 l 140 0 z "},"g":{"ha":972,"x_min":106,"x_max":857,"o":"m 278 149 q 278 149 278 149 q 278 149 278 149 l 685 149 l 685 546 l 278 546 q 278 546 278 546 q 278 546 278 546 l 278 149 m 151 -297 l 119 -142 l 685 -142 q 685 -142 685 -142 q 685 -142 685 -142 l 685 69 q 629 12 670 31 q 518 -7 588 -7 l 283 -7 q 146 27 187 -7 q 106 142 106 61 l 106 560 q 147 668 106 635 q 283 701 188 701 l 518 701 q 629 683 588 701 q 685 625 670 664 l 685 694 l 857 694 l 857 -121 q 845 -216 857 -181 q 807 -269 833 -251 q 739 -292 781 -287 q 639 -297 698 -297 l 151 -297 z "},"h":{"ha":957,"x_min":125,"x_max":842,"o":"m 125 0 l 125 1006 l 297 1006 l 297 629 q 365 683 318 665 q 493 701 411 701 l 621 701 q 790 661 739 701 q 842 528 842 621 l 842 0 l 669 0 l 669 546 q 669 546 669 546 q 669 546 669 546 l 297 546 l 297 0 l 125 0 z "},"ı":{"ha":422,"x_min":125,"x_max":297,"o":"m 125 0 l 125 694 l 297 694 l 297 0 l 125 0 z "},"i":{"ha":433,"x_min":125,"x_max":308,"o":"m 131 0 l 131 694 l 303 694 l 303 0 l 131 0 m 125 854 l 125 911 q 133 964 125 956 q 188 972 142 972 l 246 972 q 300 964 292 972 q 308 911 308 956 l 308 854 q 300 800 308 808 q 246 792 292 792 l 188 792 q 133 800 142 792 q 125 854 125 808 z "},"ȷ":{"ha":422,"x_min":-196,"x_max":297,"o":"m -196 -142 l 125 -142 q 125 -142 125 -142 q 125 -142 125 -142 l 125 694 l 297 694 l 297 -121 q 285 -223 297 -187 q 247 -275 273 -258 q 180 -294 221 -292 q 79 -297 138 -297 l -161 -297 l -196 -142 z "},"j":{"ha":422,"x_min":-196,"x_max":303,"o":"m -196 -142 l 125 -142 q 125 -142 125 -142 q 125 -142 125 -142 l 125 694 l 297 694 l 297 -121 q 285 -223 297 -187 q 247 -275 273 -258 q 180 -294 221 -292 q 79 -297 138 -297 l -161 -297 l -196 -142 m 119 854 l 119 911 q 128 964 119 956 q 182 972 136 972 l 240 972 q 294 964 286 972 q 303 911 303 956 l 303 854 q 294 800 303 808 q 240 792 286 792 l 182 792 q 128 800 136 792 q 119 854 119 808 z "},"k":{"ha":954,"x_min":125,"x_max":951,"o":"m 125 0 l 125 1006 l 297 1006 l 297 378 l 288 378 l 646 694 l 868 694 l 500 375 l 500 386 l 951 0 l 688 0 l 288 346 l 297 346 l 297 0 l 125 0 z "},"l":{"ha":422,"x_min":125,"x_max":297,"o":"m 125 0 l 125 1006 l 297 1006 l 297 0 l 125 0 z "},"m":{"ha":1376,"x_min":125,"x_max":1261,"o":"m 125 0 l 125 694 l 297 694 l 297 629 q 365 683 318 665 q 493 701 411 701 l 558 701 q 683 685 621 701 q 768 604 744 669 q 832 677 783 652 q 975 701 880 701 l 1040 701 q 1210 661 1158 701 q 1261 528 1261 621 l 1261 0 l 1089 0 l 1089 546 q 1089 546 1089 546 q 1089 546 1089 546 l 779 546 l 779 0 l 607 0 l 607 546 l 297 546 l 297 0 l 125 0 z "},"n":{"ha":957,"x_min":125,"x_max":842,"o":"m 125 0 l 125 694 l 297 694 l 297 629 q 365 683 318 665 q 493 701 411 701 l 621 701 q 790 661 739 701 q 842 528 842 621 l 842 0 l 669 0 l 669 546 q 669 546 669 546 q 669 546 669 546 l 297 546 l 297 0 l 125 0 z "},"o":{"ha":969,"x_min":106,"x_max":864,"o":"m 106 142 l 106 560 q 147 668 106 635 q 283 701 188 701 l 686 701 q 823 668 782 701 q 864 560 864 635 l 864 142 q 824 27 864 61 q 686 -7 783 -7 l 283 -7 q 146 27 187 -7 q 106 142 106 61 m 278 149 q 278 149 278 149 q 278 149 278 149 l 692 149 q 692 149 692 149 q 692 149 692 149 l 692 546 q 692 546 692 546 q 692 546 692 546 l 278 546 q 278 546 278 546 q 278 546 278 546 l 278 149 z "},"p":{"ha":982,"x_min":125,"x_max":876,"o":"m 125 -297 l 125 694 l 297 694 l 297 625 q 353 683 312 664 q 464 701 394 701 l 699 701 q 836 667 795 701 q 876 553 876 633 l 876 135 q 835 26 876 59 q 699 -7 794 -7 l 464 -7 q 353 12 394 -7 q 297 69 312 31 l 297 -297 l 125 -297 m 297 149 l 704 149 q 704 149 704 149 q 704 149 704 149 l 704 546 q 704 546 704 546 q 704 546 704 546 l 297 546 l 297 149 z "},"q":{"ha":982,"x_min":106,"x_max":857,"o":"m 106 142 l 106 560 q 147 668 106 635 q 283 701 188 701 l 518 701 q 629 683 588 701 q 685 625 670 664 l 685 694 l 857 694 l 857 -297 l 685 -297 l 685 69 q 629 12 670 31 q 518 -7 588 -7 l 283 -7 q 146 27 187 -7 q 106 142 106 61 m 278 149 q 278 149 278 149 q 278 149 278 149 l 685 149 l 685 546 l 278 546 q 278 546 278 546 q 278 546 278 546 l 278 149 z "},"r":{"ha":793,"x_min":125,"x_max":751,"o":"m 125 0 l 125 694 l 297 694 l 297 629 q 365 683 318 665 q 493 701 411 701 l 531 701 q 631 692 590 701 q 700 661 673 682 q 739 607 726 640 q 751 528 751 574 l 751 487 l 579 454 l 579 546 q 579 546 579 546 q 579 546 579 546 l 297 546 l 297 0 l 125 0 z "},"s":{"ha":888,"x_min":99,"x_max":789,"o":"m 99 175 l 251 207 l 251 135 q 251 135 251 135 q 251 135 251 135 l 636 135 q 636 135 636 135 q 636 135 636 135 l 636 278 q 636 278 636 278 q 636 278 636 278 l 283 278 q 159 305 203 278 q 114 421 114 333 l 114 565 q 161 676 114 650 q 283 701 208 701 l 608 701 q 732 676 685 701 q 779 565 779 650 l 779 528 l 626 497 l 626 560 q 626 560 626 560 q 626 560 626 560 l 267 560 q 267 560 267 560 q 267 560 267 560 l 267 424 q 267 424 267 424 q 267 424 267 424 l 618 424 q 742 399 694 424 q 789 288 789 374 l 789 135 q 744 20 789 47 q 618 -7 699 -7 l 268 -7 q 143 20 188 -7 q 99 135 99 47 l 99 175 z "},"t":{"ha":599,"x_min":50,"x_max":551,"o":"m 347 -7 q 210 27 251 -7 q 169 142 169 61 l 169 553 l 50 553 l 50 694 l 169 694 l 169 864 l 342 864 l 342 694 l 551 694 l 551 553 l 342 553 l 342 135 q 342 135 342 135 q 342 135 342 135 l 544 135 l 515 -7 l 347 -7 z "},"u":{"ha":947,"x_min":115,"x_max":832,"o":"m 115 135 l 115 694 l 288 694 l 288 149 q 288 149 288 149 q 288 149 288 149 l 660 149 q 660 149 660 149 q 660 149 660 149 l 660 694 l 832 694 l 832 135 q 786 20 832 47 q 661 -7 741 -7 l 285 -7 q 160 20 205 -7 q 115 135 115 47 z "},"v":{"ha":815,"x_min":3,"x_max":812,"o":"m 352 0 l 3 694 l 199 694 l 419 232 l 643 694 l 812 694 l 476 0 l 352 0 z "},"w":{"ha":1121,"x_min":3,"x_max":1117,"o":"m 252 0 l 3 694 l 181 694 l 343 226 l 502 694 l 642 694 l 804 228 l 964 694 l 1117 694 l 867 0 l 714 0 l 562 438 l 414 0 l 252 0 z "},"x":{"ha":810,"x_min":3,"x_max":806,"o":"m 3 0 l 294 340 l 8 694 l 234 694 l 415 458 l 608 694 l 805 694 l 515 351 l 806 0 l 576 0 l 394 228 l 208 0 l 3 0 z "},"y":{"ha":817,"x_min":3,"x_max":813,"o":"m 53 -297 l 22 -142 l 243 -142 q 243 -142 243 -142 q 243 -142 243 -142 l 331 44 l 3 694 l 206 694 l 424 241 l 637 694 l 813 694 l 390 -187 q 359 -241 375 -219 q 323 -274 344 -262 q 274 -292 302 -287 q 207 -297 246 -297 l 53 -297 z "},"z":{"ha":786,"x_min":54,"x_max":732,"o":"m 54 0 l 54 61 l 469 564 l 463 549 l 96 549 l 96 694 l 728 694 l 728 633 l 312 126 l 319 145 l 732 145 l 732 0 l 54 0 z "},"&":{"ha":1147,"x_min":35,"x_max":1147,"o":"m 210 -7 q 134 3 167 -7 q 79 31 101 13 q 46 78 57 50 q 35 142 35 106 l 35 321 q 52 392 35 362 q 106 447 69 423 l 315 587 q 276 631 292 610 q 249 673 260 651 q 234 720 239 695 q 229 778 229 746 l 229 803 q 278 935 229 888 q 418 982 328 982 l 608 982 q 755 936 702 982 q 808 808 808 890 l 808 703 l 653 672 l 653 818 q 653 818 653 818 q 653 818 653 818 l 406 818 q 406 818 406 818 q 406 818 406 818 l 406 746 q 406 746 406 746 q 406 746 406 746 l 784 366 l 969 539 l 1081 428 l 895 255 l 1147 0 l 899 0 l 765 135 l 685 60 q 646 28 665 42 q 606 8 627 15 q 560 -3 585 0 q 500 -7 534 -7 l 210 -7 m 214 154 l 556 154 q 556 154 556 154 q 556 154 556 154 l 654 246 l 431 471 l 214 325 q 214 325 214 325 q 214 325 214 325 l 214 154 q 214 154 214 154 q 214 154 214 154 z "},"!":{"ha":509,"x_min":125,"x_max":384,"o":"m 145 77 l 145 132 q 156 202 145 192 q 228 213 167 213 l 281 213 q 353 203 342 213 q 364 132 364 192 l 364 77 q 353 5 364 16 q 281 -6 342 -6 l 228 -6 q 156 5 167 -6 q 145 77 145 16 m 192 321 l 125 972 l 384 972 l 317 321 l 192 321 z "},"¡":{"ha":509,"x_min":125,"x_max":384,"o":"m 364 612 l 364 557 q 353 486 364 497 q 281 476 342 476 l 228 476 q 156 486 167 476 q 145 557 145 497 l 145 612 q 156 684 145 673 q 228 694 167 694 l 281 694 q 353 684 342 694 q 364 612 364 673 m 317 368 l 384 -283 l 125 -283 l 192 368 l 317 368 z "},"?":{"ha":882,"x_min":69,"x_max":771,"o":"m 325 321 l 325 440 q 350 522 325 491 q 430 567 374 553 l 546 596 q 599 627 583 606 q 615 694 615 649 l 615 826 q 615 826 615 826 q 615 826 615 826 l 226 826 q 226 826 226 826 q 226 826 226 826 l 226 685 l 69 717 l 69 810 q 120 942 69 902 q 290 982 172 982 l 550 982 q 720 942 669 982 q 771 810 771 903 l 771 626 q 734 521 771 557 q 611 467 698 485 l 546 453 q 489 428 497 442 q 481 390 481 415 l 481 321 l 325 321 m 292 77 l 292 132 q 303 202 292 192 q 375 213 314 213 l 428 213 q 500 203 489 213 q 511 132 511 192 l 511 77 q 500 5 511 16 q 428 -6 489 -6 l 375 -6 q 303 5 314 -6 q 292 77 292 16 z "},"¿":{"ha":882,"x_min":111,"x_max":813,"o":"m 557 378 l 557 259 q 532 176 557 208 q 452 131 508 145 l 336 103 q 283 72 299 93 q 267 4 267 50 l 267 -128 q 267 -128 267 -128 q 267 -128 267 -128 l 656 -128 q 656 -128 656 -128 q 656 -128 656 -128 l 656 14 l 813 -18 l 813 -111 q 761 -243 813 -203 q 592 -283 710 -283 l 332 -283 q 162 -244 213 -283 q 111 -111 111 -204 l 111 72 q 148 177 111 142 q 271 232 184 213 l 336 246 q 393 270 385 256 q 401 308 401 284 l 401 378 l 557 378 m 590 622 l 590 567 q 579 496 590 507 q 507 485 568 485 l 454 485 q 382 496 393 485 q 371 567 371 506 l 371 622 q 382 693 371 683 q 454 704 393 704 l 507 704 q 579 693 568 704 q 590 622 590 683 z "},"(":{"ha":440,"x_min":88,"x_max":433,"o":"m 433 -178 l 303 -178 q 147 70 206 -83 q 88 415 88 224 q 104 595 88 510 q 148 755 119 681 q 215 893 176 830 q 303 1006 255 956 l 433 1006 q 356 890 390 954 q 300 750 323 825 q 265 590 277 674 q 253 415 253 506 q 265 239 253 324 q 300 79 277 154 q 356 -61 323 3 q 433 -178 390 -126 z "},")":{"ha":440,"x_min":7,"x_max":352,"o":"m 7 1006 l 138 1006 q 293 757 234 910 q 352 413 352 604 q 336 233 352 318 q 293 73 321 147 q 225 -65 265 -2 q 138 -178 185 -128 l 7 -178 q 84 -62 51 -126 q 140 78 117 3 q 175 238 163 153 q 187 413 187 322 q 175 589 187 504 q 140 749 163 674 q 84 889 117 824 q 7 1006 51 954 z "},"[":{"ha":551,"x_min":139,"x_max":510,"o":"m 139 -178 l 139 1006 l 510 1006 l 510 850 l 311 850 l 311 -22 l 510 -22 l 510 -178 l 139 -178 z "},"]":{"ha":551,"x_min":42,"x_max":413,"o":"m 413 1006 l 413 -178 l 42 -178 l 42 -22 l 240 -22 l 240 850 l 42 850 l 42 1006 l 413 1006 z "},"{":{"ha":574,"x_min":67,"x_max":560,"o":"m 199 13 l 199 213 q 168 303 199 270 q 67 337 137 337 l 67 492 q 168 526 137 492 q 199 616 199 560 l 199 808 q 256 954 199 903 q 406 1006 312 1006 l 560 1006 l 560 850 l 456 850 q 391 831 410 850 q 372 772 372 813 l 372 609 q 336 482 372 531 q 233 415 300 433 q 336 347 300 396 q 372 220 372 298 l 372 56 q 391 -3 372 15 q 456 -22 410 -22 l 560 -22 l 560 -178 l 406 -178 q 256 -127 312 -178 q 199 13 199 -76 z "},"}":{"ha":574,"x_min":14,"x_max":506,"o":"m 374 815 l 374 615 q 406 524 374 558 q 506 491 437 491 l 506 335 q 406 302 437 335 q 374 212 374 268 l 374 19 q 318 -126 374 -75 q 167 -178 262 -178 l 14 -178 l 14 -22 l 117 -22 q 183 -3 163 -22 q 202 56 202 15 l 202 219 q 238 345 202 297 q 341 413 274 394 q 238 481 274 432 q 202 608 202 530 l 202 772 q 183 831 202 813 q 117 850 163 850 l 14 850 l 14 1006 l 167 1006 q 318 955 262 1006 q 374 815 374 904 z "},"*":{"ha":704,"x_min":125,"x_max":579,"o":"m 304 540 l 308 694 l 180 608 l 128 682 l 273 769 l 125 860 l 180 938 l 308 852 l 304 1006 l 400 1006 l 397 849 l 526 936 l 577 862 l 434 774 l 579 686 l 524 608 l 397 694 l 400 540 l 304 540 z "},"#":{"ha":785,"x_min":42,"x_max":736,"o":"m 42 221 l 64 376 l 683 376 l 661 221 l 42 221 m 94 597 l 117 752 l 736 752 l 714 597 l 94 597 m 124 0 l 262 972 l 401 972 l 263 0 l 124 0 m 377 0 l 515 972 l 653 972 l 516 0 l 377 0 z "},"%":{"ha":1706,"x_min":111,"x_max":1595,"o":"m 256 426 q 150 445 190 426 q 111 537 111 464 l 111 882 q 153 969 111 953 q 256 986 194 986 l 540 986 q 644 969 601 986 q 686 882 686 953 l 686 537 q 647 445 686 463 q 540 426 607 426 l 256 426 m 250 550 l 547 550 q 547 550 547 550 q 547 550 547 550 l 547 863 q 547 863 547 863 q 547 863 547 863 l 250 863 q 250 863 250 863 q 250 863 250 863 l 250 550 q 250 550 250 550 q 250 550 250 550 m 453 0 l 1098 972 l 1253 972 l 608 0 l 453 0 m 1165 -8 q 1059 11 1099 -8 q 1020 103 1020 30 l 1020 448 q 1062 535 1020 519 q 1165 552 1103 552 l 1449 552 q 1553 535 1510 552 q 1595 448 1595 519 l 1595 103 q 1556 11 1595 29 q 1449 -8 1516 -8 l 1165 -8 m 1159 116 l 1456 116 q 1456 116 1456 116 q 1456 116 1456 116 l 1456 428 q 1456 428 1456 428 q 1456 428 1456 428 l 1159 428 q 1159 428 1159 428 q 1159 428 1159 428 l 1159 116 q 1159 116 1159 116 q 1159 116 1159 116 z "},"‰":{"ha":2434,"x_min":111,"x_max":2323,"o":"m 256 426 q 150 445 190 426 q 111 537 111 464 l 111 882 q 153 969 111 953 q 256 986 194 986 l 540 986 q 644 969 601 986 q 686 882 686 953 l 686 537 q 647 445 686 463 q 540 426 607 426 l 256 426 m 250 550 l 547 550 q 547 550 547 550 q 547 550 547 550 l 547 863 q 547 863 547 863 q 547 863 547 863 l 250 863 q 250 863 250 863 q 250 863 250 863 l 250 550 q 250 550 250 550 q 250 550 250 550 m 453 0 l 1098 972 l 1253 972 l 608 0 l 453 0 m 1165 -8 q 1059 11 1099 -8 q 1020 103 1020 30 l 1020 448 q 1062 535 1020 519 q 1165 552 1103 552 l 1449 552 q 1553 535 1510 552 q 1595 448 1595 519 l 1595 103 q 1556 11 1595 29 q 1449 -8 1516 -8 l 1165 -8 m 1159 116 l 1456 116 q 1456 116 1456 116 q 1456 116 1456 116 l 1456 428 q 1456 428 1456 428 q 1456 428 1456 428 l 1159 428 q 1159 428 1159 428 q 1159 428 1159 428 l 1159 116 q 1159 116 1159 116 q 1159 116 1159 116 m 1893 -8 q 1787 11 1826 -8 q 1748 103 1748 30 l 1748 448 q 1790 535 1748 519 q 1893 552 1831 552 l 2177 552 q 2281 535 2238 552 q 2323 448 2323 519 l 2323 103 q 2283 11 2323 29 q 2177 -8 2244 -8 l 1893 -8 m 1887 116 l 2184 116 q 2184 116 2184 116 q 2184 116 2184 116 l 2184 428 q 2184 428 2184 428 q 2184 428 2184 428 l 1887 428 q 1887 428 1887 428 q 1887 428 1887 428 l 1887 116 q 1887 116 1887 116 q 1887 116 1887 116 z "},"/":{"ha":672,"x_min":63,"x_max":609,"o":"m 449 993 l 609 993 l 222 -69 l 63 -69 l 449 993 z "},"\\":{"ha":672,"x_min":63,"x_max":609,"o":"m 222 993 l 609 -69 l 449 -69 l 63 993 l 222 993 z "},"⁄":{"ha":112,"x_min":-344,"x_max":456,"o":"m -344 0 l 301 972 l 456 972 l -189 0 l -344 0 z "},"⁒":{"ha":999,"x_min":100,"x_max":899,"o":"m 100 841 l 100 896 q 111 966 100 956 q 183 977 122 977 l 235 977 q 308 967 297 977 q 319 896 319 956 l 319 841 q 308 769 319 780 q 235 758 297 758 l 183 758 q 111 769 122 758 q 100 841 100 780 m 744 972 l 899 972 l 255 0 l 100 0 l 744 972 m 681 77 l 681 132 q 691 202 681 192 q 763 213 702 213 l 816 213 q 888 203 877 213 q 899 132 899 192 l 899 77 q 888 5 899 16 q 816 -6 877 -6 l 763 -6 q 691 5 702 -6 q 681 77 681 16 z "},"-":{"ha":715,"x_min":97,"x_max":618,"o":"m 97 494 l 618 494 l 618 339 l 97 339 l 97 494 z "},"‐":{"ha":715,"x_min":97,"x_max":618,"o":"m 97 494 l 618 494 l 618 339 l 97 339 l 97 494 z "},"–":{"ha":694,"x_min":0,"x_max":694,"o":"m 0 494 l 694 494 l 694 339 l 0 339 l 0 494 z "},"—":{"ha":1389,"x_min":0,"x_max":1389,"o":"m 0 494 l 1389 494 l 1389 339 l 0 339 l 0 494 z "},"_":{"ha":465,"x_min":0,"x_max":465,"o":"m 0 -208 l 0 -90 l 465 -90 l 465 -208 l 0 -208 z "},"̵":{"ha":715,"x_min":97,"x_max":618,"o":"m 97 494 l 618 494 l 618 339 l 97 339 l 97 494 z "},"|":{"ha":438,"x_min":139,"x_max":299,"o":"m 139 1056 l 299 1056 l 299 -333 l 139 -333 l 139 1056 z "},"¦":{"ha":438,"x_min":139,"x_max":299,"o":"m 139 1056 l 299 1056 l 299 500 l 139 500 l 139 1056 m 139 222 l 299 222 l 299 -333 l 139 -333 l 139 222 z "},"‖":{"ha":685,"x_min":139,"x_max":547,"o":"m 139 -333 l 139 1056 l 288 1056 l 288 -333 l 139 -333 m 398 -333 l 398 1056 l 547 1056 l 547 -333 l 398 -333 z "},"·":{"ha":455,"x_min":125,"x_max":330,"o":"m 125 393 l 125 434 q 136 505 125 494 q 208 515 147 515 l 247 515 q 319 505 308 515 q 330 434 330 494 l 330 393 q 319 321 330 332 q 247 310 308 310 l 208 310 q 136 321 147 310 q 125 393 125 332 z "},"•":{"ha":545,"x_min":139,"x_max":406,"o":"m 139 358 l 139 469 q 150 539 139 528 q 222 550 160 550 l 323 550 q 395 540 384 550 q 406 469 406 529 l 406 358 q 395 286 406 297 q 323 276 384 276 l 222 276 q 150 286 160 276 q 139 358 139 297 z "},"∙":{"ha":455,"x_min":125,"x_max":330,"o":"m 125 393 l 125 434 q 136 505 125 494 q 208 515 147 515 l 247 515 q 319 505 308 515 q 330 434 330 494 l 330 393 q 319 321 330 332 q 247 310 308 310 l 208 310 q 136 321 147 310 q 125 393 125 332 z "},".":{"ha":469,"x_min":125,"x_max":344,"o":"m 125 77 l 125 132 q 136 202 125 192 q 208 213 147 213 l 260 213 q 333 203 322 213 q 344 132 344 192 l 344 77 q 333 5 344 16 q 260 -6 322 -6 l 208 -6 q 136 5 147 -6 q 125 77 125 16 z "},"…":{"ha":1406,"x_min":125,"x_max":1281,"o":"m 125 77 l 125 132 q 136 202 125 192 q 208 213 147 213 l 260 213 q 333 203 322 213 q 344 132 344 192 l 344 77 q 333 5 344 16 q 260 -6 322 -6 l 208 -6 q 136 5 147 -6 q 125 77 125 16 m 594 77 l 594 132 q 605 202 594 192 q 676 213 615 213 l 729 213 q 801 203 790 213 q 813 132 813 192 l 813 77 q 801 5 813 16 q 729 -6 790 -6 l 676 -6 q 605 5 615 -6 q 594 77 594 16 m 1063 77 l 1063 132 q 1073 202 1063 192 q 1145 213 1084 213 l 1198 213 q 1270 203 1259 213 q 1281 132 1281 192 l 1281 77 q 1270 5 1281 16 q 1198 -6 1259 -6 l 1145 -6 q 1073 5 1084 -6 q 1063 77 1063 16 z "},",":{"ha":469,"x_min":125,"x_max":344,"o":"m 201 -210 l 137 -187 l 227 0 l 208 0 q 136 11 147 0 q 125 83 125 22 l 125 132 q 136 202 125 192 q 208 213 147 213 l 261 213 q 333 203 322 213 q 344 132 344 192 l 344 83 q 339 31 344 51 q 320 -11 334 12 l 201 -210 z "},":":{"ha":469,"x_min":125,"x_max":344,"o":"m 125 77 l 125 132 q 126 178 125 162 q 136 202 128 194 q 160 212 144 210 q 208 213 177 213 l 260 213 q 308 212 291 213 q 332 202 324 210 q 342 178 340 194 q 344 132 344 162 l 344 77 q 342 30 344 47 q 332 5 340 13 q 308 -4 324 -3 q 260 -6 291 -6 l 208 -6 q 160 -4 177 -6 q 136 5 144 -3 q 126 30 128 13 q 125 77 125 47 m 125 565 l 125 620 q 126 666 125 650 q 136 691 128 683 q 160 700 144 699 q 208 701 177 701 l 260 701 q 308 700 291 701 q 332 691 324 699 q 342 666 340 683 q 344 620 344 650 l 344 565 q 342 518 344 535 q 332 493 340 501 q 308 484 324 485 q 260 483 291 483 l 208 483 q 160 484 177 483 q 136 493 144 485 q 126 518 128 501 q 125 565 125 535 z "},";":{"ha":469,"x_min":125,"x_max":344,"o":"m 137 -186 l 235 17 l 337 17 l 201 -208 l 137 -186 m 125 84 l 125 132 q 136 202 125 192 q 208 213 147 213 l 260 213 q 333 203 322 213 q 344 132 344 192 l 344 84 q 333 12 344 23 q 260 1 322 1 l 208 1 q 136 12 147 1 q 125 84 125 23 m 125 565 l 125 620 q 136 691 125 680 q 208 701 147 701 l 260 701 q 333 691 322 701 q 344 620 344 681 l 344 565 q 333 493 344 504 q 260 483 322 483 l 208 483 q 136 493 147 483 q 125 565 125 504 z "},"'":{"ha":439,"x_min":125,"x_max":314,"o":"m 125 858 l 125 927 q 134 998 125 988 q 194 1008 143 1008 l 245 1008 q 305 998 296 1008 q 314 927 314 988 l 314 858 l 258 580 l 181 580 l 125 858 z "},"\"":{"ha":753,"x_min":125,"x_max":628,"o":"m 125 872 l 125 941 q 134 1012 125 1001 q 194 1022 143 1022 l 245 1022 q 305 1012 296 1022 q 314 941 314 1001 l 314 872 l 258 594 l 181 594 l 125 872 m 439 872 l 439 941 q 448 1012 439 1001 q 508 1022 457 1022 l 559 1022 q 619 1012 610 1022 q 628 941 628 1001 l 628 872 l 572 594 l 494 594 l 439 872 z "},"‘":{"ha":469,"x_min":125,"x_max":344,"o":"m 268 1033 l 332 1010 l 242 823 l 261 823 q 333 812 322 823 q 344 740 344 801 l 344 691 q 333 620 344 631 q 261 610 322 610 l 208 610 q 136 620 147 610 q 125 691 125 631 l 125 740 q 130 792 125 772 q 149 834 135 811 l 268 1033 z "},"’":{"ha":469,"x_min":125,"x_max":344,"o":"m 201 608 l 137 631 l 227 818 l 208 818 q 136 829 147 818 q 125 901 125 840 l 125 950 q 136 1020 125 1010 q 208 1031 147 1031 l 261 1031 q 333 1021 322 1031 q 344 950 344 1010 l 344 901 q 339 849 344 869 q 320 807 334 830 l 201 608 z "},"‚":{"ha":469,"x_min":125,"x_max":344,"o":"m 201 -210 l 137 -187 l 227 0 l 208 0 q 136 11 147 0 q 125 83 125 22 l 125 132 q 136 202 125 192 q 208 213 147 213 l 261 213 q 333 203 322 213 q 344 132 344 192 l 344 83 q 339 31 344 51 q 320 -11 334 12 l 201 -210 z "},"“":{"ha":813,"x_min":125,"x_max":688,"o":"m 268 1033 l 332 1010 l 242 823 l 261 823 q 333 812 322 823 q 344 740 344 801 l 344 691 q 333 620 344 631 q 261 610 322 610 l 208 610 q 136 620 147 610 q 125 691 125 631 l 125 740 q 130 792 125 772 q 149 834 135 811 l 268 1033 m 612 1033 l 676 1010 l 585 823 l 605 823 q 677 812 666 823 q 688 740 688 801 l 688 691 q 677 620 688 631 q 605 610 666 610 l 551 610 q 480 620 490 610 q 469 691 469 631 l 469 740 q 474 792 469 772 q 492 834 478 811 l 612 1033 z "},"”":{"ha":813,"x_min":125,"x_max":688,"o":"m 201 608 l 137 631 l 227 818 l 208 818 q 136 829 147 818 q 125 901 125 840 l 125 950 q 136 1020 125 1010 q 208 1031 147 1031 l 261 1031 q 333 1021 322 1031 q 344 950 344 1010 l 344 901 q 339 849 344 869 q 320 807 334 830 l 201 608 m 544 608 l 481 631 l 571 818 l 551 818 q 480 829 490 818 q 469 901 469 840 l 469 950 q 480 1020 469 1010 q 551 1031 490 1031 l 605 1031 q 677 1021 666 1031 q 688 950 688 1010 l 688 901 q 683 849 688 869 q 664 807 678 830 l 544 608 z "},"„":{"ha":813,"x_min":125,"x_max":688,"o":"m 201 -210 l 137 -187 l 227 0 l 208 0 q 136 11 147 0 q 125 83 125 22 l 125 132 q 136 202 125 192 q 208 213 147 213 l 261 213 q 333 203 322 213 q 344 132 344 192 l 344 83 q 339 31 344 51 q 320 -11 334 12 l 201 -210 m 544 -210 l 481 -187 l 571 0 l 551 0 q 480 11 490 0 q 469 83 469 22 l 469 132 q 480 202 469 192 q 551 213 490 213 l 605 213 q 677 203 666 213 q 688 132 688 192 l 688 83 q 683 31 688 51 q 664 -11 678 12 l 544 -210 z "},"ʼ":{"ha":469,"x_min":125,"x_max":344,"o":"m 201 608 l 137 631 l 227 818 l 208 818 q 136 829 147 818 q 125 901 125 840 l 125 950 q 136 1020 125 1010 q 208 1031 147 1031 l 261 1031 q 333 1021 322 1031 q 344 950 344 1010 l 344 901 q 339 849 344 869 q 320 807 334 830 l 201 608 z "},"′":{"ha":469,"x_min":125,"x_max":348,"o":"m 176 927 q 191 973 185 957 q 206 998 197 990 q 230 1007 215 1006 q 269 1008 244 1008 l 285 1008 q 342 998 336 1008 q 330 927 348 988 l 168 580 l 125 580 l 176 927 z "},"″":{"ha":939,"x_min":125,"x_max":817,"o":"m 176 927 q 191 973 185 957 q 206 998 197 990 q 230 1007 215 1006 q 269 1008 244 1008 l 285 1008 q 342 998 336 1008 q 330 927 348 988 l 168 580 l 125 580 l 176 927 m 645 927 q 660 973 654 957 q 676 998 667 990 q 699 1007 685 1006 q 738 1008 713 1008 l 755 1008 q 811 998 806 1008 q 799 927 817 988 l 638 580 l 594 580 l 645 927 z "},"ʹ":{"ha":469,"x_min":125,"x_max":348,"o":"m 176 927 q 191 973 185 957 q 206 998 197 990 q 230 1007 215 1006 q 269 1008 244 1008 l 285 1008 q 342 998 336 1008 q 330 927 348 988 l 168 580 l 125 580 l 176 927 z "},"ʺ":{"ha":939,"x_min":125,"x_max":817,"o":"m 176 927 q 191 973 185 957 q 206 998 197 990 q 230 1007 215 1006 q 269 1008 244 1008 l 285 1008 q 342 998 336 1008 q 330 927 348 988 l 168 580 l 125 580 l 176 927 m 645 927 q 660 973 654 957 q 676 998 667 990 q 699 1007 685 1006 q 738 1008 713 1008 l 755 1008 q 811 998 806 1008 q 799 927 817 988 l 638 580 l 594 580 l 645 927 z "},"‹":{"ha":420,"x_min":50,"x_max":372,"o":"m 218 90 l 50 347 l 218 604 l 372 604 l 204 347 l 372 90 l 218 90 z "},"›":{"ha":420,"x_min":48,"x_max":370,"o":"m 202 604 l 370 347 l 202 90 l 48 90 l 216 347 l 48 604 l 202 604 z "},"«":{"ha":688,"x_min":50,"x_max":640,"o":"m 218 90 l 50 347 l 218 604 l 372 604 l 204 347 l 372 90 l 218 90 m 485 90 l 317 347 l 485 604 l 640 604 l 472 347 l 640 90 l 485 90 z "},"»":{"ha":688,"x_min":48,"x_max":638,"o":"m 469 604 l 638 347 l 469 90 l 315 90 l 483 347 l 315 604 l 469 604 m 202 604 l 370 347 l 202 90 l 48 90 l 216 347 l 48 604 l 202 604 z "},"ʻ":{"ha":469,"x_min":125,"x_max":344,"o":"m 268 1033 l 332 1010 l 242 823 l 261 823 q 333 812 322 823 q 344 740 344 801 l 344 691 q 333 620 344 631 q 261 610 322 610 l 208 610 q 136 620 147 610 q 125 691 125 631 l 125 740 q 130 792 125 772 q 149 834 135 811 l 268 1033 z "},"̒":{"ha":0,"x_min":-84,"x_max":84,"o":"m 26 1083 l 75 1066 l 6 918 l 21 918 q 76 909 67 918 q 84 853 84 901 l 84 815 q 76 759 84 767 q 21 751 67 751 l -20 751 q -76 759 -67 751 q -84 815 -84 767 l -84 853 q -82 888 -84 874 q -75 912 -81 903 l 26 1083 z "},"̦":{"ha":0,"x_min":-84,"x_max":84,"o":"m -26 -420 l -75 -403 l -6 -255 l -21 -255 q -76 -246 -67 -255 q -84 -190 -84 -237 l -84 -152 q -76 -96 -84 -104 q -21 -87 -67 -87 l 20 -87 q 76 -96 67 -87 q 84 -152 84 -104 l 84 -190 q 82 -225 84 -210 q 75 -249 81 -240 l -26 -420 z "},"´":{"ha":463,"x_min":35,"x_max":428,"o":"m 35 753 l 251 1006 l 428 1006 l 191 753 l 35 753 z "},"́":{"ha":0,"x_min":-151,"x_max":243,"o":"m -151 753 l 66 1006 l 243 1006 l 6 753 l -151 753 z "},"˝":{"ha":778,"x_min":69,"x_max":708,"o":"m 69 753 l 265 1006 l 424 1006 l 210 753 l 69 753 m 354 753 l 549 1006 l 708 1006 l 494 753 l 354 753 z "},"̋":{"ha":0,"x_min":-228,"x_max":411,"o":"m -228 753 l -33 1006 l 126 1006 l -87 753 l -228 753 m 57 753 l 252 1006 l 411 1006 l 197 753 l 57 753 z "},"`":{"ha":463,"x_min":35,"x_max":428,"o":"m 272 753 l 35 1006 l 212 1006 l 428 753 l 272 753 z "},"̀":{"ha":0,"x_min":-243,"x_max":151,"o":"m -6 753 l -243 1006 l -66 1006 l 151 753 l -6 753 z "},"̏":{"ha":0,"x_min":-411,"x_max":228,"o":"m 88 753 l -126 1006 l 33 1006 l 228 753 l 88 753 m -197 753 l -411 1006 l -252 1006 l -57 753 l -197 753 z "},"^":{"ha":678,"x_min":7,"x_max":671,"o":"m 7 590 l 283 972 l 394 972 l 671 590 l 514 590 l 336 873 l 160 590 l 7 590 z "},"ˆ":{"ha":602,"x_min":35,"x_max":567,"o":"m 35 753 l 246 1006 l 358 1006 l 567 753 l 410 753 l 299 906 l 188 753 l 35 753 z "},"̂":{"ha":0,"x_min":-266,"x_max":267,"o":"m -266 753 l -55 1006 l 57 1006 l 267 753 l 110 753 l -1 906 l -113 753 l -266 753 z "},"ˇ":{"ha":602,"x_min":35,"x_max":567,"o":"m 244 753 l 35 1006 l 192 1006 l 303 853 l 415 1006 l 567 1006 l 356 753 l 244 753 z "},"̌":{"ha":0,"x_min":-265,"x_max":267,"o":"m -56 753 l -265 1006 l -108 1006 l 3 853 l 115 1006 l 267 1006 l 56 753 l -56 753 z "},"~":{"ha":999,"x_min":90,"x_max":908,"o":"m 90 334 q 131 426 104 390 q 191 484 157 463 q 265 515 226 506 q 343 524 304 524 q 434 509 390 524 q 519 478 478 495 q 596 447 560 461 q 663 433 632 433 q 694 436 678 433 q 724 448 710 440 q 750 472 738 457 q 766 508 761 486 l 908 483 q 868 390 894 426 q 807 331 841 353 q 734 300 773 309 q 656 292 694 292 q 564 306 608 292 q 480 338 520 321 q 403 369 439 355 q 335 384 367 384 q 305 381 321 384 q 275 368 289 377 q 249 345 260 360 q 233 309 238 331 l 90 334 z "},"˜":{"ha":625,"x_min":35,"x_max":590,"o":"m 35 805 q 106 939 53 905 q 211 972 158 972 q 272 963 243 972 q 326 941 301 953 q 374 920 351 930 q 415 910 396 910 q 453 923 435 910 q 479 972 472 935 l 590 953 q 519 818 572 852 q 414 785 467 785 q 353 794 382 785 q 299 816 324 804 q 251 838 274 828 q 210 847 229 847 q 172 835 190 847 q 146 785 153 822 l 35 805 z "},"̃":{"ha":0,"x_min":-278,"x_max":278,"o":"m -278 805 q -207 939 -260 905 q -101 972 -154 972 q -41 963 -69 972 q 14 941 -12 953 q 61 920 39 930 q 102 910 83 910 q 141 923 122 910 q 167 972 159 935 l 278 953 q 207 818 259 852 q 101 785 154 785 q 41 794 69 785 q -14 816 12 804 q -61 838 -39 828 q -102 847 -83 847 q -141 835 -122 847 q -167 785 -159 822 l -278 805 z "},"¨":{"ha":472,"x_min":14,"x_max":458,"o":"m 76 796 q 22 804 31 796 q 14 858 14 813 l 14 901 q 22 955 14 947 q 76 963 31 963 l 118 963 q 172 955 164 963 q 181 901 181 947 l 181 858 q 172 804 181 813 q 118 796 164 796 l 76 796 m 354 796 q 300 804 308 796 q 292 858 292 813 l 292 901 q 300 955 292 947 q 354 963 308 963 l 396 963 q 450 955 442 963 q 458 901 458 947 l 458 858 q 450 804 458 813 q 396 796 442 796 l 354 796 z "},"̈":{"ha":0,"x_min":-222,"x_max":222,"o":"m -160 796 q -214 804 -206 796 q -222 858 -222 813 l -222 901 q -214 955 -222 947 q -160 963 -206 963 l -118 963 q -64 955 -72 963 q -56 901 -56 947 l -56 858 q -64 804 -56 813 q -118 796 -72 796 l -160 796 m 118 796 q 64 804 72 796 q 56 858 56 813 l 56 901 q 64 955 56 947 q 118 963 72 963 l 160 963 q 214 955 206 963 q 222 901 222 947 l 222 858 q 214 804 222 813 q 160 796 206 796 l 118 796 z "},"̤":{"ha":0,"x_min":-222,"x_max":222,"o":"m -160 -250 q -214 -242 -206 -250 q -222 -187 -222 -233 l -222 -144 q -214 -91 -222 -99 q -160 -83 -206 -83 l -118 -83 q -64 -91 -72 -83 q -56 -144 -56 -99 l -56 -187 q -64 -242 -56 -233 q -118 -250 -72 -250 l -160 -250 m 118 -250 q 64 -242 72 -250 q 56 -187 56 -233 l 56 -144 q 64 -91 56 -99 q 118 -83 72 -83 l 160 -83 q 214 -91 206 -83 q 222 -144 222 -99 l 222 -187 q 214 -242 222 -233 q 160 -250 206 -250 l 118 -250 z "},"¯":{"ha":493,"x_min":14,"x_max":479,"o":"m 14 823 l 14 934 l 479 934 l 479 823 l 14 823 z "},"̄":{"ha":0,"x_min":-233,"x_max":233,"o":"m -233 823 l -233 934 l 233 934 l 233 823 l -233 823 z "},"̱":{"ha":0,"x_min":-233,"x_max":233,"o":"m -233 -191 l -233 -80 l 233 -80 l 233 -191 l -233 -191 z "},"¸":{"ha":285,"x_min":14,"x_max":272,"o":"m 131 -304 q 66 -295 94 -304 q 14 -269 38 -286 l 44 -217 q 68 -226 53 -222 q 99 -230 83 -230 q 137 -218 123 -230 q 151 -187 151 -207 q 137 -156 151 -166 q 99 -146 123 -146 q 68 -148 83 -146 q 36 -156 53 -151 l 108 0 l 168 0 l 133 -75 q 192 -82 167 -75 q 236 -102 218 -89 q 263 -136 253 -116 q 272 -184 272 -157 q 261 -236 272 -214 q 233 -274 251 -259 q 189 -297 215 -289 q 131 -304 163 -304 z "},"̧":{"ha":0,"x_min":-129,"x_max":128,"o":"m -12 -304 q -76 -296 -47 -304 q -129 -269 -105 -287 l -99 -217 q -74 -226 -90 -222 q -44 -230 -58 -230 q -6 -218 -19 -230 q 8 -187 8 -207 q -6 -156 8 -167 q -45 -146 -19 -146 q -75 -149 -59 -146 q -107 -156 -91 -151 l -30 10 l 0 10 l 30 10 l -10 -75 q 94 -103 59 -76 q 128 -185 128 -131 q 92 -273 128 -242 q -12 -304 55 -304 z "},"˚":{"ha":304,"x_min":14,"x_max":290,"o":"m 152 749 q 81 755 108 749 q 39 774 53 760 q 19 814 24 788 q 14 880 14 839 q 19 946 14 921 q 39 986 24 972 q 81 1005 53 1000 q 152 1010 108 1010 q 223 1005 196 1010 q 265 986 250 1000 q 285 946 280 972 q 290 880 290 921 q 285 814 290 839 q 265 774 280 788 q 223 755 250 760 q 152 749 196 749 m 152 827 q 194 839 185 827 q 202 880 202 851 q 194 920 202 908 q 152 932 185 932 q 110 920 118 932 q 102 880 102 908 q 110 839 102 851 q 152 827 118 827 z "},"̊":{"ha":0,"x_min":-138,"x_max":138,"o":"m 0 749 q -72 755 -44 749 q -114 774 -99 760 q -133 814 -128 788 q -138 880 -138 839 q -133 946 -138 921 q -114 986 -128 972 q -72 1005 -99 1000 q 0 1010 -44 1010 q 71 1005 44 1010 q 113 986 98 1000 q 133 946 128 972 q 138 880 138 921 q 133 814 138 839 q 113 774 128 788 q 71 755 98 760 q 0 749 44 749 m 0 827 q 42 839 33 827 q 50 880 50 851 q 42 920 50 908 q 0 932 33 932 q -42 920 -34 932 q -50 880 -50 908 q -42 839 -50 851 q 0 827 -34 827 z "},"˘":{"ha":429,"x_min":14,"x_max":415,"o":"m 215 766 q 117 775 156 766 q 56 809 78 785 q 23 875 33 833 q 14 979 14 916 l 122 979 q 125 926 122 947 q 140 894 129 906 q 168 878 150 883 q 215 874 186 874 q 261 878 244 874 q 290 894 279 883 q 304 926 300 906 q 308 979 308 947 l 415 979 q 406 875 415 916 q 374 809 397 833 q 313 775 351 785 q 215 766 274 766 z "},"̆":{"ha":0,"x_min":-201,"x_max":201,"o":"m 1 766 q -98 775 -59 766 q -160 809 -137 785 q -192 875 -183 833 q -201 979 -201 916 l -93 979 q -89 926 -93 947 q -75 894 -85 906 q -47 878 -65 883 q 1 874 -28 874 q 47 878 29 874 q 75 894 65 883 q 89 926 85 906 q 93 979 93 947 l 201 979 q 192 875 201 916 q 160 809 183 833 q 98 775 137 785 q 1 766 60 766 z "},"̮":{"ha":0,"x_min":-201,"x_max":200,"o":"m 0 -283 q -99 -273 -60 -283 q -160 -240 -137 -264 q -192 -174 -183 -215 q -201 -69 -201 -133 l -94 -69 q -90 -123 -94 -102 q -76 -155 -86 -143 q -47 -170 -65 -166 q 0 -175 -29 -175 q 46 -170 28 -175 q 74 -155 64 -166 q 89 -123 85 -143 q 92 -69 92 -102 l 200 -69 q 191 -174 200 -133 q 159 -240 182 -215 q 98 -273 136 -264 q 0 -283 59 -283 z "},"̑":{"ha":0,"x_min":-201,"x_max":201,"o":"m -201 766 l -93 766 q -89 819 -93 799 q -75 851 -85 840 q -47 867 -65 863 q 1 872 -28 872 q 47 867 29 872 q 75 851 65 863 q 89 819 85 840 q 93 766 93 799 l 201 766 q 192 871 201 830 q 160 936 183 912 q 98 970 137 960 q 1 979 60 979 q -98 970 -59 979 q -160 936 -137 960 q -192 871 -183 912 q -201 766 -201 830 z "},"˙":{"ha":194,"x_min":14,"x_max":181,"o":"m 76 800 q 22 808 31 800 q 14 861 14 816 l 14 904 q 22 957 14 949 q 76 965 31 965 l 118 965 q 172 957 164 965 q 181 904 181 949 l 181 861 q 172 808 181 816 q 118 800 164 800 l 76 800 z "},"̇":{"ha":0,"x_min":-83,"x_max":83,"o":"m -21 800 q -75 808 -67 800 q -83 861 -83 816 l -83 904 q -75 957 -83 949 q -21 965 -67 965 l 21 965 q 75 957 67 965 q 83 904 83 949 l 83 861 q 75 808 83 816 q 21 800 67 800 l -21 800 z "},"̣":{"ha":0,"x_min":-83,"x_max":83,"o":"m -21 -236 q -75 -228 -67 -236 q -83 -175 -83 -220 l -83 -132 q -75 -79 -83 -87 q -21 -71 -67 -71 l 21 -71 q 75 -79 67 -71 q 83 -132 83 -87 l 83 -175 q 75 -228 83 -220 q 21 -236 67 -236 l -21 -236 z "},"˛":{"ha":340,"x_min":14,"x_max":326,"o":"m 177 -297 q 60 -264 106 -297 q 14 -167 14 -231 q 47 -68 14 -112 q 136 0 81 -24 l 272 0 q 193 -36 224 -8 q 163 -102 163 -65 q 186 -150 163 -135 q 245 -166 210 -166 q 286 -161 265 -166 q 326 -145 306 -156 l 299 -269 q 241 -290 272 -283 q 177 -297 210 -297 z "},"̨":{"ha":0,"x_min":-156,"x_max":156,"o":"m 7 -297 q -110 -264 -64 -297 q -156 -167 -156 -231 q -123 -68 -156 -112 q -34 0 -90 -24 l 102 0 q 23 -36 54 -8 q -8 -102 -8 -65 q 16 -150 -8 -135 q 75 -166 40 -166 q 116 -161 95 -166 q 156 -145 136 -156 l 129 -269 q 71 -290 101 -283 q 7 -297 40 -297 z "},"̉":{"ha":0,"x_min":-140,"x_max":135,"o":"m -65 764 q -20 795 -38 777 q -2 837 -2 813 q -15 872 -2 859 q -49 885 -27 885 q -81 880 -67 885 q -106 869 -94 875 l -140 933 q -78 969 -111 957 q -6 981 -45 981 q 97 951 58 981 q 135 871 135 920 q 110 809 135 836 q 47 764 85 782 l -65 764 z "},"̛":{"ha":0,"x_min":-7,"x_max":231,"o":"m -7 615 l -7 694 l 0 694 q 74 718 51 694 q 97 797 97 742 q 95 844 97 817 q 87 904 92 872 l 215 928 q 227 848 223 885 q 231 783 231 811 q 218 707 231 738 q 178 656 206 676 q 106 627 150 637 q 0 615 63 618 l -7 615 z "},"$":{"ha":1106,"x_min":83,"x_max":1015,"o":"m 493 -114 l 493 11 l 321 11 q 222 19 266 11 q 147 49 178 27 q 100 110 116 71 q 83 210 83 149 l 83 253 l 258 289 l 258 181 q 258 181 258 181 q 258 181 258 181 l 493 181 l 493 407 l 342 407 q 243 415 287 407 q 168 445 199 424 q 120 507 137 467 q 104 607 104 546 l 104 771 q 122 868 104 831 q 170 926 139 905 q 245 954 201 947 q 342 961 289 961 l 493 961 l 493 1086 l 642 1086 l 642 961 l 763 961 q 860 954 816 961 q 935 926 903 947 q 984 868 967 905 q 1001 771 1001 831 l 1001 722 l 826 688 l 826 792 q 826 792 826 792 q 826 792 826 792 l 642 792 l 642 576 l 776 576 q 874 569 830 576 q 949 541 917 562 q 998 483 981 520 q 1015 386 1015 446 l 1015 210 q 999 110 1015 149 q 952 49 983 71 q 876 19 921 27 q 776 11 832 11 l 642 11 l 642 -114 l 493 -114 m 493 576 l 493 792 l 279 792 q 279 792 279 792 q 279 792 279 792 l 279 576 q 279 576 279 576 q 279 576 279 576 l 493 576 m 642 181 l 840 181 q 840 181 840 181 q 840 181 840 181 l 840 407 q 840 407 840 407 q 840 407 840 407 l 642 407 l 642 181 z "},"€":{"ha":1196,"x_min":118,"x_max":1108,"o":"m 456 -10 q 272 36 326 -10 q 218 189 218 81 l 218 310 l 118 310 l 118 421 l 218 421 l 218 526 l 118 526 l 118 638 l 218 638 l 218 792 q 273 938 218 894 q 456 982 328 982 l 864 982 q 1048 938 992 982 q 1103 792 1103 894 l 1103 725 l 919 692 l 919 813 q 919 813 919 813 q 919 813 919 813 l 401 813 q 401 813 401 813 q 401 813 401 813 l 401 638 l 793 638 l 771 526 l 401 526 l 401 421 l 744 421 l 722 310 l 401 310 l 401 160 q 401 160 401 160 q 401 160 401 160 l 925 160 q 925 160 925 160 q 925 160 925 160 l 925 299 l 1108 263 l 1108 189 q 1054 36 1108 81 q 869 -10 999 -10 l 456 -10 z "},"¢":{"ha":931,"x_min":106,"x_max":851,"o":"m 397 -69 l 397 97 l 283 97 q 146 131 186 97 q 106 246 106 165 l 106 664 q 147 773 106 740 q 283 806 188 806 l 397 806 l 397 972 l 546 972 l 546 806 l 671 806 q 808 773 767 806 q 849 664 849 740 l 849 590 l 676 558 l 676 650 q 676 650 676 650 q 676 650 676 650 l 546 650 l 546 253 l 679 253 q 679 253 679 253 q 679 253 679 253 l 679 351 l 851 317 l 851 246 q 811 131 851 165 q 674 97 771 97 l 546 97 l 546 -69 l 397 -69 m 397 650 l 278 650 q 278 650 278 650 q 278 650 278 650 l 278 253 q 278 253 278 253 q 278 253 278 253 l 397 253 l 397 650 z "},"£":{"ha":1208,"x_min":24,"x_max":1128,"o":"m 24 0 l 24 169 l 174 169 q 227 186 211 169 q 244 239 244 202 l 244 399 l 91 399 l 91 510 l 244 510 l 244 771 q 304 927 244 873 q 502 982 365 982 l 883 982 q 1067 938 1012 982 q 1122 792 1122 894 l 1122 725 l 939 692 l 939 743 q 923 796 939 780 q 869 813 906 813 l 497 813 q 444 795 461 813 q 427 743 427 778 l 427 510 l 763 510 l 740 399 l 427 399 l 427 329 q 420 240 427 279 q 397 169 413 200 l 875 169 q 928 186 912 169 q 944 239 944 202 l 944 308 l 1128 272 l 1128 199 q 1073 45 1128 91 q 889 0 1019 0 l 24 0 z "},"¤":{"ha":1161,"x_min":36,"x_max":1125,"o":"m 115 -36 l 36 42 l 200 206 q 191 240 194 222 q 188 281 188 258 l 188 699 q 190 736 188 719 q 199 767 193 753 l 36 930 l 115 1008 l 290 833 q 324 839 306 837 q 365 840 343 840 l 796 840 q 837 839 818 840 q 872 833 856 837 l 1047 1008 l 1125 930 l 962 767 q 971 736 968 753 q 974 699 974 719 l 974 281 q 971 240 974 258 q 962 206 968 221 l 1125 42 l 1047 -36 l 872 139 q 837 134 856 135 q 796 132 818 132 l 365 132 q 324 134 343 132 q 290 139 306 135 l 115 -36 m 360 288 l 801 288 q 801 288 801 288 q 801 288 801 288 l 801 685 q 801 685 801 685 q 801 685 801 685 l 360 685 q 360 685 360 685 q 360 685 360 685 l 360 288 q 360 288 360 288 q 360 288 360 288 z "},"¥":{"ha":1088,"x_min":0,"x_max":1088,"o":"m 461 0 l 461 251 l 208 251 l 208 363 l 461 363 l 461 425 l 461 425 l 208 425 l 208 536 l 367 536 l 0 972 l 263 972 l 560 593 l 860 972 l 1088 972 l 734 536 l 880 536 l 880 425 l 644 425 l 644 363 l 880 363 l 880 251 l 644 251 l 644 0 l 461 0 z "},"₡":{"ha":1117,"x_min":118,"x_max":1029,"o":"m 418 -114 l 339 -114 l 547 1086 l 626 1086 l 418 -114 m 578 -114 l 499 -114 l 707 1086 l 786 1086 l 578 -114 m 118 778 q 173 924 118 880 q 356 968 228 968 l 785 968 q 968 924 913 968 q 1024 778 1024 880 l 1024 656 l 840 622 l 840 799 q 840 799 840 799 q 840 799 840 799 l 301 799 q 301 799 301 799 q 301 799 301 799 l 301 174 q 301 174 301 174 q 301 174 301 174 l 846 174 q 846 174 846 174 q 846 174 846 174 l 846 368 l 1029 332 l 1029 203 q 975 50 1029 95 q 790 4 920 4 l 356 4 q 172 50 226 4 q 118 203 118 95 l 118 778 z "},"₣":{"ha":1017,"x_min":54,"x_max":972,"o":"m 139 0 l 139 193 l 54 193 l 54 321 l 139 321 l 139 972 l 972 972 l 972 803 l 322 803 l 322 579 l 685 579 l 685 410 l 322 410 l 322 321 l 575 321 l 575 193 l 322 193 l 322 0 l 139 0 z "},"₤":{"ha":1208,"x_min":24,"x_max":1128,"o":"m 24 0 l 24 169 l 174 169 q 227 186 211 169 q 244 239 244 202 l 244 771 q 304 927 244 873 q 502 982 365 982 l 883 982 q 1067 938 1012 982 q 1122 792 1122 894 l 1122 725 l 939 692 l 939 743 q 923 796 939 780 q 869 813 906 813 l 497 813 q 444 795 461 813 q 427 743 427 778 l 427 329 q 414 214 427 263 q 372 133 401 165 q 298 85 343 101 q 190 69 253 69 l 24 0 m 24 0 l 24 169 l 875 169 q 928 186 912 169 q 944 239 944 202 l 944 308 l 1128 272 l 1128 199 q 1073 45 1128 91 q 889 0 1019 0 l 24 0 m 91 490 l 91 601 l 763 601 l 740 490 l 91 490 m 91 316 l 91 427 l 763 427 l 740 316 l 91 316 z "},"₦":{"ha":1201,"x_min":66,"x_max":1135,"o":"m 66 526 l 66 638 l 1135 638 l 1135 526 l 66 526 m 66 310 l 66 421 l 1135 421 l 1135 310 l 66 310 m 139 0 l 139 972 l 281 972 l 893 289 l 893 972 l 1063 972 l 1063 0 l 921 0 l 308 679 l 308 0 l 139 0 z "},"₧":{"ha":1556,"x_min":139,"x_max":1458,"o":"m 139 0 l 139 972 l 356 972 q 528 936 461 972 q 594 782 594 901 l 594 547 q 535 412 594 457 q 356 367 476 367 l 322 367 l 322 0 l 139 0 m 322 536 l 338 536 q 393 550 374 536 q 411 606 411 564 l 411 733 q 393 786 411 770 q 338 803 374 803 l 322 803 l 322 536 m 1228 -7 q 1104 20 1149 -7 q 1059 135 1059 47 l 1059 175 l 1212 207 l 1212 135 q 1212 135 1212 135 q 1212 135 1212 135 l 1305 135 q 1305 135 1305 135 q 1305 135 1305 135 l 1305 278 q 1305 278 1305 278 q 1305 278 1305 278 l 1244 278 q 1119 305 1164 278 q 1074 421 1074 333 l 1074 565 q 1121 676 1074 650 q 1244 701 1168 701 l 1277 701 q 1401 676 1353 701 q 1448 565 1448 650 l 1448 528 l 1295 497 l 1295 560 q 1295 560 1295 560 q 1295 560 1295 560 l 1227 560 q 1227 560 1227 560 q 1227 560 1227 560 l 1227 424 q 1227 424 1227 424 q 1227 424 1227 424 l 1287 424 q 1410 399 1363 424 q 1458 288 1458 374 l 1458 135 q 1413 20 1458 47 q 1287 -7 1367 -7 l 1228 -7 m 901 -7 q 764 27 805 -7 q 724 142 724 61 l 724 553 l 653 553 l 653 694 l 724 694 l 724 864 l 896 864 l 896 694 l 1008 694 l 1008 553 l 896 553 l 896 135 q 896 135 896 135 q 896 135 896 135 l 1001 135 l 972 -7 l 901 -7 z "},"₩":{"ha":1385,"x_min":7,"x_max":1378,"o":"m 53 431 l 53 542 l 1331 542 l 1331 431 l 53 431 m 335 0 l 7 972 l 217 972 l 419 340 l 631 972 l 774 972 l 990 336 l 1201 972 l 1378 972 l 1044 0 l 906 0 l 688 626 l 474 0 l 335 0 z "},"₫":{"ha":1117,"x_min":99,"x_max":1047,"o":"m 747 0 l 747 69 q 691 12 733 31 q 581 -7 650 -7 l 276 -7 q 139 27 180 -7 q 99 142 99 61 l 99 490 q 140 599 99 566 q 276 632 181 632 l 581 632 q 691 613 650 632 q 747 556 733 594 l 747 724 l 402 724 l 402 880 l 747 880 l 747 972 l 919 972 l 919 880 l 1047 880 l 1047 724 l 919 724 l 919 0 l 747 0 m 747 476 l 271 476 q 271 476 271 476 q 271 476 271 476 l 271 149 q 271 149 271 149 q 271 149 271 149 l 747 149 l 747 476 m 919 -104 l 919 -260 l 126 -260 l 126 -104 l 919 -104 z "},"₭":{"ha":1156,"x_min":14,"x_max":1156,"o":"m 14 434 l 14 562 l 868 562 l 868 434 l 14 434 m 139 0 l 139 972 l 322 972 l 322 538 l 280 510 l 805 972 l 1054 972 l 519 510 l 519 521 l 1156 0 l 866 0 l 284 482 l 322 459 l 322 0 l 139 0 z "},"₱":{"ha":1185,"x_min":111,"x_max":1108,"o":"m 169 0 l 169 564 l 111 564 l 111 619 l 169 619 l 169 682 l 111 682 l 111 738 l 169 738 l 169 972 l 771 972 q 959 926 890 972 q 1028 743 1028 881 l 1028 738 l 1108 738 l 1091 682 l 1028 682 l 1028 619 l 1108 619 l 1091 564 l 1028 564 l 1028 557 q 1013 455 1028 498 q 966 385 997 413 q 885 345 934 358 q 770 332 837 332 l 353 332 l 353 0 l 169 0 m 353 738 l 844 738 l 844 739 q 825 787 844 772 q 771 803 806 803 l 353 803 l 353 738 m 353 501 l 771 501 q 825 514 806 501 q 844 563 844 527 l 844 564 l 353 564 l 353 501 m 353 619 l 844 619 l 844 682 l 353 682 l 353 619 z "},"₲":{"ha":1200,"x_min":118,"x_max":1089,"o":"m 522 -10 l 356 -10 q 172 36 226 -10 q 118 189 118 81 l 118 792 q 173 938 118 894 q 356 982 228 982 l 522 982 l 522 1086 l 671 1086 l 671 982 l 846 982 q 1030 938 974 982 q 1085 792 1085 894 l 1085 719 l 901 681 l 901 813 q 901 813 901 813 q 901 813 901 813 l 671 813 l 671 160 l 906 160 q 906 160 906 160 q 906 160 906 160 l 906 390 l 774 390 l 774 560 l 1089 560 l 1089 189 q 1034 36 1089 81 q 850 -10 980 -10 l 671 -10 l 671 -114 l 522 -114 l 522 -10 m 522 160 l 522 813 l 301 813 q 301 813 301 813 q 301 813 301 813 l 301 160 q 301 160 301 160 q 301 160 301 160 l 522 160 z "},"₵":{"ha":1117,"x_min":118,"x_max":1029,"o":"m 499 -114 l 499 18 l 356 18 q 172 64 226 18 q 118 217 118 109 l 118 764 q 173 910 118 866 q 356 954 228 954 l 499 954 l 499 1086 l 647 1086 l 647 954 l 785 954 q 968 910 913 954 q 1024 764 1024 866 l 1024 656 l 840 622 l 840 785 q 840 785 840 785 q 840 785 840 785 l 647 785 l 647 188 l 846 188 q 846 188 846 188 q 846 188 846 188 l 846 368 l 1029 332 l 1029 217 q 975 64 1029 109 q 790 18 920 18 l 647 18 l 647 -114 l 499 -114 m 301 188 l 499 188 l 499 785 l 301 785 q 301 785 301 785 q 301 785 301 785 l 301 188 q 301 188 301 188 q 301 188 301 188 z "},"₹":{"ha":1111,"x_min":76,"x_max":1066,"o":"m 752 0 l 76 417 l 76 528 l 529 528 q 584 542 566 528 q 603 597 603 556 l 603 627 l 76 627 l 76 738 l 603 738 l 603 792 q 584 845 603 828 q 529 861 566 861 l 76 861 l 76 972 l 1066 972 l 1044 861 l 775 861 q 783 825 781 844 q 786 782 786 806 l 786 738 l 1066 738 l 1044 627 l 786 627 l 786 597 q 771 518 786 552 q 726 461 756 484 q 652 428 697 439 q 547 417 607 417 l 366 417 l 1066 0 l 752 0 z "},"₺":{"ha":1185,"x_min":83,"x_max":1114,"o":"m 262 0 l 262 441 l 83 376 l 83 487 l 262 552 l 262 615 l 83 549 l 83 660 l 262 726 l 262 972 l 445 972 l 445 792 l 712 890 l 712 778 l 445 681 l 445 619 l 712 716 l 712 605 l 445 508 l 445 169 l 612 169 q 749 186 691 169 q 846 242 808 203 q 902 342 884 281 q 921 493 921 404 l 1114 458 q 1077 251 1114 338 q 974 109 1040 165 q 815 26 907 53 q 612 0 722 0 l 262 0 z "},"₼":{"ha":1151,"x_min":87,"x_max":1065,"o":"m 87 0 l 87 565 q 150 726 87 688 q 324 764 214 764 l 484 764 l 484 944 l 667 979 l 667 764 l 826 764 q 926 756 881 764 q 1001 726 970 748 q 1048 666 1032 704 q 1065 565 1065 627 l 1065 0 l 881 0 l 881 588 q 881 588 881 588 q 881 588 881 588 l 667 588 l 667 69 l 484 35 l 484 588 l 270 588 q 270 588 270 588 q 270 588 270 588 l 270 0 l 87 0 z "},"₽":{"ha":1142,"x_min":48,"x_max":1086,"o":"m 153 0 l 153 176 l 48 176 l 48 346 l 153 346 l 153 415 l 48 415 l 48 585 l 153 585 l 153 972 l 847 972 q 1019 936 953 972 q 1086 782 1086 901 l 1086 596 q 1071 517 1086 551 q 1026 460 1056 483 q 952 426 997 438 q 847 415 907 415 l 336 415 l 336 346 l 924 346 l 924 176 l 336 176 l 336 0 l 153 0 m 336 585 l 829 585 q 884 599 866 585 q 903 654 903 613 l 903 733 q 884 786 903 770 q 829 803 866 803 l 336 803 l 336 585 z "},"₮":{"ha":983,"x_min":14,"x_max":969,"o":"m 400 0 l 400 283 l 178 203 l 178 315 l 400 394 l 400 457 l 178 377 l 178 488 l 400 568 l 400 803 l 14 803 l 14 972 l 969 972 l 969 803 l 583 803 l 583 634 l 806 714 l 806 603 l 583 523 l 583 460 l 806 540 l 806 429 l 583 349 l 583 0 l 400 0 z "},"₴":{"ha":1222,"x_min":76,"x_max":1146,"o":"m 1146 444 l 1146 333 l 332 333 q 332 333 332 333 q 332 333 332 333 l 332 160 q 332 160 332 160 q 332 160 332 160 l 914 160 q 914 160 914 160 q 914 160 914 160 l 914 240 l 1089 204 l 1089 189 q 1025 28 1089 66 q 851 -10 962 -10 l 396 -10 q 296 -2 340 -10 q 220 28 251 6 q 173 89 190 50 q 157 189 157 128 l 157 219 q 164 284 157 256 q 183 333 170 312 l 76 333 l 76 444 l 1146 444 m 76 535 l 76 647 l 893 647 q 893 647 893 647 q 893 647 893 647 l 893 813 q 893 813 893 813 q 893 813 893 813 l 346 813 q 346 813 346 813 q 346 813 346 813 l 346 736 l 171 771 l 171 792 q 188 889 171 851 q 237 947 206 926 q 313 975 269 967 q 410 982 357 982 l 831 982 q 927 975 883 982 q 1002 947 971 967 q 1051 889 1033 926 q 1068 792 1068 851 l 1068 770 q 1061 699 1068 729 q 1040 647 1053 669 l 1146 647 l 1146 535 l 76 535 z "},"₸":{"ha":1217,"x_min":76,"x_max":1140,"o":"m 1140 699 l 1140 529 l 700 529 l 700 0 l 517 0 l 517 529 l 76 529 l 76 699 l 1140 699 m 1140 972 l 1140 803 l 76 803 l 76 972 l 1140 972 z "},"₪":{"ha":1561,"x_min":139,"x_max":1422,"o":"m 506 0 l 506 691 l 689 691 l 689 176 l 1239 176 q 1239 176 1239 176 q 1239 176 1239 176 l 1239 972 l 1422 972 l 1422 199 q 1359 38 1422 76 q 1183 0 1295 0 l 506 0 m 139 0 l 139 972 l 817 972 q 917 964 872 972 q 992 934 961 956 q 1039 874 1023 913 q 1056 774 1056 835 l 1056 274 l 872 274 l 872 796 q 872 796 872 796 q 872 796 872 796 l 322 796 l 322 0 l 139 0 z "},"₾":{"ha":1232,"x_min":118,"x_max":1114,"o":"m 118 0 l 118 169 l 245 169 q 218 226 227 193 q 208 303 208 259 l 208 771 q 269 927 208 873 q 467 982 329 982 l 875 982 q 1059 938 1003 982 q 1114 792 1114 894 l 1114 531 l 931 498 l 931 743 q 914 796 931 780 q 861 813 898 813 l 461 813 q 409 795 426 813 q 392 743 392 778 l 392 253 q 413 190 392 211 q 475 169 433 169 l 1114 169 l 1114 0 l 118 0 m 476 498 l 476 1086 l 624 1086 l 624 498 l 476 498 m 698 498 l 698 1086 l 847 1086 l 847 498 l 698 498 z "},"฿":{"ha":1026,"x_min":139,"x_max":942,"o":"m 139 0 l 139 972 l 692 972 q 789 964 745 972 q 864 933 833 956 q 914 868 896 910 q 931 760 931 826 l 931 692 q 899 570 931 617 q 799 503 866 523 q 908 432 874 485 q 942 292 942 379 l 942 218 q 925 107 942 149 q 875 40 907 64 q 800 8 844 17 q 703 0 756 0 l 139 0 m 322 169 l 685 169 q 741 186 722 169 q 759 238 759 203 l 759 346 q 741 401 759 387 q 685 415 722 415 l 322 415 l 322 169 m 322 580 l 674 580 q 730 594 711 580 q 748 649 748 608 l 748 734 q 730 786 748 769 q 674 803 711 803 l 322 803 l 322 580 m 454 -114 l 454 1086 l 603 1086 l 603 -114 l 454 -114 z "},"₿":{"ha":1026,"x_min":139,"x_max":942,"o":"m 319 -114 l 319 169 l 468 169 l 468 -114 l 319 -114 m 542 -114 l 542 169 l 690 169 l 690 -114 l 542 -114 m 139 0 l 139 972 l 692 972 q 789 964 745 972 q 864 933 833 956 q 914 868 896 910 q 931 760 931 826 l 931 692 q 899 570 931 617 q 799 503 866 523 q 908 432 874 485 q 942 292 942 379 l 942 218 q 925 107 942 149 q 875 40 907 64 q 800 8 844 17 q 703 0 756 0 l 139 0 m 322 169 l 685 169 q 741 186 722 169 q 759 238 759 203 l 759 346 q 741 401 759 387 q 685 415 722 415 l 322 415 l 322 169 m 322 580 l 674 580 q 730 594 711 580 q 748 649 748 608 l 748 734 q 730 786 748 769 q 674 803 711 803 l 322 803 l 322 580 m 319 803 l 319 1086 l 468 1086 l 468 803 l 319 803 m 542 803 l 542 1086 l 690 1086 l 690 803 l 542 803 z "},"§":{"ha":990,"x_min":114,"x_max":886,"o":"m 310 -94 q 185 -67 230 -94 q 140 48 140 -40 l 140 88 l 293 120 l 293 48 q 293 48 293 48 q 293 48 293 48 l 681 48 q 681 48 681 48 q 681 48 681 48 l 681 195 q 681 195 681 195 q 681 195 681 195 l 283 195 q 159 223 203 195 q 114 338 114 250 l 114 544 q 118 589 114 569 q 131 622 122 608 q 151 647 139 637 q 178 664 163 657 q 177 677 177 670 q 176 692 176 684 l 176 836 q 223 947 176 921 q 346 972 270 972 l 667 972 q 791 947 744 972 q 838 836 838 921 l 838 799 l 685 768 l 685 831 q 685 831 685 831 q 685 831 685 831 l 329 831 q 329 831 329 831 q 329 831 329 831 l 329 690 q 329 690 329 690 q 329 690 329 690 l 715 690 q 839 657 792 690 q 886 538 886 624 l 886 360 q 883 317 886 337 q 872 281 879 297 q 855 253 865 265 q 831 232 844 241 q 833 217 833 224 q 834 201 834 209 l 834 48 q 789 -67 834 -40 q 663 -94 744 -94 l 310 -94 m 267 337 l 733 337 q 733 337 733 337 q 733 337 733 337 l 733 549 q 733 549 733 549 q 733 549 733 549 l 267 549 q 267 549 267 549 q 267 549 267 549 l 267 337 q 267 337 267 337 q 267 337 267 337 z "},"ℓ":{"ha":772,"x_min":118,"x_max":654,"o":"m 118 296 l 118 433 l 482 535 q 482 535 482 535 q 482 535 482 535 l 482 864 q 482 864 482 864 q 482 864 482 864 l 360 864 q 360 864 360 864 q 360 864 360 864 l 360 132 q 360 132 360 132 q 360 132 360 132 l 585 132 l 556 -10 l 394 -10 q 239 31 290 -10 q 188 171 188 72 l 188 853 q 234 966 188 927 q 375 1006 280 1006 l 465 1006 q 607 966 560 1006 q 654 850 654 926 l 654 576 q 641 509 654 538 q 602 459 628 481 q 540 422 577 438 q 455 392 503 406 l 118 296 z "},"π":{"ha":1065,"x_min":125,"x_max":949,"o":"m 232 0 l 232 553 l 125 553 l 125 694 l 949 694 l 949 553 l 842 553 l 842 142 q 842 142 842 142 q 842 142 842 142 l 949 142 l 920 0 l 858 0 q 718 42 765 0 q 670 176 670 83 l 670 539 l 404 539 l 404 0 l 232 0 z "},"¶":{"ha":810,"x_min":56,"x_max":671,"o":"m 671 0 l 615 0 l 615 894 l 543 894 l 543 0 l 488 0 l 488 367 l 294 367 q 190 378 235 367 q 115 411 145 389 q 70 468 85 434 q 56 547 56 502 l 56 782 q 123 936 56 901 q 294 972 190 972 l 671 972 l 671 0 z "},"†":{"ha":694,"x_min":14,"x_max":681,"o":"m 271 -149 l 271 476 l 14 476 l 14 611 l 271 611 l 271 903 l 424 903 l 424 611 l 681 611 l 681 476 l 424 476 l 424 -149 l 271 -149 z "},"‡":{"ha":694,"x_min":14,"x_max":681,"o":"m 271 -149 l 271 115 l 14 115 l 14 250 l 271 250 l 271 504 l 14 504 l 14 639 l 271 639 l 271 903 l 424 903 l 424 639 l 681 639 l 681 504 l 424 504 l 424 250 l 681 250 l 681 115 l 424 115 l 424 -149 l 271 -149 z "},"�":{"ha":1390,"x_min":165,"x_max":1225,"o":"m 616 159 q 623 114 616 121 q 667 107 629 107 l 708 107 q 751 114 745 107 q 758 159 758 121 l 758 199 q 751 242 758 236 q 708 249 745 249 l 667 249 q 623 242 629 249 q 616 199 616 236 l 616 159 m 635 324 l 740 324 l 740 370 q 750 397 740 386 q 783 413 761 407 l 827 422 q 910 459 886 435 q 935 529 935 483 l 935 647 q 901 736 935 710 q 786 763 867 763 l 611 763 q 497 735 531 763 q 463 647 463 708 l 463 590 l 568 569 l 568 658 l 830 658 l 830 575 q 819 529 830 544 q 783 509 808 515 l 726 496 q 658 463 681 485 q 635 405 635 440 l 635 324 m 694 -44 l 165 486 l 694 1016 l 1225 486 l 694 -44 z "},"@":{"ha":1314,"x_min":118,"x_max":1196,"o":"m 118 65 l 118 665 q 184 818 118 783 q 353 853 249 853 l 958 853 q 1054 846 1010 853 q 1129 818 1098 839 q 1178 760 1160 797 q 1196 665 1196 724 l 1196 261 q 1143 117 1196 155 q 1001 78 1090 78 l 968 78 q 837 111 894 78 q 779 189 779 144 q 729 128 767 144 q 645 111 692 111 l 503 111 q 403 137 433 111 q 372 222 372 163 l 372 504 q 403 585 372 560 q 503 610 434 610 l 658 610 q 737 590 707 610 q 779 543 767 570 l 779 606 l 934 606 l 934 247 q 948 206 934 218 q 988 194 962 194 l 1008 194 q 1048 206 1034 194 q 1062 247 1062 217 l 1062 665 q 1042 716 1062 697 q 958 736 1023 736 l 353 736 q 280 723 308 736 q 251 665 251 709 l 251 65 q 271 9 251 30 q 353 -14 290 -11 l 1069 -14 l 1069 -131 l 353 -131 q 181 -93 243 -131 q 118 65 118 -56 m 529 241 q 529 241 529 241 q 529 241 529 241 l 779 241 q 779 241 779 241 q 779 241 779 241 l 779 480 l 529 480 q 529 480 529 480 q 529 480 529 480 l 529 241 z "},"©":{"ha":1228,"x_min":118,"x_max":1099,"o":"m 351 384 l 351 595 q 392 704 351 672 q 528 737 433 737 l 694 737 q 831 704 790 737 q 872 595 872 672 l 872 567 l 713 535 l 713 595 q 713 595 713 595 q 713 595 713 595 l 509 595 q 509 595 509 595 q 509 595 509 595 l 509 377 q 509 377 509 377 q 509 377 509 377 l 716 377 q 716 377 716 377 q 716 377 716 377 l 716 441 l 874 406 l 874 384 q 834 269 874 303 q 697 235 794 235 l 528 235 q 391 269 431 235 q 351 384 351 303 m 118 767 q 184 921 118 885 q 356 957 251 957 l 860 957 q 1032 921 965 957 q 1099 767 1099 885 l 1099 214 q 1035 53 1099 90 q 860 15 972 15 l 356 15 q 181 54 244 15 q 118 214 118 92 l 118 767 m 253 767 l 253 214 q 272 156 253 178 q 356 133 291 133 l 860 133 q 944 156 924 133 q 964 214 964 178 l 964 767 q 944 819 964 799 q 860 839 925 839 l 356 839 q 281 825 310 839 q 253 767 253 812 z "},"®":{"ha":580,"x_min":53,"x_max":527,"o":"m 53 731 l 53 981 q 79 1055 53 1029 q 153 1080 105 1080 l 426 1080 q 501 1055 474 1080 q 527 981 527 1029 l 527 731 q 501 658 527 683 q 426 632 474 632 l 153 632 q 79 658 105 632 q 53 731 53 683 m 99 981 l 99 731 q 113 689 99 703 q 153 674 126 674 l 426 674 q 467 689 454 674 q 481 731 481 703 l 481 981 q 467 1023 481 1009 q 426 1038 454 1038 l 153 1038 q 113 1023 126 1038 q 99 981 99 1009 m 165 972 l 360 972 q 406 962 389 972 q 424 921 424 952 l 424 855 q 408 821 424 827 q 365 815 393 815 l 365 815 l 444 736 l 352 736 l 275 815 l 238 815 l 238 736 l 165 736 l 165 972 m 238 869 l 335 869 q 347 872 343 869 q 350 883 350 875 l 350 900 q 347 910 350 907 q 335 913 343 913 l 238 913 l 238 869 z "},"™":{"ha":772,"x_min":14,"x_max":751,"o":"m 382 708 l 382 1000 l 456 1000 l 568 846 l 676 1000 l 751 1000 l 751 708 l 668 708 l 668 881 l 562 729 l 454 877 l 454 708 l 382 708 m 131 708 l 131 927 l 14 927 l 14 1000 l 332 1000 l 332 927 l 215 927 l 215 708 l 131 708 z "},"ª":{"ha":668,"x_min":74,"x_max":582,"o":"m 190 539 q 105 558 136 539 q 74 637 74 577 l 74 724 q 113 800 74 783 q 204 817 153 817 l 443 817 l 443 901 q 443 901 443 901 q 443 901 443 901 l 221 901 q 221 901 221 901 q 221 901 221 901 l 221 865 l 82 890 l 82 910 q 114 988 82 969 q 198 1006 146 1006 l 465 1006 q 549 988 517 1006 q 582 909 582 969 l 582 544 l 443 544 l 443 612 q 398 555 431 570 q 322 539 364 539 l 190 539 m 213 638 q 213 638 213 638 q 213 638 213 638 l 443 638 l 443 721 l 213 721 q 213 721 213 721 q 213 721 213 721 l 213 638 z "},"º":{"ha":684,"x_min":79,"x_max":605,"o":"m 79 642 l 79 908 q 107 983 79 960 q 201 1006 135 1006 l 483 1006 q 576 983 548 1006 q 605 908 605 960 l 605 642 q 577 563 605 586 q 483 539 549 539 l 201 539 q 107 563 135 539 q 79 642 79 586 m 218 656 q 218 656 218 656 q 218 656 218 656 l 466 656 q 466 656 466 656 q 466 656 466 656 l 466 888 q 466 888 466 888 q 466 888 466 888 l 218 888 q 218 888 218 888 q 218 888 218 888 l 218 656 z "},"°":{"ha":444,"x_min":53,"x_max":391,"o":"m 53 871 l 53 957 q 81 1031 53 1008 q 174 1054 109 1054 l 269 1054 q 363 1031 334 1054 q 391 957 391 1008 l 391 871 q 363 792 391 815 q 269 768 335 768 l 174 768 q 81 792 109 768 q 53 871 53 815 m 171 865 q 171 865 171 865 q 171 865 171 865 l 273 865 q 273 865 273 865 q 273 865 273 865 l 273 958 q 273 958 273 958 q 273 958 273 958 l 171 958 q 171 958 171 958 q 171 958 171 958 l 171 865 z "},"<":{"ha":999,"x_min":90,"x_max":908,"o":"m 908 0 l 90 337 l 90 474 l 908 811 l 908 659 l 296 407 l 908 154 l 908 0 z "},">":{"ha":999,"x_min":90,"x_max":908,"o":"m 90 811 l 908 474 l 908 337 l 90 0 l 90 152 l 703 404 l 90 657 l 90 811 z "},"≥":{"ha":999,"x_min":90,"x_max":908,"o":"m 90 0 l 90 144 l 908 144 l 908 0 l 90 0 m 90 257 l 90 410 l 737 638 l 737 592 l 90 819 l 90 972 l 908 684 l 908 547 l 90 257 z "},"≤":{"ha":999,"x_min":90,"x_max":908,"o":"m 908 257 l 90 545 l 90 683 l 908 972 l 908 819 l 327 614 l 908 410 l 908 257 m 90 0 l 90 144 l 908 144 l 908 0 l 90 0 z "},"=":{"ha":999,"x_min":90,"x_max":908,"o":"m 90 481 l 90 626 l 908 626 l 908 481 l 90 481 m 90 190 l 90 334 l 908 334 l 908 190 l 90 190 z "},"≈":{"ha":999,"x_min":90,"x_max":908,"o":"m 819 658 l 908 551 q 808 476 864 508 q 671 444 753 444 q 570 460 615 444 q 484 493 524 475 q 405 526 443 511 q 326 542 367 542 q 234 516 270 542 q 180 473 198 491 l 90 580 q 190 655 135 623 q 328 686 246 686 q 429 671 383 686 q 515 638 474 656 q 594 604 556 619 q 672 589 632 589 q 765 614 728 589 q 819 658 801 640 m 819 324 l 908 217 q 808 143 864 174 q 671 111 753 111 q 570 126 615 111 q 484 160 524 142 q 405 193 443 178 q 326 208 367 208 q 234 183 270 208 q 180 140 198 158 l 90 247 q 190 321 135 290 q 328 353 246 353 q 429 338 383 353 q 515 304 474 322 q 594 271 556 286 q 672 256 632 256 q 765 281 728 256 q 819 324 801 306 z "},"≠":{"ha":999,"x_min":90,"x_max":908,"o":"m 90 334 l 395 334 l 449 481 l 90 481 l 90 626 l 502 626 l 569 811 l 725 811 l 658 626 l 908 626 l 908 481 l 605 481 l 551 334 l 908 334 l 908 190 l 499 190 l 429 0 l 274 0 l 343 190 l 90 190 l 90 334 z "},"µ":{"ha":967,"x_min":125,"x_max":842,"o":"m 125 -297 l 125 694 l 297 694 l 297 156 q 297 156 297 156 q 297 156 297 156 l 669 156 q 669 156 669 156 q 669 156 669 156 l 669 694 l 842 694 l 842 0 l 669 0 l 669 104 q 601 20 651 40 q 488 0 551 0 l 438 0 q 327 19 368 0 q 271 76 285 38 l 271 -266 l 125 -297 z "},"¬":{"ha":999,"x_min":90,"x_max":908,"o":"m 908 190 l 753 190 l 753 481 l 90 481 l 90 626 l 908 626 l 908 190 z "},"+":{"ha":999,"x_min":90,"x_max":908,"o":"m 908 480 l 908 335 l 577 335 l 577 0 l 422 0 l 422 335 l 90 335 l 90 480 l 422 480 l 422 811 l 577 811 l 577 480 l 908 480 z "},"−":{"ha":999,"x_min":90,"x_max":908,"o":"m 90 335 l 90 480 l 908 480 l 908 335 l 90 335 z "},"±":{"ha":999,"x_min":90,"x_max":908,"o":"m 422 257 l 422 542 l 90 542 l 90 687 l 422 687 l 422 972 l 577 972 l 577 687 l 908 687 l 908 542 l 577 542 l 577 257 l 422 257 m 90 0 l 90 144 l 908 144 l 908 0 l 90 0 z "},"×":{"ha":999,"x_min":147,"x_max":851,"o":"m 250 57 l 148 159 l 397 408 l 147 658 l 249 760 l 499 510 l 749 760 l 851 658 l 601 408 l 851 159 l 749 57 l 499 306 l 250 57 z "},"÷":{"ha":999,"x_min":90,"x_max":908,"o":"m 475 40 q 419 51 429 40 q 410 113 410 62 l 410 162 q 420 223 410 212 q 475 234 430 234 l 524 234 q 580 223 569 234 q 590 162 590 212 l 590 113 q 580 51 590 62 q 524 40 569 40 l 475 40 m 90 335 l 90 480 l 908 480 l 908 335 l 90 335 m 475 580 q 419 591 429 580 q 410 653 410 602 l 410 702 q 420 763 410 752 q 475 774 430 774 l 524 774 q 580 763 569 774 q 590 702 590 752 l 590 653 q 580 591 590 602 q 524 580 569 580 l 475 580 z "},"∕":{"ha":112,"x_min":-344,"x_max":456,"o":"m -344 0 l 301 972 l 456 972 l -189 0 l -344 0 z "},"⟨":{"ha":538,"x_min":50,"x_max":490,"o":"m 340 0 l 50 486 l 340 972 l 490 972 l 200 486 l 490 0 l 340 0 z "},"⟩":{"ha":538,"x_min":48,"x_max":488,"o":"m 198 972 l 488 486 l 198 0 l 48 0 l 338 486 l 48 972 l 198 972 z "},"Æ":{"ha":1741,"x_min":0,"x_max":1665,"o":"m 0 0 l 586 972 l 1651 972 l 1651 803 l 974 803 l 974 583 l 1383 583 l 1383 414 l 974 414 l 974 169 l 1665 169 l 1665 0 l 791 0 l 791 226 l 350 226 l 215 0 l 0 0 m 449 393 l 791 393 l 791 803 l 692 803 l 449 393 z "},"Œ":{"ha":1893,"x_min":118,"x_max":1817,"o":"m 356 0 q 256 7 300 0 q 181 33 212 13 q 134 91 151 53 q 118 189 118 128 l 118 792 q 135 887 118 851 q 184 941 153 922 q 259 966 215 960 q 356 972 303 972 l 1803 972 l 1803 813 l 1126 813 l 1126 583 l 1535 583 l 1535 414 l 1126 414 l 1126 160 l 1817 160 l 1817 0 l 356 0 m 943 160 l 943 813 l 301 813 q 301 813 301 813 q 301 813 301 813 l 301 160 q 301 160 301 160 q 301 160 301 160 l 943 160 z "},"ẞ":{"ha":1189,"x_min":128,"x_max":1133,"o":"m 128 0 l 128 792 q 195 946 128 910 q 366 982 261 982 l 874 982 q 1005 966 949 982 q 1089 901 1060 950 l 864 551 l 894 551 q 991 544 947 551 q 1066 516 1035 537 q 1116 458 1098 495 q 1133 361 1133 421 l 1133 189 q 1070 28 1133 65 q 894 -10 1006 -10 l 487 -10 l 487 160 l 950 160 q 950 160 950 160 q 950 160 950 160 l 950 382 q 950 382 950 382 q 950 382 950 382 l 626 382 l 626 489 l 835 813 q 835 813 835 813 q 835 813 835 813 l 312 813 q 312 813 312 813 q 312 813 312 813 l 312 0 l 128 0 z "},"Ð":{"ha":1229,"x_min":69,"x_max":1160,"o":"m 139 0 l 139 408 l 69 408 l 69 564 l 139 564 l 139 972 l 697 972 q 879 942 794 972 q 1026 852 963 913 q 1124 700 1088 792 q 1160 486 1160 609 q 1123 263 1160 356 q 1024 113 1087 171 q 877 27 962 54 q 697 0 793 0 l 139 0 m 322 169 l 686 169 q 807 186 755 169 q 895 242 860 203 q 949 342 931 281 q 967 493 967 404 q 948 638 967 578 q 894 733 930 697 q 806 786 858 770 q 686 803 754 803 l 322 803 l 322 564 l 564 564 l 564 408 l 322 408 l 322 169 z "},"Þ":{"ha":1124,"x_min":125,"x_max":1018,"o":"m 125 0 l 125 972 l 308 972 l 308 803 l 779 803 q 951 768 885 803 q 1018 613 1018 732 l 1018 378 q 959 243 1018 288 q 779 198 899 198 l 308 198 l 308 0 l 125 0 m 308 367 l 761 367 q 816 381 798 367 q 835 437 835 395 l 835 565 q 816 618 835 601 q 761 634 798 634 l 308 634 l 308 367 z "},"Ə":{"ha":1200,"x_min":111,"x_max":1082,"o":"m 350 -10 q 166 36 221 -10 q 111 189 111 82 l 111 560 l 899 560 l 899 813 q 899 813 899 813 q 899 813 899 813 l 299 813 q 299 813 299 813 q 299 813 299 813 l 299 681 l 115 719 l 115 792 q 171 938 115 894 q 354 982 226 982 l 844 982 q 1027 938 972 982 q 1082 792 1082 894 l 1082 189 q 1028 36 1082 81 q 844 -10 974 -10 l 350 -10 m 294 390 l 294 160 q 294 160 294 160 q 294 160 294 160 l 899 160 q 899 160 899 160 q 899 160 899 160 l 899 390 l 294 390 z "},"Ŋ":{"ha":1271,"x_min":139,"x_max":1132,"o":"m 139 0 l 139 972 l 281 972 l 963 289 l 963 972 l 1132 972 l 1132 -121 q 1120 -223 1132 -187 q 1082 -275 1108 -258 q 1014 -294 1056 -292 q 914 -297 973 -297 l 674 -297 l 639 -142 l 969 -142 q 969 -142 969 -142 q 969 -142 969 -142 l 969 21 l 308 679 l 308 0 l 139 0 z "},"æ":{"ha":1460,"x_min":99,"x_max":1354,"o":"m 269 -7 q 198 -1 229 -7 q 144 20 166 5 q 110 64 122 36 q 99 135 99 91 l 99 288 q 111 357 99 331 q 146 399 124 384 q 200 418 169 413 q 269 424 231 424 l 640 424 l 640 560 q 640 560 640 560 q 640 560 640 560 l 281 560 q 281 560 281 560 q 281 560 281 560 l 281 497 l 108 528 l 108 565 q 121 634 108 608 q 156 675 133 660 q 210 696 178 690 q 279 701 241 701 l 610 701 q 705 687 664 701 q 767 640 745 672 q 835 687 790 673 q 938 701 880 701 l 1185 701 q 1253 696 1222 701 q 1307 675 1285 690 q 1342 634 1329 660 q 1354 565 1354 608 l 1354 278 l 813 278 l 813 135 q 813 135 813 135 q 813 135 813 135 l 1176 135 q 1176 135 1176 135 q 1176 135 1176 135 l 1176 207 l 1349 175 l 1349 135 q 1337 64 1349 91 q 1304 20 1326 36 q 1250 -1 1282 5 q 1179 -7 1219 -7 l 844 -7 q 748 9 790 -7 q 683 58 706 24 q 621 9 662 24 q 526 -7 581 -7 l 269 -7 m 271 135 l 640 135 q 640 135 640 135 q 640 135 640 135 l 640 278 l 271 278 q 271 278 271 278 q 271 278 271 278 l 271 135 q 271 135 271 135 q 271 135 271 135 m 813 424 l 1182 424 l 1182 560 q 1182 560 1182 560 q 1182 560 1182 560 l 813 560 q 813 560 813 560 q 813 560 813 560 l 813 424 z "},"œ":{"ha":1467,"x_min":106,"x_max":1361,"o":"m 276 -7 q 205 -1 236 -7 q 151 20 173 5 q 117 64 129 36 q 106 135 106 91 l 106 565 q 118 634 106 608 q 153 675 131 660 q 207 696 176 690 q 276 701 238 701 l 575 701 q 670 688 631 701 q 732 642 710 674 q 798 688 754 675 q 903 701 842 701 l 1192 701 q 1260 696 1229 701 q 1314 675 1292 690 q 1349 634 1336 660 q 1361 565 1361 608 l 1361 278 l 819 278 l 819 135 q 819 135 819 135 q 819 135 819 135 l 1183 135 q 1183 135 1183 135 q 1183 135 1183 135 l 1183 207 l 1356 175 l 1356 135 q 1344 64 1356 91 q 1311 20 1333 36 q 1257 -1 1289 5 q 1186 -7 1226 -7 l 893 -7 q 795 8 836 -7 q 731 55 753 22 q 670 8 710 22 q 575 -7 631 -7 l 276 -7 m 1189 424 l 1189 560 q 1189 560 1189 560 q 1189 560 1189 560 l 819 560 q 819 560 819 560 q 819 560 819 560 l 819 424 l 1189 424 m 278 135 q 278 135 278 135 q 278 135 278 135 l 647 135 q 647 135 647 135 q 647 135 647 135 l 647 560 q 647 560 647 560 q 647 560 647 560 l 278 560 q 278 560 278 560 q 278 560 278 560 l 278 135 z "},"ß":{"ha":943,"x_min":115,"x_max":844,"o":"m 115 0 l 115 864 q 157 973 115 940 q 293 1006 198 1006 l 642 1006 q 778 973 737 1006 q 819 864 819 940 l 819 783 q 807 706 819 736 q 765 658 794 676 q 824 618 803 647 q 844 533 844 590 l 844 135 q 799 20 844 47 q 674 -7 754 -7 l 397 -7 l 397 149 l 672 149 q 672 149 672 149 q 672 149 672 149 l 672 539 q 672 539 672 539 q 672 539 672 539 l 445 539 l 445 694 l 647 694 q 647 694 647 694 q 647 694 647 694 l 647 864 q 647 864 647 864 q 647 864 647 864 l 288 864 q 288 864 288 864 q 288 864 288 864 l 288 0 l 115 0 z "},"ð":{"ha":969,"x_min":106,"x_max":864,"o":"m 283 -7 q 146 27 187 -7 q 106 142 106 61 l 106 560 q 147 668 106 635 q 283 701 188 701 l 618 701 q 578 760 600 733 q 529 811 556 787 l 301 749 l 277 837 l 436 880 q 343 926 392 906 q 238 961 294 946 l 405 1013 q 517 979 464 999 q 617 929 570 958 l 838 989 l 862 901 l 706 859 q 822 675 780 786 q 864 403 864 565 l 864 142 q 824 27 864 61 q 686 -7 783 -7 l 283 -7 m 678 546 l 278 546 q 278 546 278 546 q 278 546 278 546 l 278 149 q 278 149 278 149 q 278 149 278 149 l 692 149 q 692 149 692 149 q 692 149 692 149 l 692 403 q 688 477 692 442 q 678 546 685 513 z "},"þ":{"ha":982,"x_min":125,"x_max":876,"o":"m 125 -297 l 125 1006 l 297 1006 l 297 625 q 353 683 312 664 q 464 701 394 701 l 699 701 q 836 667 795 701 q 876 553 876 633 l 876 135 q 835 26 876 59 q 699 -7 794 -7 l 464 -7 q 353 12 394 -7 q 297 69 312 31 l 297 -297 l 125 -297 m 297 149 l 704 149 q 704 149 704 149 q 704 149 704 149 l 704 546 q 704 546 704 546 q 704 546 704 546 l 297 546 l 297 149 z "},"ə":{"ha":956,"x_min":106,"x_max":850,"o":"m 850 521 l 850 146 q 804 32 850 72 q 663 -7 758 -7 l 294 -7 q 152 33 199 -7 q 106 149 106 73 l 106 415 l 678 415 l 678 560 q 678 560 678 560 q 678 560 678 560 l 278 560 q 278 560 278 560 q 278 560 278 560 l 278 483 l 106 514 l 106 521 q 156 660 106 618 q 326 701 207 701 l 643 701 q 799 660 748 701 q 850 521 850 619 m 678 274 l 278 274 l 278 135 q 278 135 278 135 q 278 135 278 135 l 678 135 q 678 135 678 135 q 678 135 678 135 l 678 274 z "},"ŋ":{"ha":967,"x_min":125,"x_max":842,"o":"m 125 0 l 125 694 l 297 694 l 297 629 q 365 683 318 665 q 493 701 411 701 l 621 701 q 790 661 739 701 q 842 528 842 621 l 842 -121 q 830 -223 842 -187 q 791 -275 817 -258 q 724 -294 765 -292 q 624 -297 683 -297 l 483 -297 l 451 -142 l 669 -142 q 669 -142 669 -142 q 669 -142 669 -142 l 669 546 q 669 546 669 546 q 669 546 669 546 l 297 546 l 297 0 l 125 0 z "},"À":{"ha":1149,"x_min":0,"x_max":1149,"o":"m 0 0 l 499 972 l 643 972 l 1149 0 l 932 0 l 816 226 l 317 226 l 201 0 l 0 0 m 403 393 l 731 393 l 567 712 l 403 393 m 542 1031 l 311 1250 l 519 1250 l 719 1031 l 542 1031 z "},"Á":{"ha":1149,"x_min":0,"x_max":1149,"o":"m 0 0 l 499 972 l 643 972 l 1149 0 l 932 0 l 816 226 l 317 226 l 201 0 l 0 0 m 403 393 l 731 393 l 567 712 l 403 393 m 431 1031 l 631 1250 l 839 1250 l 608 1031 l 431 1031 z "},"Â":{"ha":1149,"x_min":0,"x_max":1149,"o":"m 0 0 l 499 972 l 643 972 l 1149 0 l 932 0 l 816 226 l 317 226 l 201 0 l 0 0 m 403 393 l 731 393 l 567 712 l 403 393 m 290 1031 l 501 1250 l 651 1250 l 861 1031 l 685 1031 l 574 1165 l 462 1031 l 290 1031 z "},"Ã":{"ha":1149,"x_min":0,"x_max":1149,"o":"m 0 0 l 499 972 l 643 972 l 1149 0 l 932 0 l 816 226 l 317 226 l 201 0 l 0 0 m 403 393 l 731 393 l 567 712 l 403 393 m 292 1076 q 320 1159 301 1126 q 366 1210 340 1191 q 419 1236 391 1228 q 474 1243 447 1243 q 534 1234 506 1243 q 589 1216 563 1226 q 636 1197 614 1206 q 677 1188 658 1188 q 716 1197 697 1188 q 742 1243 734 1206 l 858 1223 q 830 1140 849 1172 q 784 1089 810 1108 q 731 1063 759 1070 q 676 1056 703 1056 q 616 1064 644 1056 q 561 1083 587 1073 q 514 1102 536 1093 q 473 1110 492 1110 q 434 1102 453 1110 q 408 1056 416 1093 l 292 1076 z "},"Ä":{"ha":1149,"x_min":0,"x_max":1149,"o":"m 0 0 l 499 972 l 643 972 l 1149 0 l 932 0 l 816 226 l 317 226 l 201 0 l 0 0 m 403 393 l 731 393 l 567 712 l 403 393 m 408 1056 q 354 1064 363 1056 q 346 1118 346 1072 l 346 1168 q 354 1221 346 1213 q 408 1229 363 1229 l 457 1229 q 511 1221 503 1229 q 519 1168 519 1213 l 519 1118 q 511 1064 519 1072 q 457 1056 503 1056 l 408 1056 m 693 1056 q 639 1064 647 1056 q 631 1118 631 1072 l 631 1168 q 639 1221 631 1213 q 693 1229 647 1229 l 742 1229 q 796 1221 788 1229 q 804 1168 804 1213 l 804 1118 q 796 1064 804 1072 q 742 1056 788 1056 l 693 1056 z "},"Å":{"ha":1149,"x_min":0,"x_max":1149,"o":"m 0 0 l 499 972 l 643 972 l 1149 0 l 932 0 l 816 226 l 317 226 l 201 0 l 0 0 m 403 393 l 731 393 l 567 712 l 403 393 m 575 1022 q 499 1028 528 1022 q 455 1048 470 1033 q 433 1090 439 1063 q 428 1161 428 1117 q 433 1232 428 1205 q 455 1274 439 1258 q 499 1294 470 1289 q 575 1299 528 1299 q 651 1294 622 1299 q 695 1274 680 1289 q 717 1232 711 1258 q 722 1161 722 1205 q 717 1090 722 1117 q 695 1048 711 1063 q 651 1028 680 1033 q 575 1022 622 1022 m 575 1108 q 617 1120 608 1108 q 625 1161 625 1132 q 617 1201 625 1190 q 575 1213 608 1213 q 533 1201 541 1213 q 525 1161 525 1190 q 533 1120 525 1132 q 575 1108 541 1108 z "},"Ç":{"ha":1117,"x_min":118,"x_max":1029,"o":"m 118 792 q 173 938 118 894 q 356 982 228 982 l 785 982 q 968 938 913 982 q 1024 792 1024 894 l 1024 656 l 840 622 l 840 813 q 840 813 840 813 q 840 813 840 813 l 301 813 q 301 813 301 813 q 301 813 301 813 l 301 160 q 301 160 301 160 q 301 160 301 160 l 846 160 q 846 160 846 160 q 846 160 846 160 l 846 368 l 1029 332 l 1029 189 q 975 36 1029 81 q 790 -10 920 -10 l 356 -10 q 172 36 226 -10 q 118 189 118 81 l 118 792 m 560 -314 q 497 -306 526 -314 q 444 -279 468 -297 l 474 -226 q 499 -236 483 -232 q 529 -240 515 -240 q 567 -228 554 -240 q 581 -197 581 -217 q 567 -166 581 -176 q 528 -156 553 -156 q 498 -158 514 -156 q 466 -166 482 -161 l 543 1 l 603 1 l 563 -85 q 667 -113 632 -85 q 701 -195 701 -141 q 665 -283 701 -251 q 560 -314 628 -314 z "},"È":{"ha":1089,"x_min":139,"x_max":1013,"o":"m 139 0 l 139 972 l 999 972 l 999 803 l 322 803 l 322 583 l 731 583 l 731 414 l 322 414 l 322 169 l 1013 169 l 1013 0 l 139 0 m 543 1031 l 312 1250 l 520 1250 l 719 1031 l 543 1031 z "},"É":{"ha":1089,"x_min":139,"x_max":1013,"o":"m 139 0 l 139 972 l 999 972 l 999 803 l 322 803 l 322 583 l 731 583 l 731 414 l 322 414 l 322 169 l 1013 169 l 1013 0 l 139 0 m 432 1031 l 631 1250 l 840 1250 l 608 1031 l 432 1031 z "},"Ê":{"ha":1089,"x_min":139,"x_max":1013,"o":"m 139 0 l 139 972 l 999 972 l 999 803 l 322 803 l 322 583 l 731 583 l 731 414 l 322 414 l 322 169 l 1013 169 l 1013 0 l 139 0 m 290 1031 l 501 1250 l 652 1250 l 862 1031 l 685 1031 l 574 1165 l 463 1031 l 290 1031 z "},"Ë":{"ha":1089,"x_min":139,"x_max":1013,"o":"m 139 0 l 139 972 l 999 972 l 999 803 l 322 803 l 322 583 l 731 583 l 731 414 l 322 414 l 322 169 l 1013 169 l 1013 0 l 139 0 m 409 1056 q 355 1064 363 1056 q 347 1118 347 1072 l 347 1168 q 355 1221 347 1213 q 409 1229 363 1229 l 458 1229 q 512 1221 503 1229 q 520 1168 520 1213 l 520 1118 q 512 1064 520 1072 q 458 1056 503 1056 l 409 1056 m 694 1056 q 640 1064 648 1056 q 631 1118 631 1072 l 631 1168 q 640 1221 631 1213 q 694 1229 648 1229 l 742 1229 q 797 1221 788 1229 q 805 1168 805 1213 l 805 1118 q 797 1064 805 1072 q 742 1056 788 1056 l 694 1056 z "},"Ì":{"ha":461,"x_min":-33,"x_max":374,"o":"m 139 0 l 139 972 l 322 972 l 322 0 l 139 0 m 198 1031 l -33 1250 l 175 1250 l 374 1031 l 198 1031 z "},"Í":{"ha":461,"x_min":87,"x_max":494,"o":"m 139 0 l 139 972 l 322 972 l 322 0 l 139 0 m 87 1031 l 286 1250 l 494 1250 l 263 1031 l 87 1031 z "},"Î":{"ha":461,"x_min":-55,"x_max":517,"o":"m 139 0 l 139 972 l 322 972 l 322 0 l 139 0 m -55 1031 l 156 1250 l 307 1250 l 517 1031 l 340 1031 l 229 1165 l 117 1031 l -55 1031 z "},"Ï":{"ha":461,"x_min":1,"x_max":460,"o":"m 139 0 l 139 972 l 322 972 l 322 0 l 139 0 m 64 1056 q 10 1064 18 1056 q 1 1118 1 1072 l 1 1168 q 10 1221 1 1213 q 64 1229 18 1229 l 113 1229 q 167 1221 158 1229 q 175 1168 175 1213 l 175 1118 q 167 1064 175 1072 q 113 1056 158 1056 l 64 1056 m 349 1056 q 294 1064 303 1056 q 286 1118 286 1072 l 286 1168 q 294 1221 286 1213 q 349 1229 303 1229 l 397 1229 q 451 1221 443 1229 q 460 1168 460 1213 l 460 1118 q 451 1064 460 1072 q 397 1056 443 1056 l 349 1056 z "},"Ñ":{"ha":1271,"x_min":139,"x_max":1132,"o":"m 139 0 l 139 972 l 281 972 l 963 289 l 963 972 l 1132 972 l 1132 0 l 990 0 l 308 679 l 308 0 l 139 0 m 352 1076 q 381 1159 361 1126 q 426 1210 401 1191 q 480 1236 451 1228 q 534 1243 508 1243 q 595 1234 566 1243 q 649 1216 624 1226 q 697 1197 674 1206 q 738 1188 719 1188 q 776 1197 758 1188 q 802 1243 794 1206 l 919 1223 q 890 1140 910 1172 q 845 1089 870 1108 q 791 1063 819 1070 q 737 1056 763 1056 q 676 1064 705 1056 q 622 1083 647 1073 q 574 1102 597 1093 q 533 1110 552 1110 q 495 1102 513 1110 q 469 1056 476 1093 l 352 1076 z "},"Ò":{"ha":1244,"x_min":118,"x_max":1126,"o":"m 118 792 q 184 946 118 910 q 356 982 251 982 l 888 982 q 1060 946 993 982 q 1126 792 1126 910 l 1126 189 q 1063 28 1126 65 q 888 -10 999 -10 l 356 -10 q 181 28 244 -10 q 118 189 118 66 l 118 792 m 301 813 l 301 160 q 301 160 301 160 q 301 160 301 160 l 943 160 q 943 160 943 160 q 943 160 943 160 l 943 813 q 943 813 943 813 q 943 813 943 813 l 301 813 q 301 813 301 813 q 301 813 301 813 m 589 1041 l 358 1260 l 566 1260 l 765 1041 l 589 1041 z "},"Ó":{"ha":1244,"x_min":118,"x_max":1126,"o":"m 118 792 q 184 946 118 910 q 356 982 251 982 l 888 982 q 1060 946 993 982 q 1126 792 1126 910 l 1126 189 q 1063 28 1126 65 q 888 -10 999 -10 l 356 -10 q 181 28 244 -10 q 118 189 118 66 l 118 792 m 301 813 l 301 160 q 301 160 301 160 q 301 160 301 160 l 943 160 q 943 160 943 160 q 943 160 943 160 l 943 813 q 943 813 943 813 q 943 813 943 813 l 301 813 q 301 813 301 813 q 301 813 301 813 m 478 1041 l 677 1260 l 885 1260 l 654 1041 l 478 1041 z "},"Ô":{"ha":1244,"x_min":118,"x_max":1126,"o":"m 118 792 q 184 946 118 910 q 356 982 251 982 l 888 982 q 1060 946 993 982 q 1126 792 1126 910 l 1126 189 q 1063 28 1126 65 q 888 -10 999 -10 l 356 -10 q 181 28 244 -10 q 118 189 118 66 l 118 792 m 301 813 l 301 160 q 301 160 301 160 q 301 160 301 160 l 943 160 q 943 160 943 160 q 943 160 943 160 l 943 813 q 943 813 943 813 q 943 813 943 813 l 301 813 q 301 813 301 813 q 301 813 301 813 m 336 1041 l 547 1260 l 698 1260 l 908 1041 l 731 1041 l 620 1174 l 508 1041 l 336 1041 z "},"Õ":{"ha":1244,"x_min":118,"x_max":1126,"o":"m 118 792 q 184 946 118 910 q 356 982 251 982 l 888 982 q 1060 946 993 982 q 1126 792 1126 910 l 1126 189 q 1063 28 1126 65 q 888 -10 999 -10 l 356 -10 q 181 28 244 -10 q 118 189 118 66 l 118 792 m 301 813 l 301 160 q 301 160 301 160 q 301 160 301 160 l 943 160 q 943 160 943 160 q 943 160 943 160 l 943 813 q 943 813 943 813 q 943 813 943 813 l 301 813 q 301 813 301 813 q 301 813 301 813 m 338 1086 q 367 1168 347 1136 q 412 1219 387 1201 q 466 1245 438 1238 q 520 1253 494 1253 q 581 1244 552 1253 q 635 1225 610 1235 q 683 1207 660 1215 q 724 1198 705 1198 q 762 1207 744 1198 q 788 1253 781 1216 l 905 1233 q 876 1150 896 1182 q 831 1099 856 1117 q 777 1073 806 1080 q 723 1065 749 1065 q 662 1074 691 1065 q 608 1093 633 1083 q 560 1111 583 1103 q 519 1120 538 1120 q 481 1111 499 1120 q 455 1066 463 1103 l 338 1086 z "},"Ö":{"ha":1244,"x_min":118,"x_max":1126,"o":"m 118 792 q 184 946 118 910 q 356 982 251 982 l 888 982 q 1060 946 993 982 q 1126 792 1126 910 l 1126 189 q 1063 28 1126 65 q 888 -10 999 -10 l 356 -10 q 181 28 244 -10 q 118 189 118 66 l 118 792 m 301 813 l 301 160 q 301 160 301 160 q 301 160 301 160 l 943 160 q 943 160 943 160 q 943 160 943 160 l 943 813 q 943 813 943 813 q 943 813 943 813 l 301 813 q 301 813 301 813 q 301 813 301 813 m 455 1065 q 401 1074 409 1065 q 392 1128 392 1082 l 392 1178 q 401 1231 392 1223 q 455 1239 409 1239 l 503 1239 q 558 1231 549 1239 q 566 1178 566 1223 l 566 1128 q 558 1074 566 1082 q 503 1065 549 1065 l 455 1065 m 740 1065 q 685 1074 694 1065 q 677 1128 677 1082 l 677 1178 q 685 1231 677 1223 q 740 1239 694 1239 l 788 1239 q 842 1231 834 1239 q 851 1178 851 1223 l 851 1128 q 842 1074 851 1082 q 788 1065 834 1065 l 740 1065 z "},"Ø":{"ha":1385,"x_min":118,"x_max":1267,"o":"m 188 792 q 255 946 188 910 q 426 982 321 982 l 958 982 q 1130 946 1063 982 q 1197 792 1197 910 l 1197 189 q 1133 28 1197 65 q 958 -10 1069 -10 l 426 -10 q 251 28 314 -10 q 188 189 188 66 l 188 792 m 372 813 l 372 160 q 372 160 372 160 q 372 160 372 160 l 1013 160 q 1013 160 1013 160 q 1013 160 1013 160 l 1013 813 q 1013 813 1013 813 q 1013 813 1013 813 l 372 813 q 372 813 372 813 q 372 813 372 813 m 201 -42 l 118 51 l 1183 1014 l 1267 921 l 201 -42 z "},"Ù":{"ha":1178,"x_min":128,"x_max":1049,"o":"m 128 972 l 312 972 l 312 167 q 312 167 312 167 q 312 167 312 167 l 866 167 q 866 167 866 167 q 866 167 866 167 l 866 972 l 1049 972 l 1049 189 q 986 28 1049 66 q 810 -10 922 -10 l 366 -10 q 267 -2 311 -10 q 192 28 223 6 q 145 89 161 50 q 128 189 128 128 l 128 972 m 556 1031 l 325 1250 l 533 1250 l 733 1031 l 556 1031 z "},"Ú":{"ha":1178,"x_min":128,"x_max":1049,"o":"m 128 972 l 312 972 l 312 167 q 312 167 312 167 q 312 167 312 167 l 866 167 q 866 167 866 167 q 866 167 866 167 l 866 972 l 1049 972 l 1049 189 q 986 28 1049 66 q 810 -10 922 -10 l 366 -10 q 267 -2 311 -10 q 192 28 223 6 q 145 89 161 50 q 128 189 128 128 l 128 972 m 445 1031 l 644 1250 l 853 1250 l 622 1031 l 445 1031 z "},"Û":{"ha":1178,"x_min":128,"x_max":1049,"o":"m 128 972 l 312 972 l 312 167 q 312 167 312 167 q 312 167 312 167 l 866 167 q 866 167 866 167 q 866 167 866 167 l 866 972 l 1049 972 l 1049 189 q 986 28 1049 66 q 810 -10 922 -10 l 366 -10 q 267 -2 311 -10 q 192 28 223 6 q 145 89 161 50 q 128 189 128 128 l 128 972 m 303 1031 l 515 1250 l 665 1250 l 875 1031 l 699 1031 l 588 1165 l 476 1031 l 303 1031 z "},"Ü":{"ha":1178,"x_min":128,"x_max":1049,"o":"m 128 972 l 312 972 l 312 167 q 312 167 312 167 q 312 167 312 167 l 866 167 q 866 167 866 167 q 866 167 866 167 l 866 972 l 1049 972 l 1049 189 q 986 28 1049 66 q 810 -10 922 -10 l 366 -10 q 267 -2 311 -10 q 192 28 223 6 q 145 89 161 50 q 128 189 128 128 l 128 972 m 422 1056 q 368 1064 376 1056 q 360 1118 360 1072 l 360 1168 q 368 1221 360 1213 q 422 1229 376 1229 l 471 1229 q 525 1221 517 1229 q 533 1168 533 1213 l 533 1118 q 525 1064 533 1072 q 471 1056 517 1056 l 422 1056 m 707 1056 q 653 1064 661 1056 q 644 1118 644 1072 l 644 1168 q 653 1221 644 1213 q 707 1229 661 1229 l 756 1229 q 810 1221 801 1229 q 818 1168 818 1213 l 818 1118 q 810 1064 818 1072 q 756 1056 801 1056 l 707 1056 z "},"Ý":{"ha":1088,"x_min":0,"x_max":1088,"o":"m 461 0 l 461 425 l 0 972 l 263 972 l 560 593 l 860 972 l 1088 972 l 644 426 l 644 0 l 461 0 m 400 1031 l 599 1250 l 808 1250 l 576 1031 l 400 1031 z "},"Ÿ":{"ha":1088,"x_min":0,"x_max":1088,"o":"m 461 0 l 461 425 l 0 972 l 263 972 l 560 593 l 860 972 l 1088 972 l 644 426 l 644 0 l 461 0 m 377 1056 q 323 1064 331 1056 q 315 1118 315 1072 l 315 1168 q 323 1221 315 1213 q 377 1229 331 1229 l 426 1229 q 480 1221 472 1229 q 488 1168 488 1213 l 488 1118 q 480 1064 488 1072 q 426 1056 472 1056 l 377 1056 m 662 1056 q 608 1064 616 1056 q 599 1118 599 1072 l 599 1168 q 608 1221 599 1213 q 662 1229 616 1229 l 710 1229 q 765 1221 756 1229 q 773 1168 773 1213 l 773 1118 q 765 1064 773 1072 q 710 1056 756 1056 l 662 1056 z "},"Ž":{"ha":992,"x_min":49,"x_max":933,"o":"m 49 0 l 49 85 l 647 812 l 650 806 l 107 806 l 107 972 l 932 972 l 932 888 l 333 160 l 331 167 l 933 167 l 933 0 l 49 0 m 460 1031 l 251 1250 l 427 1250 l 538 1117 l 650 1250 l 822 1250 l 611 1031 l 460 1031 z "},"à":{"ha":936,"x_min":99,"x_max":821,"o":"m 269 -7 q 144 20 189 -7 q 99 135 99 47 l 99 281 q 160 391 99 366 q 297 415 222 415 l 649 415 l 649 560 q 649 560 649 560 q 649 560 649 560 l 281 560 q 281 560 281 560 q 281 560 281 560 l 281 499 l 108 531 l 108 565 q 156 676 108 651 q 279 701 203 701 l 650 701 q 774 676 726 701 q 821 565 821 651 l 821 0 l 649 0 l 649 104 q 580 17 631 40 q 467 -7 530 -7 l 269 -7 m 271 135 q 271 135 271 135 q 271 135 271 135 l 649 135 l 649 274 l 271 274 q 271 274 271 274 q 271 274 271 274 l 271 135 m 461 753 l 224 1006 l 401 1006 l 617 753 l 461 753 z "},"á":{"ha":936,"x_min":99,"x_max":821,"o":"m 269 -7 q 144 20 189 -7 q 99 135 99 47 l 99 281 q 160 391 99 366 q 297 415 222 415 l 649 415 l 649 560 q 649 560 649 560 q 649 560 649 560 l 281 560 q 281 560 281 560 q 281 560 281 560 l 281 499 l 108 531 l 108 565 q 156 676 108 651 q 279 701 203 701 l 650 701 q 774 676 726 701 q 821 565 821 651 l 821 0 l 649 0 l 649 104 q 580 17 631 40 q 467 -7 530 -7 l 269 -7 m 271 135 q 271 135 271 135 q 271 135 271 135 l 649 135 l 649 274 l 271 274 q 271 274 271 274 q 271 274 271 274 l 271 135 m 316 753 l 533 1006 l 710 1006 l 472 753 l 316 753 z "},"â":{"ha":936,"x_min":99,"x_max":821,"o":"m 269 -7 q 144 20 189 -7 q 99 135 99 47 l 99 281 q 160 391 99 366 q 297 415 222 415 l 649 415 l 649 560 q 649 560 649 560 q 649 560 649 560 l 281 560 q 281 560 281 560 q 281 560 281 560 l 281 499 l 108 531 l 108 565 q 156 676 108 651 q 279 701 203 701 l 650 701 q 774 676 726 701 q 821 565 821 651 l 821 0 l 649 0 l 649 104 q 580 17 631 40 q 467 -7 530 -7 l 269 -7 m 271 135 q 271 135 271 135 q 271 135 271 135 l 649 135 l 649 274 l 271 274 q 271 274 271 274 q 271 274 271 274 l 271 135 m 201 753 l 412 1006 l 524 1006 l 733 753 l 576 753 l 465 906 l 353 753 l 201 753 z "},"ã":{"ha":936,"x_min":99,"x_max":821,"o":"m 269 -7 q 144 20 189 -7 q 99 135 99 47 l 99 281 q 160 391 99 366 q 297 415 222 415 l 649 415 l 649 560 q 649 560 649 560 q 649 560 649 560 l 281 560 q 281 560 281 560 q 281 560 281 560 l 281 499 l 108 531 l 108 565 q 156 676 108 651 q 279 701 203 701 l 650 701 q 774 676 726 701 q 821 565 821 651 l 821 0 l 649 0 l 649 104 q 580 17 631 40 q 467 -7 530 -7 l 269 -7 m 271 135 q 271 135 271 135 q 271 135 271 135 l 649 135 l 649 274 l 271 274 q 271 274 271 274 q 271 274 271 274 l 271 135 m 189 805 q 260 939 207 905 q 365 972 313 972 q 426 963 397 972 q 480 941 455 953 q 528 920 506 930 q 569 910 550 910 q 607 923 589 910 q 633 972 626 935 l 744 953 q 673 818 726 852 q 568 785 621 785 q 507 794 536 785 q 453 816 478 804 q 406 838 428 828 q 365 847 383 847 q 326 835 344 847 q 300 785 308 822 l 189 805 z "},"ä":{"ha":936,"x_min":99,"x_max":821,"o":"m 269 -7 q 144 20 189 -7 q 99 135 99 47 l 99 281 q 160 391 99 366 q 297 415 222 415 l 649 415 l 649 560 q 649 560 649 560 q 649 560 649 560 l 281 560 q 281 560 281 560 q 281 560 281 560 l 281 499 l 108 531 l 108 565 q 156 676 108 651 q 279 701 203 701 l 650 701 q 774 676 726 701 q 821 565 821 651 l 821 0 l 649 0 l 649 104 q 580 17 631 40 q 467 -7 530 -7 l 269 -7 m 271 135 q 271 135 271 135 q 271 135 271 135 l 649 135 l 649 274 l 271 274 q 271 274 271 274 q 271 274 271 274 l 271 135 m 307 796 q 253 804 261 796 q 244 858 244 813 l 244 901 q 253 955 244 947 q 307 963 261 963 l 349 963 q 403 955 394 963 q 411 901 411 947 l 411 858 q 403 804 411 813 q 349 796 394 796 l 307 796 m 585 796 q 531 804 539 796 q 522 858 522 813 l 522 901 q 531 955 522 947 q 585 963 539 963 l 626 963 q 681 955 672 963 q 689 901 689 947 l 689 858 q 681 804 689 813 q 626 796 672 796 l 585 796 z "},"å":{"ha":936,"x_min":99,"x_max":821,"o":"m 269 -7 q 144 20 189 -7 q 99 135 99 47 l 99 281 q 160 391 99 366 q 297 415 222 415 l 649 415 l 649 560 q 649 560 649 560 q 649 560 649 560 l 281 560 q 281 560 281 560 q 281 560 281 560 l 281 499 l 108 531 l 108 565 q 156 676 108 651 q 279 701 203 701 l 650 701 q 774 676 726 701 q 821 565 821 651 l 821 0 l 649 0 l 649 104 q 580 17 631 40 q 467 -7 530 -7 l 269 -7 m 271 135 q 271 135 271 135 q 271 135 271 135 l 649 135 l 649 274 l 271 274 q 271 274 271 274 q 271 274 271 274 l 271 135 m 467 749 q 395 755 422 749 q 353 774 368 760 q 333 814 338 788 q 328 880 328 839 q 333 946 328 921 q 353 986 338 972 q 395 1005 368 1000 q 467 1010 422 1010 q 538 1005 510 1010 q 580 986 565 1000 q 600 946 594 972 q 605 880 605 921 q 600 814 605 839 q 580 774 594 788 q 538 755 565 760 q 467 749 510 749 m 467 827 q 508 839 500 827 q 517 880 517 851 q 508 920 517 908 q 467 932 500 932 q 425 920 433 932 q 417 880 417 908 q 425 839 417 851 q 467 827 433 827 z "},"ç":{"ha":931,"x_min":106,"x_max":851,"o":"m 106 142 l 106 560 q 147 669 106 636 q 283 701 188 701 l 671 701 q 808 669 767 701 q 849 560 849 636 l 849 486 l 676 453 l 676 546 q 676 546 676 546 q 676 546 676 546 l 278 546 q 278 546 278 546 q 278 546 278 546 l 278 149 q 278 149 278 149 q 278 149 278 149 l 679 149 q 679 149 679 149 q 679 149 679 149 l 679 249 l 851 213 l 851 142 q 811 27 851 61 q 674 -7 771 -7 l 283 -7 q 146 27 186 -7 q 106 142 106 61 m 466 -304 q 402 -296 431 -304 q 349 -269 374 -287 l 380 -217 q 405 -226 389 -222 q 435 -230 420 -230 q 473 -218 460 -230 q 486 -187 486 -207 q 473 -156 486 -167 q 433 -146 459 -146 q 403 -149 419 -146 q 372 -156 388 -151 l 449 10 l 478 10 l 508 10 l 469 -75 q 572 -103 538 -76 q 607 -185 607 -131 q 570 -273 607 -242 q 466 -304 533 -304 z "},"è":{"ha":956,"x_min":106,"x_max":850,"o":"m 106 174 l 106 549 q 152 662 106 623 q 293 701 198 701 l 661 701 q 803 661 756 701 q 850 546 850 622 l 850 279 l 278 279 l 278 135 q 278 135 278 135 q 278 135 278 135 l 678 135 q 678 135 678 135 q 678 135 678 135 l 678 211 l 850 181 l 850 174 q 799 35 850 76 q 629 -7 749 -7 l 313 -7 q 157 34 208 -7 q 106 174 106 75 m 278 421 l 678 421 l 678 560 q 678 560 678 560 q 678 560 678 560 l 278 560 q 278 560 278 560 q 278 560 278 560 l 278 421 m 472 753 l 234 1006 l 411 1006 l 628 753 l 472 753 z "},"é":{"ha":956,"x_min":106,"x_max":850,"o":"m 106 174 l 106 549 q 152 662 106 623 q 293 701 198 701 l 661 701 q 803 661 756 701 q 850 546 850 622 l 850 279 l 278 279 l 278 135 q 278 135 278 135 q 278 135 278 135 l 678 135 q 678 135 678 135 q 678 135 678 135 l 678 211 l 850 181 l 850 174 q 799 35 850 76 q 629 -7 749 -7 l 313 -7 q 157 34 208 -7 q 106 174 106 75 m 278 421 l 678 421 l 678 560 q 678 560 678 560 q 678 560 678 560 l 278 560 q 278 560 278 560 q 278 560 278 560 l 278 421 m 326 753 l 543 1006 l 720 1006 l 483 753 l 326 753 z "},"ê":{"ha":956,"x_min":106,"x_max":850,"o":"m 106 174 l 106 549 q 152 662 106 623 q 293 701 198 701 l 661 701 q 803 661 756 701 q 850 546 850 622 l 850 279 l 278 279 l 278 135 q 278 135 278 135 q 278 135 278 135 l 678 135 q 678 135 678 135 q 678 135 678 135 l 678 211 l 850 181 l 850 174 q 799 35 850 76 q 629 -7 749 -7 l 313 -7 q 157 34 208 -7 q 106 174 106 75 m 278 421 l 678 421 l 678 560 q 678 560 678 560 q 678 560 678 560 l 278 560 q 278 560 278 560 q 278 560 278 560 l 278 421 m 211 753 l 422 1006 l 534 1006 l 744 753 l 587 753 l 476 906 l 364 753 l 211 753 z "},"ë":{"ha":956,"x_min":106,"x_max":850,"o":"m 106 174 l 106 549 q 152 662 106 623 q 293 701 198 701 l 661 701 q 803 661 756 701 q 850 546 850 622 l 850 279 l 278 279 l 278 135 q 278 135 278 135 q 278 135 278 135 l 678 135 q 678 135 678 135 q 678 135 678 135 l 678 211 l 850 181 l 850 174 q 799 35 850 76 q 629 -7 749 -7 l 313 -7 q 157 34 208 -7 q 106 174 106 75 m 278 421 l 678 421 l 678 560 q 678 560 678 560 q 678 560 678 560 l 278 560 q 278 560 278 560 q 278 560 278 560 l 278 421 m 317 796 q 263 804 272 796 q 255 858 255 813 l 255 901 q 263 955 255 947 q 317 963 272 963 l 359 963 q 413 955 405 963 q 422 901 422 947 l 422 858 q 413 804 422 813 q 359 796 405 796 l 317 796 m 595 796 q 541 804 549 796 q 533 858 533 813 l 533 901 q 541 955 533 947 q 595 963 549 963 l 637 963 q 691 955 683 963 q 699 901 699 947 l 699 858 q 691 804 699 813 q 637 796 683 796 l 595 796 z "},"ì":{"ha":422,"x_min":-32,"x_max":362,"o":"m 125 0 l 125 694 l 297 694 l 297 0 l 125 0 m 206 753 l -32 1006 l 145 1006 l 362 753 l 206 753 z "},"í":{"ha":422,"x_min":60,"x_max":454,"o":"m 125 0 l 125 694 l 297 694 l 297 0 l 125 0 m 60 753 l 277 1006 l 454 1006 l 217 753 l 60 753 z "},"î":{"ha":422,"x_min":-55,"x_max":478,"o":"m 125 0 l 125 694 l 297 694 l 297 0 l 125 0 m -55 753 l 156 1006 l 268 1006 l 478 753 l 321 753 l 210 906 l 98 753 l -55 753 z "},"ï":{"ha":422,"x_min":-11,"x_max":433,"o":"m 125 0 l 125 694 l 297 694 l 297 0 l 125 0 m 51 796 q -3 804 6 796 q -11 858 -11 813 l -11 901 q -3 955 -11 947 q 51 963 6 963 l 93 963 q 147 955 139 963 q 156 901 156 947 l 156 858 q 147 804 156 813 q 93 796 139 796 l 51 796 m 329 796 q 275 804 283 796 q 267 858 267 813 l 267 901 q 275 955 267 947 q 329 963 283 963 l 371 963 q 425 955 417 963 q 433 901 433 947 l 433 858 q 425 804 433 813 q 371 796 417 796 l 329 796 z "},"ñ":{"ha":957,"x_min":125,"x_max":842,"o":"m 125 0 l 125 694 l 297 694 l 297 629 q 365 683 318 665 q 493 701 411 701 l 621 701 q 790 661 739 701 q 842 528 842 621 l 842 0 l 669 0 l 669 546 q 669 546 669 546 q 669 546 669 546 l 297 546 l 297 0 l 125 0 m 206 812 q 276 945 224 912 q 382 979 329 979 q 443 969 414 979 q 497 948 472 960 q 544 927 522 937 q 585 917 567 917 q 624 930 606 917 q 650 979 642 942 l 761 960 q 690 825 742 859 q 585 792 638 792 q 524 801 553 792 q 470 823 495 811 q 422 844 444 835 q 381 854 400 854 q 343 842 361 854 q 317 792 324 829 l 206 812 z "},"ò":{"ha":969,"x_min":106,"x_max":864,"o":"m 106 142 l 106 560 q 147 668 106 635 q 283 701 188 701 l 686 701 q 823 668 782 701 q 864 560 864 635 l 864 142 q 824 27 864 61 q 686 -7 783 -7 l 283 -7 q 146 27 187 -7 q 106 142 106 61 m 278 149 q 278 149 278 149 q 278 149 278 149 l 692 149 q 692 149 692 149 q 692 149 692 149 l 692 546 q 692 546 692 546 q 692 546 692 546 l 278 546 q 278 546 278 546 q 278 546 278 546 l 278 149 m 479 753 l 242 1006 l 419 1006 l 635 753 l 479 753 z "},"ó":{"ha":969,"x_min":106,"x_max":864,"o":"m 106 142 l 106 560 q 147 668 106 635 q 283 701 188 701 l 686 701 q 823 668 782 701 q 864 560 864 635 l 864 142 q 824 27 864 61 q 686 -7 783 -7 l 283 -7 q 146 27 187 -7 q 106 142 106 61 m 278 149 q 278 149 278 149 q 278 149 278 149 l 692 149 q 692 149 692 149 q 692 149 692 149 l 692 546 q 692 546 692 546 q 692 546 692 546 l 278 546 q 278 546 278 546 q 278 546 278 546 l 278 149 m 334 753 l 551 1006 l 728 1006 l 490 753 l 334 753 z "},"ô":{"ha":969,"x_min":106,"x_max":864,"o":"m 106 142 l 106 560 q 147 668 106 635 q 283 701 188 701 l 686 701 q 823 668 782 701 q 864 560 864 635 l 864 142 q 824 27 864 61 q 686 -7 783 -7 l 283 -7 q 146 27 187 -7 q 106 142 106 61 m 278 149 q 278 149 278 149 q 278 149 278 149 l 692 149 q 692 149 692 149 q 692 149 692 149 l 692 546 q 692 546 692 546 q 692 546 692 546 l 278 546 q 278 546 278 546 q 278 546 278 546 l 278 149 m 219 753 l 430 1006 l 542 1006 l 751 753 l 594 753 l 483 906 l 372 753 l 219 753 z "},"õ":{"ha":969,"x_min":106,"x_max":864,"o":"m 106 142 l 106 560 q 147 668 106 635 q 283 701 188 701 l 686 701 q 823 668 782 701 q 864 560 864 635 l 864 142 q 824 27 864 61 q 686 -7 783 -7 l 283 -7 q 146 27 187 -7 q 106 142 106 61 m 278 149 q 278 149 278 149 q 278 149 278 149 l 692 149 q 692 149 692 149 q 692 149 692 149 l 692 546 q 692 546 692 546 q 692 546 692 546 l 278 546 q 278 546 278 546 q 278 546 278 546 l 278 149 m 207 805 q 278 939 225 905 q 383 972 331 972 q 444 963 415 972 q 498 941 473 953 q 546 920 524 930 q 587 910 568 910 q 625 923 607 910 q 651 972 644 935 l 763 953 q 691 818 744 852 q 586 785 639 785 q 525 794 554 785 q 471 816 497 804 q 424 838 446 828 q 383 847 401 847 q 344 835 363 847 q 318 785 326 822 l 207 805 z "},"ö":{"ha":969,"x_min":106,"x_max":864,"o":"m 106 142 l 106 560 q 147 668 106 635 q 283 701 188 701 l 686 701 q 823 668 782 701 q 864 560 864 635 l 864 142 q 824 27 864 61 q 686 -7 783 -7 l 283 -7 q 146 27 187 -7 q 106 142 106 61 m 278 149 q 278 149 278 149 q 278 149 278 149 l 692 149 q 692 149 692 149 q 692 149 692 149 l 692 546 q 692 546 692 546 q 692 546 692 546 l 278 546 q 278 546 278 546 q 278 546 278 546 l 278 149 m 325 796 q 271 804 279 796 q 263 858 263 813 l 263 901 q 271 955 263 947 q 325 963 279 963 l 367 963 q 421 955 413 963 q 429 901 429 947 l 429 858 q 421 804 429 813 q 367 796 413 796 l 325 796 m 603 796 q 549 804 557 796 q 540 858 540 813 l 540 901 q 549 955 540 947 q 603 963 557 963 l 644 963 q 699 955 690 963 q 707 901 707 947 l 707 858 q 699 804 707 813 q 644 796 690 796 l 603 796 z "},"ø":{"ha":1057,"x_min":106,"x_max":951,"o":"m 149 142 l 149 560 q 191 668 149 635 q 327 701 232 701 l 730 701 q 866 668 825 701 q 908 560 908 635 l 908 142 q 867 27 908 61 q 730 -7 827 -7 l 327 -7 q 190 27 231 -7 q 149 142 149 61 m 322 149 q 322 149 322 149 q 322 149 322 149 l 735 149 q 735 149 735 149 q 735 149 735 149 l 735 546 q 735 546 735 546 q 735 546 735 546 l 322 546 q 322 546 322 546 q 322 546 322 546 l 322 149 m 181 -42 l 106 42 l 243 165 l 246 168 l 726 601 l 727 601 l 876 736 l 951 653 l 800 516 l 800 516 l 317 83 l 313 78 l 181 -42 z "},"ù":{"ha":947,"x_min":115,"x_max":832,"o":"m 115 135 l 115 694 l 288 694 l 288 149 q 288 149 288 149 q 288 149 288 149 l 660 149 q 660 149 660 149 q 660 149 660 149 l 660 694 l 832 694 l 832 135 q 786 20 832 47 q 661 -7 741 -7 l 285 -7 q 160 20 205 -7 q 115 135 115 47 m 468 753 l 231 1006 l 408 1006 l 624 753 l 468 753 z "},"ú":{"ha":947,"x_min":115,"x_max":832,"o":"m 115 135 l 115 694 l 288 694 l 288 149 q 288 149 288 149 q 288 149 288 149 l 660 149 q 660 149 660 149 q 660 149 660 149 l 660 694 l 832 694 l 832 135 q 786 20 832 47 q 661 -7 741 -7 l 285 -7 q 160 20 205 -7 q 115 135 115 47 m 323 753 l 540 1006 l 717 1006 l 479 753 l 323 753 z "},"û":{"ha":947,"x_min":115,"x_max":832,"o":"m 115 135 l 115 694 l 288 694 l 288 149 q 288 149 288 149 q 288 149 288 149 l 660 149 q 660 149 660 149 q 660 149 660 149 l 660 694 l 832 694 l 832 135 q 786 20 832 47 q 661 -7 741 -7 l 285 -7 q 160 20 205 -7 q 115 135 115 47 m 208 753 l 419 1006 l 531 1006 l 740 753 l 583 753 l 472 906 l 360 753 l 208 753 z "},"ü":{"ha":947,"x_min":115,"x_max":832,"o":"m 115 135 l 115 694 l 288 694 l 288 149 q 288 149 288 149 q 288 149 288 149 l 660 149 q 660 149 660 149 q 660 149 660 149 l 660 694 l 832 694 l 832 135 q 786 20 832 47 q 661 -7 741 -7 l 285 -7 q 160 20 205 -7 q 115 135 115 47 m 314 796 q 260 804 268 796 q 251 858 251 813 l 251 901 q 260 955 251 947 q 314 963 268 963 l 356 963 q 410 955 401 963 q 418 901 418 947 l 418 858 q 410 804 418 813 q 356 796 401 796 l 314 796 m 592 796 q 538 804 546 796 q 529 858 529 813 l 529 901 q 538 955 529 947 q 592 963 546 963 l 633 963 q 688 955 679 963 q 696 901 696 947 l 696 858 q 688 804 696 813 q 633 796 679 796 l 592 796 z "},"ý":{"ha":817,"x_min":3,"x_max":813,"o":"m 53 -297 l 22 -142 l 243 -142 q 243 -142 243 -142 q 243 -142 243 -142 l 331 44 l 3 694 l 206 694 l 424 241 l 637 694 l 813 694 l 390 -187 q 359 -241 375 -219 q 323 -274 344 -262 q 274 -292 302 -287 q 207 -297 246 -297 l 53 -297 m 258 753 l 474 1006 l 651 1006 l 414 753 l 258 753 z "},"ÿ":{"ha":817,"x_min":3,"x_max":813,"o":"m 53 -297 l 22 -142 l 243 -142 q 243 -142 243 -142 q 243 -142 243 -142 l 331 44 l 3 694 l 206 694 l 424 241 l 637 694 l 813 694 l 390 -187 q 359 -241 375 -219 q 323 -274 344 -262 q 274 -292 302 -287 q 207 -297 246 -297 l 53 -297 m 249 796 q 194 804 203 796 q 186 858 186 813 l 186 901 q 194 955 186 947 q 249 963 203 963 l 290 963 q 344 955 336 963 q 353 901 353 947 l 353 858 q 344 804 353 813 q 290 796 336 796 l 249 796 m 526 796 q 472 804 481 796 q 464 858 464 813 l 464 901 q 472 955 464 947 q 526 963 481 963 l 568 963 q 622 955 614 963 q 631 901 631 947 l 631 858 q 622 804 631 813 q 568 796 614 796 l 526 796 z "},"ž":{"ha":786,"x_min":54,"x_max":732,"o":"m 54 0 l 54 61 l 469 564 l 463 549 l 96 549 l 96 694 l 728 694 l 728 633 l 312 126 l 319 145 l 732 145 l 732 0 l 54 0 m 338 753 l 128 1006 l 285 1006 l 397 853 l 508 1006 l 661 1006 l 450 753 l 338 753 z "},"Ā":{"ha":1149,"x_min":0,"x_max":1149,"o":"m 0 0 l 499 972 l 643 972 l 1149 0 l 932 0 l 816 226 l 317 226 l 201 0 l 0 0 m 403 393 l 731 393 l 567 712 l 403 393 m 342 1083 l 342 1201 l 808 1201 l 808 1083 l 342 1083 z "},"Ă":{"ha":1149,"x_min":0,"x_max":1149,"o":"m 0 0 l 499 972 l 643 972 l 1149 0 l 932 0 l 816 226 l 317 226 l 201 0 l 0 0 m 403 393 l 731 393 l 567 712 l 403 393 m 575 1044 q 472 1054 514 1044 q 403 1088 429 1064 q 365 1151 376 1112 q 353 1250 353 1191 l 471 1250 q 477 1206 471 1223 q 495 1179 483 1189 q 527 1165 508 1169 q 575 1161 547 1161 q 622 1165 602 1161 q 653 1179 641 1169 q 672 1206 666 1189 q 678 1250 678 1223 l 795 1250 q 784 1151 795 1191 q 746 1088 772 1112 q 678 1054 720 1064 q 575 1044 636 1044 z "},"Ą":{"ha":1149,"x_min":0,"x_max":1149,"o":"m 0 0 l 499 972 l 643 972 l 1149 0 l 932 0 l 816 226 l 317 226 l 201 0 l 0 0 m 403 393 l 731 393 l 567 712 l 403 393 m 977 -297 q 848 -264 899 -297 q 797 -167 797 -231 q 834 -68 797 -112 q 932 0 871 -24 l 1081 0 q 994 -36 1028 -8 q 960 -102 960 -65 q 986 -150 960 -135 q 1051 -166 1012 -166 q 1096 -161 1074 -166 q 1140 -145 1119 -156 l 1111 -269 q 1047 -290 1081 -283 q 977 -297 1013 -297 z "},"Ć":{"ha":1117,"x_min":118,"x_max":1029,"o":"m 118 792 q 173 938 118 894 q 356 982 228 982 l 785 982 q 968 938 913 982 q 1024 792 1024 894 l 1024 656 l 840 622 l 840 813 q 840 813 840 813 q 840 813 840 813 l 301 813 q 301 813 301 813 q 301 813 301 813 l 301 160 q 301 160 301 160 q 301 160 301 160 l 846 160 q 846 160 846 160 q 846 160 846 160 l 846 368 l 1029 332 l 1029 189 q 975 36 1029 81 q 790 -10 920 -10 l 356 -10 q 172 36 226 -10 q 118 189 118 81 l 118 792 m 426 1041 l 626 1260 l 834 1260 l 603 1041 l 426 1041 z "},"Ĉ":{"ha":1117,"x_min":118,"x_max":1029,"o":"m 118 792 q 173 938 118 894 q 356 982 228 982 l 785 982 q 968 938 913 982 q 1024 792 1024 894 l 1024 656 l 840 622 l 840 813 q 840 813 840 813 q 840 813 840 813 l 301 813 q 301 813 301 813 q 301 813 301 813 l 301 160 q 301 160 301 160 q 301 160 301 160 l 846 160 q 846 160 846 160 q 846 160 846 160 l 846 368 l 1029 332 l 1029 189 q 975 36 1029 81 q 790 -10 920 -10 l 356 -10 q 172 36 226 -10 q 118 189 118 81 l 118 792 m 285 1041 l 496 1260 l 647 1260 l 856 1041 l 680 1041 l 569 1174 l 457 1041 l 285 1041 z "},"Ċ":{"ha":1117,"x_min":118,"x_max":1029,"o":"m 118 792 q 173 938 118 894 q 356 982 228 982 l 785 982 q 968 938 913 982 q 1024 792 1024 894 l 1024 656 l 840 622 l 840 813 q 840 813 840 813 q 840 813 840 813 l 301 813 q 301 813 301 813 q 301 813 301 813 l 301 160 q 301 160 301 160 q 301 160 301 160 l 846 160 q 846 160 846 160 q 846 160 846 160 l 846 368 l 1029 332 l 1029 189 q 975 36 1029 81 q 790 -10 920 -10 l 356 -10 q 172 36 226 -10 q 118 189 118 81 l 118 792 m 548 1081 q 491 1089 499 1081 q 482 1147 482 1098 l 482 1193 q 491 1250 482 1242 q 548 1259 499 1259 l 592 1259 q 650 1250 641 1259 q 658 1193 658 1242 l 658 1147 q 650 1089 658 1098 q 592 1081 641 1081 l 548 1081 z "},"Č":{"ha":1117,"x_min":118,"x_max":1029,"o":"m 118 792 q 173 938 118 894 q 356 982 228 982 l 785 982 q 968 938 913 982 q 1024 792 1024 894 l 1024 656 l 840 622 l 840 813 q 840 813 840 813 q 840 813 840 813 l 301 813 q 301 813 301 813 q 301 813 301 813 l 301 160 q 301 160 301 160 q 301 160 301 160 l 846 160 q 846 160 846 160 q 846 160 846 160 l 846 368 l 1029 332 l 1029 189 q 975 36 1029 81 q 790 -10 920 -10 l 356 -10 q 172 36 226 -10 q 118 189 118 81 l 118 792 m 493 1041 l 283 1260 l 460 1260 l 571 1126 l 683 1260 l 855 1260 l 644 1041 l 493 1041 z "},"Ď":{"ha":1229,"x_min":139,"x_max":1160,"o":"m 322 169 l 686 169 q 807 186 755 169 q 895 242 860 203 q 949 342 931 281 q 967 493 967 404 q 948 638 967 578 q 894 733 930 697 q 806 786 858 770 q 686 803 754 803 l 322 803 l 322 169 m 139 0 l 139 972 l 697 972 q 879 942 794 972 q 1026 852 963 913 q 1124 700 1088 792 q 1160 486 1160 609 q 1123 263 1160 356 q 1024 113 1087 171 q 877 27 962 54 q 697 0 793 0 l 139 0 m 476 1031 l 267 1250 l 443 1250 l 554 1117 l 666 1250 l 838 1250 l 627 1031 l 476 1031 z "},"Đ":{"ha":1229,"x_min":69,"x_max":1160,"o":"m 139 0 l 139 408 l 69 408 l 69 564 l 139 564 l 139 972 l 697 972 q 879 942 794 972 q 1026 852 963 913 q 1124 700 1088 792 q 1160 486 1160 609 q 1123 263 1160 356 q 1024 113 1087 171 q 877 27 962 54 q 697 0 793 0 l 139 0 m 322 169 l 686 169 q 807 186 755 169 q 895 242 860 203 q 949 342 931 281 q 967 493 967 404 q 948 638 967 578 q 894 733 930 697 q 806 786 858 770 q 686 803 754 803 l 322 803 l 322 564 l 564 564 l 564 408 l 322 408 l 322 169 z "},"Ē":{"ha":1089,"x_min":139,"x_max":1013,"o":"m 139 0 l 139 972 l 999 972 l 999 803 l 322 803 l 322 583 l 731 583 l 731 414 l 322 414 l 322 169 l 1013 169 l 1013 0 l 139 0 m 343 1083 l 343 1201 l 808 1201 l 808 1083 l 343 1083 z "},"Ĕ":{"ha":1089,"x_min":139,"x_max":1013,"o":"m 139 0 l 139 972 l 999 972 l 999 803 l 322 803 l 322 583 l 731 583 l 731 414 l 322 414 l 322 169 l 1013 169 l 1013 0 l 139 0 m 576 1044 q 472 1054 515 1044 q 403 1088 430 1064 q 366 1151 377 1112 q 354 1250 354 1191 l 472 1250 q 477 1206 472 1223 q 496 1179 483 1189 q 528 1165 508 1169 q 576 1161 548 1161 q 622 1165 603 1161 q 654 1179 642 1169 q 673 1206 667 1189 q 678 1250 678 1223 l 796 1250 q 784 1151 796 1191 q 747 1088 773 1112 q 679 1054 721 1064 q 576 1044 637 1044 z "},"Ė":{"ha":1089,"x_min":139,"x_max":1013,"o":"m 139 0 l 139 972 l 999 972 l 999 803 l 322 803 l 322 583 l 731 583 l 731 414 l 322 414 l 322 169 l 1013 169 l 1013 0 l 139 0 m 553 1071 q 496 1080 505 1071 q 488 1138 488 1088 l 488 1183 q 496 1241 488 1232 q 553 1249 505 1249 l 598 1249 q 655 1241 647 1249 q 664 1183 664 1232 l 664 1138 q 655 1080 664 1088 q 598 1071 647 1071 l 553 1071 z "},"Ę":{"ha":1089,"x_min":139,"x_max":1071,"o":"m 139 0 l 139 972 l 999 972 l 999 803 l 322 803 l 322 583 l 731 583 l 731 414 l 322 414 l 322 169 l 1013 169 l 1013 0 l 139 0 m 908 -297 q 779 -264 830 -297 q 728 -167 728 -231 q 765 -68 728 -112 q 863 0 801 -24 l 1012 0 q 925 -36 959 -8 q 891 -102 891 -65 q 917 -150 891 -135 q 982 -166 942 -166 q 1027 -161 1004 -166 q 1071 -145 1049 -156 l 1042 -269 q 977 -290 1011 -283 q 908 -297 944 -297 z "},"Ě":{"ha":1089,"x_min":139,"x_max":1013,"o":"m 139 0 l 139 972 l 999 972 l 999 803 l 322 803 l 322 583 l 731 583 l 731 414 l 322 414 l 322 169 l 1013 169 l 1013 0 l 139 0 m 499 1031 l 289 1250 l 465 1250 l 576 1117 l 688 1250 l 860 1250 l 649 1031 l 499 1031 z "},"Ĝ":{"ha":1200,"x_min":118,"x_max":1089,"o":"m 118 792 q 173 938 118 894 q 356 982 228 982 l 846 982 q 1030 938 974 982 q 1085 792 1085 894 l 1085 719 l 901 681 l 901 813 q 901 813 901 813 q 901 813 901 813 l 301 813 q 301 813 301 813 q 301 813 301 813 l 301 160 q 301 160 301 160 q 301 160 301 160 l 906 160 q 906 160 906 160 q 906 160 906 160 l 906 390 l 600 390 l 600 560 l 1089 560 l 1089 189 q 1034 36 1089 81 q 850 -10 980 -10 l 356 -10 q 172 36 226 -10 q 118 189 118 81 l 118 792 m 315 1041 l 526 1260 l 677 1260 l 887 1041 l 710 1041 l 599 1174 l 488 1041 l 315 1041 z "},"Ğ":{"ha":1200,"x_min":118,"x_max":1089,"o":"m 118 792 q 173 938 118 894 q 356 982 228 982 l 846 982 q 1030 938 974 982 q 1085 792 1085 894 l 1085 719 l 901 681 l 901 813 q 901 813 901 813 q 901 813 901 813 l 301 813 q 301 813 301 813 q 301 813 301 813 l 301 160 q 301 160 301 160 q 301 160 301 160 l 906 160 q 906 160 906 160 q 906 160 906 160 l 906 390 l 600 390 l 600 560 l 1089 560 l 1089 189 q 1034 36 1089 81 q 850 -10 980 -10 l 356 -10 q 172 36 226 -10 q 118 189 118 81 l 118 792 m 601 1053 q 497 1064 540 1053 q 428 1098 455 1074 q 391 1161 402 1122 q 379 1260 379 1201 l 497 1260 q 502 1216 497 1233 q 521 1189 508 1199 q 553 1175 533 1178 q 601 1171 573 1171 q 647 1175 628 1171 q 679 1189 667 1178 q 698 1216 692 1199 q 703 1260 703 1233 l 821 1260 q 809 1161 821 1201 q 772 1098 798 1122 q 704 1064 746 1074 q 601 1053 662 1053 z "},"Ġ":{"ha":1200,"x_min":118,"x_max":1089,"o":"m 118 792 q 173 938 118 894 q 356 982 228 982 l 846 982 q 1030 938 974 982 q 1085 792 1085 894 l 1085 719 l 901 681 l 901 813 q 901 813 901 813 q 901 813 901 813 l 301 813 q 301 813 301 813 q 301 813 301 813 l 301 160 q 301 160 301 160 q 301 160 301 160 l 906 160 q 906 160 906 160 q 906 160 906 160 l 906 390 l 600 390 l 600 560 l 1089 560 l 1089 189 q 1034 36 1089 81 q 850 -10 980 -10 l 356 -10 q 172 36 226 -10 q 118 189 118 81 l 118 792 m 578 1081 q 521 1089 530 1081 q 513 1147 513 1098 l 513 1193 q 521 1250 513 1242 q 578 1259 530 1259 l 623 1259 q 680 1250 672 1259 q 689 1193 689 1242 l 689 1147 q 680 1089 689 1098 q 623 1081 672 1081 l 578 1081 z "},"Ģ":{"ha":1200,"x_min":118,"x_max":1089,"o":"m 118 792 q 173 938 118 894 q 356 982 228 982 l 846 982 q 1030 938 974 982 q 1085 792 1085 894 l 1085 719 l 901 681 l 901 813 q 901 813 901 813 q 901 813 901 813 l 301 813 q 301 813 301 813 q 301 813 301 813 l 301 160 q 301 160 301 160 q 301 160 301 160 l 906 160 q 906 160 906 160 q 906 160 906 160 l 906 390 l 600 390 l 600 560 l 1089 560 l 1089 189 q 1034 36 1089 81 q 850 -10 980 -10 l 356 -10 q 172 36 226 -10 q 118 189 118 81 l 118 792 m 577 -430 l 528 -412 l 597 -265 l 582 -265 q 527 -256 535 -265 q 519 -199 519 -247 l 519 -162 q 527 -106 519 -114 q 582 -97 535 -97 l 623 -97 q 678 -106 670 -97 q 687 -162 687 -114 l 687 -199 q 685 -235 687 -220 q 678 -258 683 -249 l 577 -430 z "},"Ǧ":{"ha":1200,"x_min":118,"x_max":1089,"o":"m 118 792 q 173 938 118 894 q 356 982 228 982 l 846 982 q 1030 938 974 982 q 1085 792 1085 894 l 1085 719 l 901 681 l 901 813 q 901 813 901 813 q 901 813 901 813 l 301 813 q 301 813 301 813 q 301 813 301 813 l 301 160 q 301 160 301 160 q 301 160 301 160 l 906 160 q 906 160 906 160 q 906 160 906 160 l 906 390 l 600 390 l 600 560 l 1089 560 l 1089 189 q 1034 36 1089 81 q 850 -10 980 -10 l 356 -10 q 172 36 226 -10 q 118 189 118 81 l 118 792 m 524 1041 l 314 1260 l 490 1260 l 601 1126 l 713 1260 l 885 1260 l 674 1041 l 524 1041 z "},"Ĥ":{"ha":1263,"x_min":139,"x_max":1124,"o":"m 139 0 l 139 972 l 322 972 l 322 592 l 940 592 l 940 972 l 1124 972 l 1124 0 l 940 0 l 940 422 l 322 422 l 322 0 l 139 0 m 346 1031 l 557 1250 l 708 1250 l 917 1031 l 741 1031 l 630 1165 l 518 1031 l 346 1031 z "},"Ħ":{"ha":1332,"x_min":104,"x_max":1228,"o":"m 174 0 l 174 972 l 357 972 l 357 592 l 975 592 l 975 972 l 1158 972 l 1158 0 l 975 0 l 975 422 l 357 422 l 357 0 l 174 0 m 1228 651 l 104 651 l 104 807 l 1228 807 l 1228 651 z "},"Ĩ":{"ha":461,"x_min":-53,"x_max":514,"o":"m 139 0 l 139 972 l 322 972 l 322 0 l 139 0 m -53 1076 q -24 1159 -44 1126 q 21 1210 -4 1191 q 75 1236 47 1228 q 129 1243 103 1243 q 190 1234 161 1243 q 244 1216 219 1226 q 292 1197 269 1206 q 333 1188 314 1188 q 371 1197 353 1188 q 397 1243 390 1206 l 514 1223 q 485 1140 505 1172 q 440 1089 465 1108 q 386 1063 415 1070 q 332 1056 358 1056 q 271 1064 300 1056 q 217 1083 242 1073 q 169 1102 192 1093 q 128 1110 147 1110 q 90 1102 108 1110 q 64 1056 72 1093 l -53 1076 z "},"Ī":{"ha":461,"x_min":-2,"x_max":463,"o":"m 139 0 l 139 972 l 322 972 l 322 0 l 139 0 m -2 1083 l -2 1201 l 463 1201 l 463 1083 l -2 1083 z "},"Ĭ":{"ha":461,"x_min":9,"x_max":451,"o":"m 139 0 l 139 972 l 322 972 l 322 0 l 139 0 m 231 1044 q 127 1054 169 1044 q 58 1088 85 1064 q 20 1151 32 1112 q 9 1250 9 1191 l 126 1250 q 132 1206 126 1223 q 151 1179 138 1189 q 183 1165 163 1169 q 231 1161 203 1161 q 277 1165 258 1161 q 309 1179 297 1169 q 327 1206 322 1189 q 333 1250 333 1223 l 451 1250 q 439 1151 451 1191 q 402 1088 428 1112 q 334 1054 376 1064 q 231 1044 292 1044 z "},"Į":{"ha":461,"x_min":4,"x_max":347,"o":"m 139 0 l 139 972 l 322 972 l 322 0 l 139 0 m 184 -297 q 55 -264 106 -297 q 4 -167 4 -231 q 41 -68 4 -112 q 139 0 78 -24 l 288 0 q 201 -36 235 -8 q 167 -102 167 -65 q 193 -150 167 -135 q 258 -166 219 -166 q 303 -161 281 -166 q 347 -145 326 -156 l 318 -269 q 254 -290 288 -283 q 184 -297 220 -297 z "},"İ":{"ha":461,"x_min":139,"x_max":322,"o":"m 139 0 l 139 972 l 322 972 l 322 0 l 139 0 m 208 1071 q 151 1080 160 1071 q 142 1138 142 1088 l 142 1183 q 151 1241 142 1232 q 208 1249 160 1249 l 253 1249 q 310 1241 301 1249 q 319 1183 319 1232 l 319 1138 q 310 1080 319 1088 q 253 1071 301 1071 l 208 1071 z "},"Ĵ":{"ha":1042,"x_min":71,"x_max":1110,"o":"m 914 972 l 914 181 q 859 34 914 78 q 676 -10 803 -10 l 310 -10 q 126 34 182 -10 q 71 181 71 78 l 71 408 l 254 447 l 254 160 q 254 160 254 160 q 254 160 254 160 l 731 160 q 731 160 731 160 q 731 160 731 160 l 731 972 l 914 972 m 538 1051 l 749 1269 l 900 1269 l 1110 1051 l 933 1051 l 822 1184 l 710 1051 l 538 1051 z "},"Ķ":{"ha":1156,"x_min":139,"x_max":1156,"o":"m 1054 972 l 519 510 l 519 521 l 1156 0 l 866 0 l 284 482 l 322 482 l 322 0 l 139 0 l 139 972 l 322 972 l 322 510 l 280 510 l 805 972 l 1054 972 m 603 -420 l 554 -403 l 624 -255 l 608 -255 q 553 -246 562 -255 q 545 -190 545 -237 l 545 -152 q 553 -96 545 -104 q 608 -87 562 -87 l 649 -87 q 705 -96 697 -87 q 713 -152 713 -104 l 713 -190 q 711 -225 713 -210 q 704 -249 710 -240 l 603 -420 z "},"Ĺ":{"ha":967,"x_min":87,"x_max":953,"o":"m 139 0 l 139 972 l 322 972 l 322 169 l 953 169 l 953 0 l 139 0 m 87 1031 l 286 1250 l 494 1250 l 263 1031 l 87 1031 z "},"Ļ":{"ha":967,"x_min":139,"x_max":953,"o":"m 139 0 l 139 972 l 322 972 l 322 169 l 953 169 l 953 0 l 139 0 m 520 -420 l 471 -403 l 540 -255 l 525 -255 q 470 -246 478 -255 q 462 -190 462 -237 l 462 -152 q 470 -96 462 -104 q 525 -87 478 -87 l 566 -87 q 622 -96 613 -87 q 630 -152 630 -104 l 630 -190 q 628 -225 630 -210 q 621 -249 626 -240 l 520 -420 z "},"Ľ":{"ha":967,"x_min":139,"x_max":953,"o":"m 139 0 l 139 972 l 322 972 l 322 169 l 953 169 l 953 0 l 139 0 m 676 738 l 713 972 l 844 972 l 804 766 l 676 738 z "},"Ŀ":{"ha":967,"x_min":139,"x_max":953,"o":"m 139 0 l 139 972 l 322 972 l 322 169 l 953 169 l 953 0 l 139 0 m 626 463 l 626 509 q 634 566 626 558 q 692 575 643 575 l 736 575 q 793 566 785 575 q 802 509 802 558 l 802 463 q 793 405 802 414 q 736 397 785 397 l 692 397 q 634 405 643 397 q 626 463 626 414 z "},"Ł":{"ha":967,"x_min":49,"x_max":953,"o":"m 139 0 l 139 339 l 49 306 l 49 417 l 139 450 l 139 972 l 322 972 l 322 517 l 677 647 l 677 535 l 322 406 l 322 169 l 953 169 l 953 0 l 139 0 z "},"Ń":{"ha":1271,"x_min":139,"x_max":1132,"o":"m 139 0 l 139 972 l 281 972 l 963 289 l 963 972 l 1132 972 l 1132 0 l 990 0 l 308 679 l 308 0 l 139 0 m 492 1031 l 691 1250 l 899 1250 l 668 1031 l 492 1031 z "},"Ņ":{"ha":1271,"x_min":139,"x_max":1132,"o":"m 139 0 l 139 972 l 281 972 l 963 289 l 963 972 l 1132 972 l 1132 0 l 990 0 l 308 679 l 308 0 l 139 0 m 610 -420 l 560 -403 l 630 -255 l 615 -255 q 560 -246 568 -255 q 551 -190 551 -237 l 551 -152 q 560 -96 551 -104 q 615 -87 568 -87 l 656 -87 q 711 -96 703 -87 q 719 -152 719 -104 l 719 -190 q 718 -225 719 -210 q 710 -249 716 -240 l 610 -420 z "},"Ň":{"ha":1271,"x_min":139,"x_max":1132,"o":"m 139 0 l 139 972 l 281 972 l 963 289 l 963 972 l 1132 972 l 1132 0 l 990 0 l 308 679 l 308 0 l 139 0 m 558 1031 l 349 1250 l 525 1250 l 636 1117 l 748 1250 l 920 1250 l 709 1031 l 558 1031 z "},"Ō":{"ha":1244,"x_min":118,"x_max":1126,"o":"m 118 792 q 184 946 118 910 q 356 982 251 982 l 888 982 q 1060 946 993 982 q 1126 792 1126 910 l 1126 189 q 1063 28 1126 65 q 888 -10 999 -10 l 356 -10 q 181 28 244 -10 q 118 189 118 66 l 118 792 m 301 813 l 301 160 q 301 160 301 160 q 301 160 301 160 l 943 160 q 943 160 943 160 q 943 160 943 160 l 943 813 q 943 813 943 813 q 943 813 943 813 l 301 813 q 301 813 301 813 q 301 813 301 813 m 389 1093 l 389 1211 l 854 1211 l 854 1093 l 389 1093 z "},"Ŏ":{"ha":1244,"x_min":118,"x_max":1126,"o":"m 118 792 q 184 946 118 910 q 356 982 251 982 l 888 982 q 1060 946 993 982 q 1126 792 1126 910 l 1126 189 q 1063 28 1126 65 q 888 -10 999 -10 l 356 -10 q 181 28 244 -10 q 118 189 118 66 l 118 792 m 301 813 l 301 160 q 301 160 301 160 q 301 160 301 160 l 943 160 q 943 160 943 160 q 943 160 943 160 l 943 813 q 943 813 943 813 q 943 813 943 813 l 301 813 q 301 813 301 813 q 301 813 301 813 m 622 1053 q 518 1064 560 1053 q 449 1098 476 1074 q 411 1161 423 1122 q 400 1260 400 1201 l 517 1260 q 523 1216 517 1233 q 542 1189 529 1199 q 574 1175 554 1178 q 622 1171 594 1171 q 668 1175 649 1171 q 700 1189 688 1178 q 718 1216 713 1199 q 724 1260 724 1233 l 842 1260 q 830 1161 842 1201 q 793 1098 819 1122 q 725 1064 767 1074 q 622 1053 683 1053 z "},"Ő":{"ha":1244,"x_min":118,"x_max":1126,"o":"m 118 792 q 184 946 118 910 q 356 982 251 982 l 888 982 q 1060 946 993 982 q 1126 792 1126 910 l 1126 189 q 1063 28 1126 65 q 888 -10 999 -10 l 356 -10 q 181 28 244 -10 q 118 189 118 66 l 118 792 m 301 813 l 301 160 q 301 160 301 160 q 301 160 301 160 l 943 160 q 943 160 943 160 q 943 160 943 160 l 943 813 q 943 813 943 813 q 943 813 943 813 l 301 813 q 301 813 301 813 q 301 813 301 813 m 367 1041 l 547 1260 l 734 1260 l 526 1041 l 367 1041 m 719 1041 l 899 1260 l 1086 1260 l 878 1041 l 719 1041 z "},"Ǫ":{"ha":1244,"x_min":118,"x_max":1126,"o":"m 118 792 q 184 946 118 910 q 356 982 251 982 l 888 982 q 1060 946 993 982 q 1126 792 1126 910 l 1126 189 q 1063 28 1126 65 q 888 -10 999 -10 l 356 -10 q 181 28 244 -10 q 118 189 118 66 l 118 792 m 301 813 l 301 160 q 301 160 301 160 q 301 160 301 160 l 943 160 q 943 160 943 160 q 943 160 943 160 l 943 813 q 943 813 943 813 q 943 813 943 813 l 301 813 q 301 813 301 813 q 301 813 301 813 m 667 -297 q 538 -264 589 -297 q 487 -167 487 -231 q 524 -68 487 -112 q 622 0 560 -24 l 771 0 q 684 -36 718 -8 q 650 -102 650 -65 q 676 -150 650 -135 q 741 -166 701 -166 q 786 -161 763 -166 q 830 -145 808 -156 l 801 -269 q 736 -290 770 -283 q 667 -297 703 -297 z "},"Ŕ":{"ha":1153,"x_min":139,"x_max":1119,"o":"m 139 0 l 139 972 l 793 972 q 965 936 899 972 q 1032 782 1032 901 l 1032 559 q 973 424 1032 469 q 793 378 913 378 l 733 378 l 1119 0 l 872 0 l 487 378 l 322 378 l 322 0 l 139 0 m 322 548 l 775 548 q 830 562 812 548 q 849 617 849 576 l 849 733 q 830 786 849 770 q 775 803 812 803 l 322 803 l 322 548 m 442 1031 l 641 1250 l 849 1250 l 618 1031 l 442 1031 z "},"Ŗ":{"ha":1153,"x_min":139,"x_max":1119,"o":"m 139 0 l 139 972 l 793 972 q 965 936 899 972 q 1032 782 1032 901 l 1032 559 q 973 424 1032 469 q 793 378 913 378 l 733 378 l 1119 0 l 872 0 l 487 378 l 322 378 l 322 0 l 139 0 m 322 548 l 775 548 q 830 562 812 548 q 849 617 849 576 l 849 733 q 830 786 849 770 q 775 803 812 803 l 322 803 l 322 548 m 603 -420 l 554 -403 l 624 -255 l 608 -255 q 553 -246 562 -255 q 545 -190 545 -237 l 545 -152 q 553 -96 545 -104 q 608 -87 562 -87 l 649 -87 q 705 -96 697 -87 q 713 -152 713 -104 l 713 -190 q 711 -225 713 -210 q 704 -249 710 -240 l 603 -420 z "},"Ř":{"ha":1153,"x_min":139,"x_max":1119,"o":"m 139 0 l 139 972 l 793 972 q 965 936 899 972 q 1032 782 1032 901 l 1032 559 q 973 424 1032 469 q 793 378 913 378 l 733 378 l 1119 0 l 872 0 l 487 378 l 322 378 l 322 0 l 139 0 m 322 548 l 775 548 q 830 562 812 548 q 849 617 849 576 l 849 733 q 830 786 849 770 q 775 803 812 803 l 322 803 l 322 548 m 508 1031 l 299 1250 l 475 1250 l 586 1117 l 698 1250 l 870 1250 l 659 1031 l 508 1031 z "},"Ś":{"ha":1106,"x_min":83,"x_max":1015,"o":"m 83 253 l 258 289 l 258 160 q 258 160 258 160 q 258 160 258 160 l 840 160 q 840 160 840 160 q 840 160 840 160 l 840 407 q 840 407 840 407 q 840 407 840 407 l 342 407 q 243 415 287 407 q 168 445 199 424 q 120 507 137 467 q 104 607 104 546 l 104 792 q 122 889 104 851 q 170 947 139 926 q 245 975 201 967 q 342 982 289 982 l 763 982 q 860 975 816 982 q 935 947 903 967 q 984 889 967 926 q 1001 792 1001 851 l 1001 722 l 826 688 l 826 813 q 826 813 826 813 q 826 813 826 813 l 279 813 q 279 813 279 813 q 279 813 279 813 l 279 576 q 279 576 279 576 q 279 576 279 576 l 776 576 q 874 569 830 576 q 949 541 917 562 q 998 483 981 520 q 1015 386 1015 446 l 1015 189 q 952 28 1015 66 q 776 -10 888 -10 l 321 -10 q 222 -2 266 -10 q 147 28 178 6 q 100 89 116 50 q 83 189 83 128 l 83 253 m 406 1041 l 606 1260 l 814 1260 l 583 1041 l 406 1041 z "},"Ŝ":{"ha":1106,"x_min":83,"x_max":1015,"o":"m 83 253 l 258 289 l 258 160 q 258 160 258 160 q 258 160 258 160 l 840 160 q 840 160 840 160 q 840 160 840 160 l 840 407 q 840 407 840 407 q 840 407 840 407 l 342 407 q 243 415 287 407 q 168 445 199 424 q 120 507 137 467 q 104 607 104 546 l 104 792 q 122 889 104 851 q 170 947 139 926 q 245 975 201 967 q 342 982 289 982 l 763 982 q 860 975 816 982 q 935 947 903 967 q 984 889 967 926 q 1001 792 1001 851 l 1001 722 l 826 688 l 826 813 q 826 813 826 813 q 826 813 826 813 l 279 813 q 279 813 279 813 q 279 813 279 813 l 279 576 q 279 576 279 576 q 279 576 279 576 l 776 576 q 874 569 830 576 q 949 541 917 562 q 998 483 981 520 q 1015 386 1015 446 l 1015 189 q 952 28 1015 66 q 776 -10 888 -10 l 321 -10 q 222 -2 266 -10 q 147 28 178 6 q 100 89 116 50 q 83 189 83 128 l 83 253 m 265 1041 l 476 1260 l 626 1260 l 836 1041 l 660 1041 l 549 1174 l 437 1041 l 265 1041 z "},"Ş":{"ha":1106,"x_min":83,"x_max":1015,"o":"m 83 253 l 258 289 l 258 160 q 258 160 258 160 q 258 160 258 160 l 840 160 q 840 160 840 160 q 840 160 840 160 l 840 407 q 840 407 840 407 q 840 407 840 407 l 342 407 q 243 415 287 407 q 168 445 199 424 q 120 507 137 467 q 104 607 104 546 l 104 792 q 122 889 104 851 q 170 947 139 926 q 245 975 201 967 q 342 982 289 982 l 763 982 q 860 975 816 982 q 935 947 903 967 q 984 889 967 926 q 1001 792 1001 851 l 1001 722 l 826 688 l 826 813 q 826 813 826 813 q 826 813 826 813 l 279 813 q 279 813 279 813 q 279 813 279 813 l 279 576 q 279 576 279 576 q 279 576 279 576 l 776 576 q 874 569 830 576 q 949 541 917 562 q 998 483 981 520 q 1015 386 1015 446 l 1015 189 q 952 28 1015 66 q 776 -10 888 -10 l 321 -10 q 222 -2 266 -10 q 147 28 178 6 q 100 89 116 50 q 83 189 83 128 l 83 253 m 537 -314 q 473 -306 502 -314 q 420 -279 444 -297 l 451 -226 q 475 -236 460 -232 q 506 -240 491 -240 q 544 -228 531 -240 q 557 -197 557 -217 q 543 -166 557 -176 q 504 -156 530 -156 q 474 -158 490 -156 q 442 -166 458 -161 l 519 1 l 579 1 l 540 -85 q 643 -113 608 -85 q 678 -195 678 -141 q 641 -283 678 -251 q 537 -314 604 -314 z "},"Š":{"ha":1106,"x_min":83,"x_max":1015,"o":"m 83 253 l 258 289 l 258 160 q 258 160 258 160 q 258 160 258 160 l 840 160 q 840 160 840 160 q 840 160 840 160 l 840 407 q 840 407 840 407 q 840 407 840 407 l 342 407 q 243 415 287 407 q 168 445 199 424 q 120 507 137 467 q 104 607 104 546 l 104 792 q 122 889 104 851 q 170 947 139 926 q 245 975 201 967 q 342 982 289 982 l 763 982 q 860 975 816 982 q 935 947 903 967 q 984 889 967 926 q 1001 792 1001 851 l 1001 722 l 826 688 l 826 813 q 826 813 826 813 q 826 813 826 813 l 279 813 q 279 813 279 813 q 279 813 279 813 l 279 576 q 279 576 279 576 q 279 576 279 576 l 776 576 q 874 569 830 576 q 949 541 917 562 q 998 483 981 520 q 1015 386 1015 446 l 1015 189 q 952 28 1015 66 q 776 -10 888 -10 l 321 -10 q 222 -2 266 -10 q 147 28 178 6 q 100 89 116 50 q 83 189 83 128 l 83 253 m 473 1041 l 263 1260 l 440 1260 l 551 1126 l 663 1260 l 835 1260 l 624 1041 l 473 1041 z "},"Ţ":{"ha":983,"x_min":14,"x_max":969,"o":"m 400 0 l 400 803 l 14 803 l 14 972 l 969 972 l 969 803 l 583 803 l 583 0 l 400 0 m 479 -304 q 416 -296 444 -304 q 363 -269 387 -287 l 393 -217 q 418 -226 402 -222 q 448 -230 433 -230 q 486 -218 473 -230 q 499 -187 499 -207 q 486 -156 499 -167 q 447 -146 472 -146 q 417 -149 433 -146 q 385 -156 401 -151 l 462 10 l 522 10 l 482 -75 q 585 -103 551 -76 q 620 -185 620 -131 q 583 -273 620 -242 q 479 -304 547 -304 z "},"Ť":{"ha":983,"x_min":14,"x_max":969,"o":"m 400 0 l 400 803 l 14 803 l 14 972 l 969 972 l 969 803 l 583 803 l 583 0 l 400 0 m 415 1031 l 205 1250 l 381 1250 l 492 1117 l 604 1250 l 776 1250 l 565 1031 l 415 1031 z "},"Ŧ":{"ha":983,"x_min":14,"x_max":969,"o":"m 400 0 l 400 422 l 301 422 l 301 578 l 400 578 l 400 803 l 14 803 l 14 972 l 969 972 l 969 803 l 583 803 l 583 578 l 683 578 l 683 422 l 583 422 l 583 0 l 400 0 z "},"Ũ":{"ha":1178,"x_min":128,"x_max":1049,"o":"m 128 972 l 312 972 l 312 167 q 312 167 312 167 q 312 167 312 167 l 866 167 q 866 167 866 167 q 866 167 866 167 l 866 972 l 1049 972 l 1049 189 q 986 28 1049 66 q 810 -10 922 -10 l 366 -10 q 267 -2 311 -10 q 192 28 223 6 q 145 89 161 50 q 128 189 128 128 l 128 972 m 306 1076 q 334 1159 315 1126 q 380 1210 354 1191 q 433 1236 405 1228 q 488 1243 461 1243 q 548 1234 519 1243 q 602 1216 577 1226 q 650 1197 628 1206 q 691 1188 672 1188 q 730 1197 711 1188 q 756 1243 748 1206 l 872 1223 q 843 1140 863 1172 q 798 1089 824 1108 q 745 1063 773 1070 q 690 1056 717 1056 q 630 1064 658 1056 q 575 1083 601 1073 q 528 1102 550 1093 q 487 1110 506 1110 q 448 1102 467 1110 q 422 1056 430 1093 l 306 1076 z "},"Ū":{"ha":1178,"x_min":128,"x_max":1049,"o":"m 128 972 l 312 972 l 312 167 q 312 167 312 167 q 312 167 312 167 l 866 167 q 866 167 866 167 q 866 167 866 167 l 866 972 l 1049 972 l 1049 189 q 986 28 1049 66 q 810 -10 922 -10 l 366 -10 q 267 -2 311 -10 q 192 28 223 6 q 145 89 161 50 q 128 189 128 128 l 128 972 m 356 1083 l 356 1201 l 822 1201 l 822 1083 l 356 1083 z "},"Ŭ":{"ha":1178,"x_min":128,"x_max":1049,"o":"m 128 972 l 312 972 l 312 167 q 312 167 312 167 q 312 167 312 167 l 866 167 q 866 167 866 167 q 866 167 866 167 l 866 972 l 1049 972 l 1049 189 q 986 28 1049 66 q 810 -10 922 -10 l 366 -10 q 267 -2 311 -10 q 192 28 223 6 q 145 89 161 50 q 128 189 128 128 l 128 972 m 589 1044 q 485 1054 528 1044 q 417 1088 443 1064 q 379 1151 390 1112 q 367 1250 367 1191 l 485 1250 q 491 1206 485 1223 q 509 1179 497 1189 q 541 1165 522 1169 q 589 1161 561 1161 q 635 1165 616 1161 q 667 1179 655 1169 q 686 1206 680 1189 q 692 1250 692 1223 l 809 1250 q 798 1151 809 1191 q 760 1088 786 1112 q 692 1054 734 1064 q 589 1044 650 1044 z "},"Ů":{"ha":1178,"x_min":128,"x_max":1049,"o":"m 128 972 l 312 972 l 312 167 q 312 167 312 167 q 312 167 312 167 l 866 167 q 866 167 866 167 q 866 167 866 167 l 866 972 l 1049 972 l 1049 189 q 986 28 1049 66 q 810 -10 922 -10 l 366 -10 q 267 -2 311 -10 q 192 28 223 6 q 145 89 161 50 q 128 189 128 128 l 128 972 m 589 1022 q 513 1028 542 1022 q 468 1048 484 1033 q 447 1090 453 1063 q 442 1161 442 1117 q 447 1232 442 1205 q 468 1274 453 1258 q 513 1294 484 1289 q 589 1299 542 1299 q 665 1294 636 1299 q 709 1274 694 1289 q 731 1232 725 1258 q 736 1161 736 1205 q 731 1090 736 1117 q 709 1048 725 1063 q 665 1028 694 1033 q 589 1022 636 1022 m 589 1108 q 631 1120 622 1108 q 639 1161 639 1132 q 631 1201 639 1190 q 589 1213 622 1213 q 547 1201 555 1213 q 539 1161 539 1190 q 547 1120 539 1132 q 589 1108 555 1108 z "},"Ű":{"ha":1178,"x_min":128,"x_max":1053,"o":"m 128 972 l 312 972 l 312 167 q 312 167 312 167 q 312 167 312 167 l 866 167 q 866 167 866 167 q 866 167 866 167 l 866 972 l 1049 972 l 1049 189 q 986 28 1049 66 q 810 -10 922 -10 l 366 -10 q 267 -2 311 -10 q 192 28 223 6 q 145 89 161 50 q 128 189 128 128 l 128 972 m 335 1031 l 514 1250 l 701 1250 l 493 1031 l 335 1031 m 687 1031 l 866 1250 l 1053 1250 l 845 1031 l 687 1031 z "},"Ų":{"ha":1178,"x_min":128,"x_max":1049,"o":"m 128 972 l 312 972 l 312 167 q 312 167 312 167 q 312 167 312 167 l 866 167 q 866 167 866 167 q 866 167 866 167 l 866 972 l 1049 972 l 1049 189 q 986 28 1049 66 q 810 -10 922 -10 l 366 -10 q 267 -2 311 -10 q 192 28 223 6 q 145 89 161 50 q 128 189 128 128 l 128 972 m 633 -297 q 505 -264 556 -297 q 453 -167 453 -231 q 490 -68 453 -112 q 588 0 527 -24 l 738 0 q 651 -36 685 -8 q 617 -102 617 -65 q 642 -150 617 -135 q 708 -166 668 -166 q 752 -161 730 -166 q 797 -145 775 -156 l 767 -269 q 703 -290 737 -283 q 633 -297 669 -297 z "},"Ŵ":{"ha":1371,"x_min":0,"x_max":1371,"o":"m 328 0 l 0 972 l 210 972 l 412 340 l 624 972 l 767 972 l 983 336 l 1194 972 l 1371 972 l 1038 0 l 899 0 l 681 626 l 467 0 l 328 0 m 400 1031 l 611 1250 l 762 1250 l 972 1031 l 795 1031 l 684 1165 l 572 1031 l 400 1031 z "},"Ŷ":{"ha":1088,"x_min":0,"x_max":1088,"o":"m 461 0 l 461 425 l 0 972 l 263 972 l 560 593 l 860 972 l 1088 972 l 644 426 l 644 0 l 461 0 m 258 1031 l 469 1250 l 620 1250 l 830 1031 l 653 1031 l 542 1165 l 431 1031 l 258 1031 z "},"Ź":{"ha":992,"x_min":49,"x_max":933,"o":"m 49 0 l 49 85 l 647 812 l 650 806 l 107 806 l 107 972 l 932 972 l 932 888 l 333 160 l 331 167 l 933 167 l 933 0 l 49 0 m 394 1031 l 593 1250 l 801 1250 l 570 1031 l 394 1031 z "},"Ż":{"ha":992,"x_min":49,"x_max":933,"o":"m 49 0 l 49 85 l 647 812 l 650 806 l 107 806 l 107 972 l 932 972 l 932 888 l 333 160 l 331 167 l 933 167 l 933 0 l 49 0 m 515 1071 q 458 1080 467 1071 q 449 1138 449 1088 l 449 1183 q 458 1241 449 1232 q 515 1249 467 1249 l 560 1249 q 617 1241 608 1249 q 626 1183 626 1232 l 626 1138 q 617 1080 626 1088 q 560 1071 608 1071 l 515 1071 z "},"Ơ":{"ha":1244,"x_min":118,"x_max":1283,"o":"m 118 792 q 184 946 118 910 q 356 982 251 982 l 888 982 q 1060 946 993 982 q 1126 792 1126 910 l 1126 189 q 1063 28 1126 65 q 888 -10 999 -10 l 356 -10 q 181 28 244 -10 q 118 189 118 66 l 118 792 m 301 813 l 301 160 q 301 160 301 160 q 301 160 301 160 l 943 160 q 943 160 943 160 q 943 160 943 160 l 943 813 q 943 813 943 813 q 943 813 943 813 l 301 813 q 301 813 301 813 q 301 813 301 813 m 1045 867 l 1045 947 l 1052 947 q 1126 975 1103 947 q 1149 1071 1149 1004 q 1147 1123 1149 1094 q 1139 1184 1144 1151 l 1267 1208 q 1279 1127 1275 1165 q 1283 1058 1283 1090 q 1270 969 1283 1004 q 1230 911 1258 933 q 1158 880 1202 890 q 1052 867 1115 870 l 1052 867 l 1045 867 z "},"Ư":{"ha":1178,"x_min":128,"x_max":1189,"o":"m 128 972 l 312 972 l 312 167 q 312 167 312 167 q 312 167 312 167 l 866 167 q 866 167 866 167 q 866 167 866 167 l 866 972 l 1049 972 l 1049 189 q 986 28 1049 66 q 810 -10 922 -10 l 366 -10 q 267 -2 311 -10 q 192 28 223 6 q 145 89 161 50 q 128 189 128 128 l 128 972 m 951 893 l 951 972 l 958 972 q 1032 1001 1009 972 q 1055 1097 1055 1030 q 1052 1148 1055 1120 q 1044 1210 1050 1176 l 1173 1234 q 1185 1153 1181 1190 q 1189 1084 1189 1116 q 1176 994 1189 1030 q 1135 937 1163 959 q 1064 906 1108 915 q 958 893 1020 896 l 958 893 l 951 893 z "},"Ǆ":{"ha":2222,"x_min":139,"x_max":2163,"o":"m 322 169 l 686 169 q 807 186 755 169 q 895 242 860 203 q 949 342 931 281 q 967 493 967 404 q 948 638 967 578 q 894 733 930 697 q 806 786 858 770 q 686 803 754 803 l 322 803 l 322 169 m 139 0 l 139 972 l 697 972 q 879 942 794 972 q 1026 852 963 913 q 1124 700 1088 792 q 1160 486 1160 609 q 1123 263 1160 356 q 1024 113 1087 171 q 877 27 962 54 q 697 0 793 0 l 139 0 m 1278 0 l 1278 85 l 1876 812 l 1879 806 l 1336 806 l 1336 972 l 2161 972 l 2161 888 l 1563 160 l 1560 167 l 2163 167 l 2163 0 l 1278 0 m 1690 1031 l 1480 1250 l 1656 1250 l 1767 1117 l 1879 1250 l 2051 1250 l 1840 1031 l 1690 1031 z "},"Ǉ":{"ha":2009,"x_min":139,"x_max":1881,"o":"m 139 0 l 139 972 l 322 972 l 322 169 l 953 169 l 953 0 l 139 0 m 1881 972 l 1881 181 q 1825 34 1881 78 q 1643 -10 1770 -10 l 1276 -10 q 1093 34 1149 -10 q 1038 181 1038 78 l 1038 408 l 1221 447 l 1221 160 q 1221 160 1221 160 q 1221 160 1221 160 l 1697 160 q 1697 160 1697 160 q 1697 160 1697 160 l 1697 972 l 1881 972 z "},"Ǌ":{"ha":2313,"x_min":139,"x_max":2185,"o":"m 139 0 l 139 972 l 281 972 l 963 289 l 963 972 l 1132 972 l 1132 0 l 990 0 l 308 679 l 308 0 l 139 0 m 2185 972 l 2185 181 q 2130 34 2185 78 q 1947 -10 2074 -10 l 1581 -10 q 1397 34 1453 -10 q 1342 181 1342 78 l 1342 408 l 1525 447 l 1525 160 q 1525 160 1525 160 q 1525 160 1525 160 l 2001 160 q 2001 160 2001 160 q 2001 160 2001 160 l 2001 972 l 2185 972 z "},"ǅ":{"ha":2015,"x_min":139,"x_max":1961,"o":"m 322 169 l 686 169 q 807 186 755 169 q 895 242 860 203 q 949 342 931 281 q 967 493 967 404 q 948 638 967 578 q 894 733 930 697 q 806 786 858 770 q 686 803 754 803 l 322 803 l 322 169 m 139 0 l 139 972 l 697 972 q 879 942 794 972 q 1026 852 963 913 q 1124 700 1088 792 q 1160 486 1160 609 q 1123 263 1160 356 q 1024 113 1087 171 q 877 27 962 54 q 697 0 793 0 l 139 0 m 1283 0 l 1283 61 l 1698 564 l 1692 549 l 1325 549 l 1325 694 l 1957 694 l 1957 633 l 1541 126 l 1548 145 l 1961 145 l 1961 0 l 1283 0 m 1567 753 l 1358 1006 l 1515 1006 l 1626 853 l 1738 1006 l 1890 1006 l 1679 753 l 1567 753 z "},"ǈ":{"ha":1389,"x_min":139,"x_max":1269,"o":"m 139 0 l 139 972 l 322 972 l 322 169 l 953 169 l 953 0 l 139 0 m 771 -142 l 1092 -142 q 1092 -142 1092 -142 q 1092 -142 1092 -142 l 1092 694 l 1264 694 l 1264 -121 q 1252 -223 1264 -187 q 1214 -275 1240 -258 q 1146 -294 1188 -292 q 1046 -297 1105 -297 l 806 -297 l 771 -142 m 1086 854 l 1086 911 q 1094 964 1086 956 q 1149 972 1103 972 l 1207 972 q 1261 964 1253 972 q 1269 911 1269 956 l 1269 854 q 1261 800 1269 808 q 1207 792 1253 792 l 1149 792 q 1094 800 1103 792 q 1086 854 1086 808 z "},"ǋ":{"ha":1693,"x_min":139,"x_max":1574,"o":"m 139 0 l 139 972 l 281 972 l 963 289 l 963 972 l 1132 972 l 1132 0 l 990 0 l 308 679 l 308 0 l 139 0 m 1075 -142 l 1396 -142 q 1396 -142 1396 -142 q 1396 -142 1396 -142 l 1396 694 l 1568 694 l 1568 -121 q 1556 -223 1568 -187 q 1518 -275 1544 -258 q 1450 -294 1492 -292 q 1350 -297 1409 -297 l 1110 -297 l 1075 -142 m 1390 854 l 1390 911 q 1399 964 1390 956 q 1453 972 1407 972 l 1511 972 q 1565 964 1557 972 q 1574 911 1574 956 l 1574 854 q 1565 800 1574 808 q 1511 792 1557 792 l 1453 792 q 1399 800 1407 792 q 1390 854 1390 808 z "},"ǆ":{"ha":1768,"x_min":106,"x_max":1714,"o":"m 106 142 l 106 560 q 147 668 106 635 q 283 701 188 701 l 518 701 q 629 683 588 701 q 685 625 670 664 l 685 1006 l 857 1006 l 857 0 l 685 0 l 685 69 q 629 12 670 31 q 518 -7 588 -7 l 283 -7 q 146 27 187 -7 q 106 142 106 61 m 685 546 l 278 546 q 278 546 278 546 q 278 546 278 546 l 278 149 q 278 149 278 149 q 278 149 278 149 l 685 149 l 685 546 m 1036 0 l 1036 61 l 1451 564 l 1445 549 l 1078 549 l 1078 694 l 1710 694 l 1710 633 l 1294 126 l 1301 145 l 1714 145 l 1714 0 l 1036 0 m 1320 753 l 1110 1006 l 1267 1006 l 1378 853 l 1490 1006 l 1643 1006 l 1432 753 l 1320 753 z "},"ǉ":{"ha":844,"x_min":125,"x_max":725,"o":"m 125 0 l 125 1006 l 297 1006 l 297 0 l 125 0 m 226 -142 l 547 -142 q 547 -142 547 -142 q 547 -142 547 -142 l 547 694 l 719 694 l 719 -121 q 707 -223 719 -187 q 669 -275 695 -258 q 602 -294 643 -292 q 501 -297 560 -297 l 261 -297 l 226 -142 m 542 854 l 542 911 q 550 964 542 956 q 604 972 558 972 l 663 972 q 717 964 708 972 q 725 911 725 956 l 725 854 q 717 800 725 808 q 663 792 708 792 l 604 792 q 550 800 558 792 q 542 854 542 808 z "},"ǌ":{"ha":1379,"x_min":125,"x_max":1260,"o":"m 125 0 l 125 694 l 297 694 l 297 629 q 365 683 318 665 q 493 701 411 701 l 621 701 q 790 661 739 701 q 842 528 842 621 l 842 0 l 669 0 l 669 546 q 669 546 669 546 q 669 546 669 546 l 297 546 l 297 0 l 125 0 m 761 -142 l 1082 -142 q 1082 -142 1082 -142 q 1082 -142 1082 -142 l 1082 694 l 1254 694 l 1254 -121 q 1242 -223 1254 -187 q 1204 -275 1230 -258 q 1136 -294 1178 -292 q 1036 -297 1095 -297 l 796 -297 l 761 -142 m 1076 854 l 1076 911 q 1085 964 1076 956 q 1139 972 1093 972 l 1197 972 q 1251 964 1243 972 q 1260 911 1260 956 l 1260 854 q 1251 800 1260 808 q 1197 792 1243 792 l 1139 792 q 1085 800 1093 792 q 1076 854 1076 808 z "},"ā":{"ha":936,"x_min":99,"x_max":821,"o":"m 269 -7 q 144 20 189 -7 q 99 135 99 47 l 99 281 q 160 391 99 366 q 297 415 222 415 l 649 415 l 649 560 q 649 560 649 560 q 649 560 649 560 l 281 560 q 281 560 281 560 q 281 560 281 560 l 281 499 l 108 531 l 108 565 q 156 676 108 651 q 279 701 203 701 l 650 701 q 774 676 726 701 q 821 565 821 651 l 821 0 l 649 0 l 649 104 q 580 17 631 40 q 467 -7 530 -7 l 269 -7 m 271 135 q 271 135 271 135 q 271 135 271 135 l 649 135 l 649 274 l 271 274 q 271 274 271 274 q 271 274 271 274 l 271 135 m 234 823 l 234 934 l 699 934 l 699 823 l 234 823 z "},"ă":{"ha":936,"x_min":99,"x_max":821,"o":"m 269 -7 q 144 20 189 -7 q 99 135 99 47 l 99 281 q 160 391 99 366 q 297 415 222 415 l 649 415 l 649 560 q 649 560 649 560 q 649 560 649 560 l 281 560 q 281 560 281 560 q 281 560 281 560 l 281 499 l 108 531 l 108 565 q 156 676 108 651 q 279 701 203 701 l 650 701 q 774 676 726 701 q 821 565 821 651 l 821 0 l 649 0 l 649 104 q 580 17 631 40 q 467 -7 530 -7 l 269 -7 m 271 135 q 271 135 271 135 q 271 135 271 135 l 649 135 l 649 274 l 271 274 q 271 274 271 274 q 271 274 271 274 l 271 135 m 467 766 q 369 775 408 766 q 307 809 330 785 q 275 875 284 833 q 265 979 265 916 l 373 979 q 377 926 373 947 q 391 894 381 906 q 419 878 401 883 q 467 874 438 874 q 513 878 495 874 q 541 894 531 883 q 555 926 551 906 q 559 979 559 947 l 667 979 q 658 875 667 916 q 626 809 649 833 q 564 775 603 785 q 467 766 526 766 z "},"ą":{"ha":936,"x_min":99,"x_max":838,"o":"m 269 -7 q 144 20 189 -7 q 99 135 99 47 l 99 281 q 160 391 99 366 q 297 415 222 415 l 649 415 l 649 560 q 649 560 649 560 q 649 560 649 560 l 281 560 q 281 560 281 560 q 281 560 281 560 l 281 499 l 108 531 l 108 565 q 156 676 108 651 q 279 701 203 701 l 650 701 q 774 676 726 701 q 821 565 821 651 l 821 0 l 649 0 l 649 104 q 580 17 631 40 q 467 -7 530 -7 l 269 -7 m 271 135 q 271 135 271 135 q 271 135 271 135 l 649 135 l 649 274 l 271 274 q 271 274 271 274 q 271 274 271 274 l 271 135 m 690 -297 q 573 -264 619 -297 q 526 -167 526 -231 q 560 -68 526 -112 q 649 0 593 -24 l 785 0 q 706 -36 737 -8 q 675 -102 675 -65 q 699 -150 675 -135 q 758 -166 722 -166 q 798 -161 778 -166 q 838 -145 819 -156 l 812 -269 q 753 -290 784 -283 q 690 -297 723 -297 z "},"ć":{"ha":931,"x_min":106,"x_max":851,"o":"m 106 142 l 106 560 q 147 669 106 636 q 283 701 188 701 l 671 701 q 808 669 767 701 q 849 560 849 636 l 849 486 l 676 453 l 676 546 q 676 546 676 546 q 676 546 676 546 l 278 546 q 278 546 278 546 q 278 546 278 546 l 278 149 q 278 149 278 149 q 278 149 278 149 l 679 149 q 679 149 679 149 q 679 149 679 149 l 679 249 l 851 213 l 851 142 q 811 27 851 61 q 674 -7 771 -7 l 283 -7 q 146 27 186 -7 q 106 142 106 61 m 326 753 l 543 1006 l 720 1006 l 483 753 l 326 753 z "},"ĉ":{"ha":931,"x_min":106,"x_max":851,"o":"m 106 142 l 106 560 q 147 669 106 636 q 283 701 188 701 l 671 701 q 808 669 767 701 q 849 560 849 636 l 849 486 l 676 453 l 676 546 q 676 546 676 546 q 676 546 676 546 l 278 546 q 278 546 278 546 q 278 546 278 546 l 278 149 q 278 149 278 149 q 278 149 278 149 l 679 149 q 679 149 679 149 q 679 149 679 149 l 679 249 l 851 213 l 851 142 q 811 27 851 61 q 674 -7 771 -7 l 283 -7 q 146 27 186 -7 q 106 142 106 61 m 211 753 l 422 1006 l 534 1006 l 744 753 l 587 753 l 476 906 l 364 753 l 211 753 z "},"ċ":{"ha":931,"x_min":106,"x_max":851,"o":"m 106 142 l 106 560 q 147 669 106 636 q 283 701 188 701 l 671 701 q 808 669 767 701 q 849 560 849 636 l 849 486 l 676 453 l 676 546 q 676 546 676 546 q 676 546 676 546 l 278 546 q 278 546 278 546 q 278 546 278 546 l 278 149 q 278 149 278 149 q 278 149 278 149 l 679 149 q 679 149 679 149 q 679 149 679 149 l 679 249 l 851 213 l 851 142 q 811 27 851 61 q 674 -7 771 -7 l 283 -7 q 146 27 186 -7 q 106 142 106 61 m 456 800 q 402 808 410 800 q 394 861 394 816 l 394 904 q 402 957 394 949 q 456 965 410 965 l 498 965 q 552 957 544 965 q 560 904 560 949 l 560 861 q 552 808 560 816 q 498 800 544 800 l 456 800 z "},"č":{"ha":931,"x_min":106,"x_max":851,"o":"m 106 142 l 106 560 q 147 669 106 636 q 283 701 188 701 l 671 701 q 808 669 767 701 q 849 560 849 636 l 849 486 l 676 453 l 676 546 q 676 546 676 546 q 676 546 676 546 l 278 546 q 278 546 278 546 q 278 546 278 546 l 278 149 q 278 149 278 149 q 278 149 278 149 l 679 149 q 679 149 679 149 q 679 149 679 149 l 679 249 l 851 213 l 851 142 q 811 27 851 61 q 674 -7 771 -7 l 283 -7 q 146 27 186 -7 q 106 142 106 61 m 422 753 l 212 1006 l 369 1006 l 480 853 l 592 1006 l 744 1006 l 533 753 l 422 753 z "},"ď":{"ha":982,"x_min":106,"x_max":1101,"o":"m 106 142 l 106 560 q 147 668 106 635 q 283 701 188 701 l 518 701 q 629 683 588 701 q 685 625 670 664 l 685 1006 l 857 1006 l 857 0 l 685 0 l 685 69 q 629 12 670 31 q 518 -7 588 -7 l 283 -7 q 146 27 187 -7 q 106 142 106 61 m 685 546 l 278 546 q 278 546 278 546 q 278 546 278 546 l 278 149 q 278 149 278 149 q 278 149 278 149 l 685 149 l 685 546 m 933 771 l 970 1006 l 1101 1006 l 1061 799 l 933 771 z "},"đ":{"ha":996,"x_min":106,"x_max":985,"o":"m 283 -7 q 146 27 187 -7 q 106 142 106 61 l 106 560 q 147 668 106 635 q 283 701 188 701 l 518 701 q 629 683 588 701 q 685 625 670 664 l 685 766 l 438 766 l 438 908 l 685 908 l 685 1006 l 857 1006 l 857 908 l 985 908 l 985 766 l 857 766 l 857 0 l 685 0 l 685 69 q 629 12 670 31 q 518 -7 588 -7 l 283 -7 m 685 546 l 278 546 q 278 546 278 546 q 278 546 278 546 l 278 149 q 278 149 278 149 q 278 149 278 149 l 685 149 l 685 546 z "},"ē":{"ha":956,"x_min":106,"x_max":850,"o":"m 106 174 l 106 549 q 152 662 106 623 q 293 701 198 701 l 661 701 q 803 661 756 701 q 850 546 850 622 l 850 279 l 278 279 l 278 135 q 278 135 278 135 q 278 135 278 135 l 678 135 q 678 135 678 135 q 678 135 678 135 l 678 211 l 850 181 l 850 174 q 799 35 850 76 q 629 -7 749 -7 l 313 -7 q 157 34 208 -7 q 106 174 106 75 m 278 421 l 678 421 l 678 560 q 678 560 678 560 q 678 560 678 560 l 278 560 q 278 560 278 560 q 278 560 278 560 l 278 421 m 244 823 l 244 934 l 710 934 l 710 823 l 244 823 z "},"ĕ":{"ha":956,"x_min":106,"x_max":850,"o":"m 106 174 l 106 549 q 152 662 106 623 q 293 701 198 701 l 661 701 q 803 661 756 701 q 850 546 850 622 l 850 279 l 278 279 l 278 135 q 278 135 278 135 q 278 135 278 135 l 678 135 q 678 135 678 135 q 678 135 678 135 l 678 211 l 850 181 l 850 174 q 799 35 850 76 q 629 -7 749 -7 l 313 -7 q 157 34 208 -7 q 106 174 106 75 m 278 421 l 678 421 l 678 560 q 678 560 678 560 q 678 560 678 560 l 278 560 q 278 560 278 560 q 278 560 278 560 l 278 421 m 477 766 q 379 775 418 766 q 317 809 340 785 q 285 875 294 833 q 276 979 276 916 l 383 979 q 387 926 383 947 q 401 894 391 906 q 430 878 412 883 q 477 874 448 874 q 523 878 506 874 q 551 894 541 883 q 566 926 562 906 q 569 979 569 947 l 677 979 q 668 875 677 916 q 636 809 659 833 q 575 775 613 785 q 477 766 536 766 z "},"ė":{"ha":956,"x_min":106,"x_max":850,"o":"m 106 174 l 106 549 q 152 662 106 623 q 293 701 198 701 l 661 701 q 803 661 756 701 q 850 546 850 622 l 850 279 l 278 279 l 278 135 q 278 135 278 135 q 278 135 278 135 l 678 135 q 678 135 678 135 q 678 135 678 135 l 678 211 l 850 181 l 850 174 q 799 35 850 76 q 629 -7 749 -7 l 313 -7 q 157 34 208 -7 q 106 174 106 75 m 278 421 l 678 421 l 678 560 q 678 560 678 560 q 678 560 678 560 l 278 560 q 278 560 278 560 q 278 560 278 560 l 278 421 m 456 800 q 402 808 410 800 q 394 861 394 816 l 394 904 q 402 957 394 949 q 456 965 410 965 l 498 965 q 552 957 544 965 q 560 904 560 949 l 560 861 q 552 808 560 816 q 498 800 544 800 l 456 800 z "},"ę":{"ha":956,"x_min":106,"x_max":850,"o":"m 106 174 l 106 549 q 152 662 106 623 q 293 701 198 701 l 661 701 q 803 661 756 701 q 850 546 850 622 l 850 279 l 278 279 l 278 135 q 278 135 278 135 q 278 135 278 135 l 678 135 q 678 135 678 135 q 678 135 678 135 l 678 211 l 850 181 l 850 174 q 799 35 850 76 q 629 -7 749 -7 l 313 -7 q 157 34 208 -7 q 106 174 106 75 m 278 421 l 678 421 l 678 560 q 678 560 678 560 q 678 560 678 560 l 278 560 q 278 560 278 560 q 278 560 278 560 l 278 421 m 512 -297 q 395 -264 441 -297 q 349 -167 349 -231 q 382 -68 349 -112 q 471 0 415 -24 l 607 0 q 528 -36 559 -8 q 497 -102 497 -65 q 521 -150 497 -135 q 580 -166 544 -166 q 620 -161 600 -166 q 660 -145 641 -156 l 634 -269 q 576 -290 606 -283 q 512 -297 545 -297 z "},"ě":{"ha":956,"x_min":106,"x_max":850,"o":"m 106 174 l 106 549 q 152 662 106 623 q 293 701 198 701 l 661 701 q 803 661 756 701 q 850 546 850 622 l 850 279 l 278 279 l 278 135 q 278 135 278 135 q 278 135 278 135 l 678 135 q 678 135 678 135 q 678 135 678 135 l 678 211 l 850 181 l 850 174 q 799 35 850 76 q 629 -7 749 -7 l 313 -7 q 157 34 208 -7 q 106 174 106 75 m 278 421 l 678 421 l 678 560 q 678 560 678 560 q 678 560 678 560 l 278 560 q 278 560 278 560 q 278 560 278 560 l 278 421 m 422 753 l 212 1006 l 369 1006 l 480 853 l 592 1006 l 744 1006 l 533 753 l 422 753 z "},"ĝ":{"ha":972,"x_min":106,"x_max":857,"o":"m 278 149 q 278 149 278 149 q 278 149 278 149 l 685 149 l 685 546 l 278 546 q 278 546 278 546 q 278 546 278 546 l 278 149 m 151 -297 l 119 -142 l 685 -142 q 685 -142 685 -142 q 685 -142 685 -142 l 685 69 q 629 12 670 31 q 518 -7 588 -7 l 283 -7 q 146 27 187 -7 q 106 142 106 61 l 106 560 q 147 668 106 635 q 283 701 188 701 l 518 701 q 629 683 588 701 q 685 625 670 664 l 685 694 l 857 694 l 857 -121 q 845 -216 857 -181 q 807 -269 833 -251 q 739 -292 781 -287 q 639 -297 698 -297 l 151 -297 m 233 753 l 444 1006 l 556 1006 l 765 753 l 608 753 l 497 906 l 385 753 l 233 753 z "},"ğ":{"ha":972,"x_min":106,"x_max":857,"o":"m 278 149 q 278 149 278 149 q 278 149 278 149 l 685 149 l 685 546 l 278 546 q 278 546 278 546 q 278 546 278 546 l 278 149 m 151 -297 l 119 -142 l 685 -142 q 685 -142 685 -142 q 685 -142 685 -142 l 685 69 q 629 12 670 31 q 518 -7 588 -7 l 283 -7 q 146 27 187 -7 q 106 142 106 61 l 106 560 q 147 668 106 635 q 283 701 188 701 l 518 701 q 629 683 588 701 q 685 625 670 664 l 685 694 l 857 694 l 857 -121 q 845 -216 857 -181 q 807 -269 833 -251 q 739 -292 781 -287 q 639 -297 698 -297 l 151 -297 m 499 766 q 401 775 440 766 q 339 809 362 785 q 307 875 316 833 q 297 979 297 916 l 405 979 q 409 926 405 947 q 423 894 413 906 q 451 878 433 883 q 499 874 469 874 q 545 878 527 874 q 573 894 563 883 q 587 926 583 906 q 591 979 591 947 l 699 979 q 690 875 699 916 q 658 809 681 833 q 596 775 635 785 q 499 766 558 766 z "},"ġ":{"ha":972,"x_min":106,"x_max":857,"o":"m 278 149 q 278 149 278 149 q 278 149 278 149 l 685 149 l 685 546 l 278 546 q 278 546 278 546 q 278 546 278 546 l 278 149 m 151 -297 l 119 -142 l 685 -142 q 685 -142 685 -142 q 685 -142 685 -142 l 685 69 q 629 12 670 31 q 518 -7 588 -7 l 283 -7 q 146 27 187 -7 q 106 142 106 61 l 106 560 q 147 668 106 635 q 283 701 188 701 l 518 701 q 629 683 588 701 q 685 625 670 664 l 685 694 l 857 694 l 857 -121 q 845 -216 857 -181 q 807 -269 833 -251 q 739 -292 781 -287 q 639 -297 698 -297 l 151 -297 m 478 800 q 424 808 432 800 q 415 861 415 816 l 415 904 q 424 957 415 949 q 478 965 432 965 l 519 965 q 574 957 565 965 q 582 904 582 949 l 582 861 q 574 808 582 816 q 519 800 565 800 l 478 800 z "},"ģ":{"ha":972,"x_min":106,"x_max":857,"o":"m 278 149 q 278 149 278 149 q 278 149 278 149 l 685 149 l 685 546 l 278 546 q 278 546 278 546 q 278 546 278 546 l 278 149 m 151 -297 l 119 -142 l 685 -142 q 685 -142 685 -142 q 685 -142 685 -142 l 685 69 q 629 12 670 31 q 518 -7 588 -7 l 283 -7 q 146 27 187 -7 q 106 142 106 61 l 106 560 q 147 668 106 635 q 283 701 188 701 l 518 701 q 629 683 588 701 q 685 625 670 664 l 685 694 l 857 694 l 857 -121 q 845 -216 857 -181 q 807 -269 833 -251 q 739 -292 781 -287 q 639 -297 698 -297 l 151 -297 m 524 1083 l 574 1066 l 504 918 l 519 918 q 574 909 566 918 q 583 853 583 901 l 583 815 q 574 759 583 767 q 519 751 566 751 l 478 751 q 423 759 431 751 q 415 815 415 767 l 415 853 q 416 888 415 874 q 424 912 418 903 l 524 1083 z "},"ǧ":{"ha":972,"x_min":106,"x_max":857,"o":"m 278 149 q 278 149 278 149 q 278 149 278 149 l 685 149 l 685 546 l 278 546 q 278 546 278 546 q 278 546 278 546 l 278 149 m 151 -297 l 119 -142 l 685 -142 q 685 -142 685 -142 q 685 -142 685 -142 l 685 69 q 629 12 670 31 q 518 -7 588 -7 l 283 -7 q 146 27 187 -7 q 106 142 106 61 l 106 560 q 147 668 106 635 q 283 701 188 701 l 518 701 q 629 683 588 701 q 685 625 670 664 l 685 694 l 857 694 l 857 -121 q 845 -216 857 -181 q 807 -269 833 -251 q 739 -292 781 -287 q 639 -297 698 -297 l 151 -297 m 443 753 l 233 1006 l 390 1006 l 501 853 l 613 1006 l 766 1006 l 555 753 l 443 753 z "},"ĥ":{"ha":957,"x_min":-55,"x_max":842,"o":"m 125 0 l 125 1006 l 297 1006 l 297 629 q 365 683 318 665 q 493 701 411 701 l 621 701 q 790 661 739 701 q 842 528 842 621 l 842 0 l 669 0 l 669 546 q 669 546 669 546 q 669 546 669 546 l 297 546 l 297 0 l 125 0 m -55 1044 l 156 1296 l 268 1296 l 478 1044 l 321 1044 l 210 1197 l 98 1044 l -55 1044 z "},"ħ":{"ha":1026,"x_min":90,"x_max":911,"o":"m 194 0 l 194 792 l 90 792 l 90 917 l 194 917 l 194 1006 l 367 1006 l 367 917 l 553 917 l 553 792 l 367 792 l 367 629 q 434 683 388 665 q 563 701 481 701 l 690 701 q 860 661 808 701 q 911 528 911 621 l 911 0 l 739 0 l 739 546 q 739 546 739 546 q 739 546 739 546 l 367 546 l 367 0 l 194 0 z "},"ĩ":{"ha":422,"x_min":-67,"x_max":489,"o":"m 125 0 l 125 694 l 297 694 l 297 0 l 125 0 m -67 805 q 4 939 -49 905 q 110 972 57 972 q 170 963 142 972 q 225 941 199 953 q 272 920 250 930 q 313 910 294 910 q 352 923 333 910 q 378 972 370 935 l 489 953 q 418 818 470 852 q 313 785 365 785 q 252 794 281 785 q 198 816 223 804 q 150 838 172 828 q 109 847 128 847 q 70 835 89 847 q 44 785 52 822 l -67 805 z "},"ī":{"ha":422,"x_min":-22,"x_max":444,"o":"m 125 0 l 125 694 l 297 694 l 297 0 l 125 0 m -22 823 l -22 934 l 444 934 l 444 823 l -22 823 z "},"ĭ":{"ha":422,"x_min":10,"x_max":411,"o":"m 125 0 l 125 694 l 297 694 l 297 0 l 125 0 m 211 766 q 113 775 152 766 q 51 809 74 785 q 19 875 28 833 q 10 979 10 916 l 117 979 q 121 926 117 947 q 135 894 125 906 q 164 878 146 883 q 211 874 182 874 q 257 878 240 874 q 285 894 275 883 q 300 926 296 906 q 303 979 303 947 l 411 979 q 402 875 411 916 q 370 809 393 833 q 309 775 347 785 q 211 766 270 766 z "},"į":{"ha":433,"x_min":8,"x_max":320,"o":"m 131 0 l 131 694 l 303 694 l 303 0 l 131 0 m 125 854 l 125 911 q 133 964 125 956 q 188 972 142 972 l 246 972 q 300 964 292 972 q 308 911 308 956 l 308 854 q 300 800 308 808 q 246 792 292 792 l 188 792 q 133 800 142 792 q 125 854 125 808 m 172 -297 q 55 -264 101 -297 q 8 -167 8 -231 q 42 -68 8 -112 q 131 0 75 -24 l 267 0 q 188 -36 219 -8 q 157 -102 157 -65 q 181 -150 157 -135 q 240 -166 204 -166 q 280 -161 260 -166 q 320 -145 301 -156 l 294 -269 q 235 -290 266 -283 q 172 -297 205 -297 z "},"ĵ":{"ha":422,"x_min":-196,"x_max":478,"o":"m -196 -142 l 125 -142 q 125 -142 125 -142 q 125 -142 125 -142 l 125 694 l 297 694 l 297 -121 q 285 -223 297 -187 q 247 -275 273 -258 q 180 -294 221 -292 q 79 -297 138 -297 l -161 -297 l -196 -142 m -55 753 l 156 1006 l 268 1006 l 478 753 l 321 753 l 210 906 l 98 753 l -55 753 z "},"ķ":{"ha":954,"x_min":125,"x_max":951,"o":"m 125 0 l 125 1006 l 297 1006 l 297 378 l 288 378 l 646 694 l 868 694 l 500 375 l 500 386 l 951 0 l 688 0 l 288 346 l 297 346 l 297 0 l 125 0 m 422 -420 l 372 -403 l 442 -255 l 426 -255 q 372 -246 380 -255 q 363 -190 363 -237 l 363 -152 q 372 -96 363 -104 q 426 -87 380 -87 l 467 -87 q 523 -96 515 -87 q 531 -152 531 -104 l 531 -190 q 530 -225 531 -210 q 522 -249 528 -240 l 422 -420 z "},"ĸ":{"ha":954,"x_min":125,"x_max":951,"o":"m 125 0 l 125 694 l 297 694 l 297 380 l 646 694 l 868 694 l 506 374 l 951 0 l 688 0 l 297 331 l 297 0 l 125 0 z "},"ĺ":{"ha":422,"x_min":59,"x_max":453,"o":"m 125 0 l 125 1006 l 297 1006 l 297 0 l 125 0 m 59 1065 l 276 1317 l 453 1317 l 215 1065 l 59 1065 z "},"ļ":{"ha":422,"x_min":125,"x_max":297,"o":"m 125 0 l 125 1006 l 297 1006 l 297 0 l 125 0 m 185 -420 l 136 -403 l 206 -255 l 190 -255 q 135 -246 144 -255 q 127 -190 127 -237 l 127 -152 q 135 -96 127 -104 q 190 -87 144 -87 l 231 -87 q 287 -96 278 -87 q 295 -152 295 -104 l 295 -190 q 293 -225 295 -210 q 286 -249 292 -240 l 185 -420 z "},"ľ":{"ha":422,"x_min":125,"x_max":542,"o":"m 125 0 l 125 1006 l 297 1006 l 297 0 l 125 0 m 373 771 l 410 1006 l 542 1006 l 501 799 l 373 771 z "},"ŀ":{"ha":422,"x_min":125,"x_max":506,"o":"m 125 0 l 125 1006 l 297 1006 l 297 0 l 125 0 m 339 465 l 339 508 q 347 561 339 553 q 401 569 356 569 l 443 569 q 497 561 489 569 q 506 508 506 553 l 506 465 q 497 411 506 419 q 443 403 489 403 l 401 403 q 347 411 356 403 q 339 465 339 419 z "},"ł":{"ha":450,"x_min":42,"x_max":408,"o":"m 139 0 l 139 390 l 42 355 l 42 466 l 139 501 l 139 1006 l 311 1006 l 311 564 l 408 599 l 408 488 l 311 453 l 311 0 l 139 0 z "},"ń":{"ha":957,"x_min":125,"x_max":842,"o":"m 125 0 l 125 694 l 297 694 l 297 629 q 365 683 318 665 q 493 701 411 701 l 621 701 q 790 661 739 701 q 842 528 842 621 l 842 0 l 669 0 l 669 546 q 669 546 669 546 q 669 546 669 546 l 297 546 l 297 0 l 125 0 m 333 760 l 549 1013 l 726 1013 l 489 760 l 333 760 z "},"ņ":{"ha":957,"x_min":125,"x_max":842,"o":"m 125 0 l 125 694 l 297 694 l 297 629 q 365 683 318 665 q 493 701 411 701 l 621 701 q 790 661 739 701 q 842 528 842 621 l 842 0 l 669 0 l 669 546 q 669 546 669 546 q 669 546 669 546 l 297 546 l 297 0 l 125 0 m 458 -420 l 408 -403 l 478 -255 l 463 -255 q 408 -246 416 -255 q 399 -190 399 -237 l 399 -152 q 408 -96 399 -104 q 463 -87 416 -87 l 503 -87 q 559 -96 551 -87 q 567 -152 567 -104 l 567 -190 q 566 -225 567 -210 q 558 -249 564 -240 l 458 -420 z "},"ň":{"ha":957,"x_min":125,"x_max":842,"o":"m 125 0 l 125 694 l 297 694 l 297 629 q 365 683 318 665 q 493 701 411 701 l 621 701 q 790 661 739 701 q 842 528 842 621 l 842 0 l 669 0 l 669 546 q 669 546 669 546 q 669 546 669 546 l 297 546 l 297 0 l 125 0 m 428 760 l 218 1013 l 375 1013 l 486 860 l 598 1013 l 751 1013 l 540 760 l 428 760 z "},"ō":{"ha":969,"x_min":106,"x_max":864,"o":"m 106 142 l 106 560 q 147 668 106 635 q 283 701 188 701 l 686 701 q 823 668 782 701 q 864 560 864 635 l 864 142 q 824 27 864 61 q 686 -7 783 -7 l 283 -7 q 146 27 187 -7 q 106 142 106 61 m 278 149 q 278 149 278 149 q 278 149 278 149 l 692 149 q 692 149 692 149 q 692 149 692 149 l 692 546 q 692 546 692 546 q 692 546 692 546 l 278 546 q 278 546 278 546 q 278 546 278 546 l 278 149 m 252 823 l 252 934 l 717 934 l 717 823 l 252 823 z "},"ŏ":{"ha":969,"x_min":106,"x_max":864,"o":"m 106 142 l 106 560 q 147 668 106 635 q 283 701 188 701 l 686 701 q 823 668 782 701 q 864 560 864 635 l 864 142 q 824 27 864 61 q 686 -7 783 -7 l 283 -7 q 146 27 187 -7 q 106 142 106 61 m 278 149 q 278 149 278 149 q 278 149 278 149 l 692 149 q 692 149 692 149 q 692 149 692 149 l 692 546 q 692 546 692 546 q 692 546 692 546 l 278 546 q 278 546 278 546 q 278 546 278 546 l 278 149 m 485 766 q 387 775 426 766 q 325 809 348 785 q 293 875 302 833 q 283 979 283 916 l 391 979 q 395 926 391 947 q 409 894 399 906 q 438 878 419 883 q 485 874 456 874 q 531 878 513 874 q 559 894 549 883 q 573 926 569 906 q 577 979 577 947 l 685 979 q 676 875 685 916 q 644 809 667 833 q 582 775 621 785 q 485 766 544 766 z "},"ő":{"ha":969,"x_min":106,"x_max":896,"o":"m 106 142 l 106 560 q 147 668 106 635 q 283 701 188 701 l 686 701 q 823 668 782 701 q 864 560 864 635 l 864 142 q 824 27 864 61 q 686 -7 783 -7 l 283 -7 q 146 27 187 -7 q 106 142 106 61 m 278 149 q 278 149 278 149 q 278 149 278 149 l 692 149 q 692 149 692 149 q 692 149 692 149 l 692 546 q 692 546 692 546 q 692 546 692 546 l 278 546 q 278 546 278 546 q 278 546 278 546 l 278 149 m 257 753 l 451 1006 l 611 1006 l 397 753 l 257 753 m 542 753 l 737 1006 l 896 1006 l 682 753 l 542 753 z "},"ǫ":{"ha":969,"x_min":106,"x_max":864,"o":"m 106 142 l 106 560 q 147 668 106 635 q 283 701 188 701 l 686 701 q 823 668 782 701 q 864 560 864 635 l 864 142 q 824 27 864 61 q 686 -7 783 -7 l 283 -7 q 146 27 187 -7 q 106 142 106 61 m 278 149 q 278 149 278 149 q 278 149 278 149 l 692 149 q 692 149 692 149 q 692 149 692 149 l 692 546 q 692 546 692 546 q 692 546 692 546 l 278 546 q 278 546 278 546 q 278 546 278 546 l 278 149 m 594 -297 q 477 -264 523 -297 q 431 -167 431 -231 q 464 -68 431 -112 q 553 0 497 -24 l 689 0 q 610 -36 641 -8 q 579 -102 579 -65 q 603 -150 579 -135 q 662 -166 626 -166 q 702 -161 682 -166 q 742 -145 723 -156 l 716 -269 q 658 -290 688 -283 q 594 -297 627 -297 z "},"ŕ":{"ha":793,"x_min":125,"x_max":751,"o":"m 125 0 l 125 694 l 297 694 l 297 629 q 365 683 318 665 q 493 701 411 701 l 531 701 q 631 692 590 701 q 700 661 673 682 q 739 607 726 640 q 751 528 751 574 l 751 487 l 579 454 l 579 546 q 579 546 579 546 q 579 546 579 546 l 297 546 l 297 0 l 125 0 m 288 760 l 504 1013 l 681 1013 l 444 760 l 288 760 z "},"ŗ":{"ha":793,"x_min":125,"x_max":751,"o":"m 125 0 l 125 694 l 297 694 l 297 629 q 365 683 318 665 q 493 701 411 701 l 531 701 q 631 692 590 701 q 700 661 673 682 q 739 607 726 640 q 751 528 751 574 l 751 487 l 579 454 l 579 546 q 579 546 579 546 q 579 546 579 546 l 297 546 l 297 0 l 125 0 m 185 -420 l 136 -403 l 206 -255 l 190 -255 q 135 -246 144 -255 q 127 -190 127 -237 l 127 -152 q 135 -96 127 -104 q 190 -87 144 -87 l 231 -87 q 287 -96 278 -87 q 295 -152 295 -104 l 295 -190 q 293 -225 295 -210 q 286 -249 292 -240 l 185 -420 z "},"ř":{"ha":793,"x_min":125,"x_max":751,"o":"m 125 0 l 125 694 l 297 694 l 297 629 q 365 683 318 665 q 493 701 411 701 l 531 701 q 631 692 590 701 q 700 661 673 682 q 739 607 726 640 q 751 528 751 574 l 751 487 l 579 454 l 579 546 q 579 546 579 546 q 579 546 579 546 l 297 546 l 297 0 l 125 0 m 383 760 l 173 1013 l 330 1013 l 441 860 l 553 1013 l 706 1013 l 494 760 l 383 760 z "},"ś":{"ha":888,"x_min":99,"x_max":789,"o":"m 99 175 l 251 207 l 251 135 q 251 135 251 135 q 251 135 251 135 l 636 135 q 636 135 636 135 q 636 135 636 135 l 636 278 q 636 278 636 278 q 636 278 636 278 l 283 278 q 159 305 203 278 q 114 421 114 333 l 114 565 q 161 676 114 650 q 283 701 208 701 l 608 701 q 732 676 685 701 q 779 565 779 650 l 779 528 l 626 497 l 626 560 q 626 560 626 560 q 626 560 626 560 l 267 560 q 267 560 267 560 q 267 560 267 560 l 267 424 q 267 424 267 424 q 267 424 267 424 l 618 424 q 742 399 694 424 q 789 288 789 374 l 789 135 q 744 20 789 47 q 618 -7 699 -7 l 268 -7 q 143 20 188 -7 q 99 135 99 47 l 99 175 m 294 753 l 510 1006 l 688 1006 l 450 753 l 294 753 z "},"ŝ":{"ha":888,"x_min":99,"x_max":789,"o":"m 99 175 l 251 207 l 251 135 q 251 135 251 135 q 251 135 251 135 l 636 135 q 636 135 636 135 q 636 135 636 135 l 636 278 q 636 278 636 278 q 636 278 636 278 l 283 278 q 159 305 203 278 q 114 421 114 333 l 114 565 q 161 676 114 650 q 283 701 208 701 l 608 701 q 732 676 685 701 q 779 565 779 650 l 779 528 l 626 497 l 626 560 q 626 560 626 560 q 626 560 626 560 l 267 560 q 267 560 267 560 q 267 560 267 560 l 267 424 q 267 424 267 424 q 267 424 267 424 l 618 424 q 742 399 694 424 q 789 288 789 374 l 789 135 q 744 20 789 47 q 618 -7 699 -7 l 268 -7 q 143 20 188 -7 q 99 135 99 47 l 99 175 m 178 753 l 390 1006 l 501 1006 l 711 753 l 554 753 l 443 906 l 331 753 l 178 753 z "},"ş":{"ha":888,"x_min":99,"x_max":789,"o":"m 99 175 l 251 207 l 251 135 q 251 135 251 135 q 251 135 251 135 l 636 135 q 636 135 636 135 q 636 135 636 135 l 636 278 q 636 278 636 278 q 636 278 636 278 l 283 278 q 159 305 203 278 q 114 421 114 333 l 114 565 q 161 676 114 650 q 283 701 208 701 l 608 701 q 732 676 685 701 q 779 565 779 650 l 779 528 l 626 497 l 626 560 q 626 560 626 560 q 626 560 626 560 l 267 560 q 267 560 267 560 q 267 560 267 560 l 267 424 q 267 424 267 424 q 267 424 267 424 l 618 424 q 742 399 694 424 q 789 288 789 374 l 789 135 q 744 20 789 47 q 618 -7 699 -7 l 268 -7 q 143 20 188 -7 q 99 135 99 47 l 99 175 m 432 -304 q 368 -296 397 -304 q 315 -269 340 -287 l 346 -217 q 370 -226 355 -222 q 401 -230 386 -230 q 439 -218 426 -230 q 452 -187 452 -207 q 439 -156 452 -167 q 399 -146 425 -146 q 369 -149 385 -146 q 338 -156 353 -151 l 415 10 l 444 10 l 474 10 l 435 -75 q 538 -103 503 -76 q 573 -185 573 -131 q 536 -273 573 -242 q 432 -304 499 -304 z "},"š":{"ha":888,"x_min":99,"x_max":789,"o":"m 99 175 l 251 207 l 251 135 q 251 135 251 135 q 251 135 251 135 l 636 135 q 636 135 636 135 q 636 135 636 135 l 636 278 q 636 278 636 278 q 636 278 636 278 l 283 278 q 159 305 203 278 q 114 421 114 333 l 114 565 q 161 676 114 650 q 283 701 208 701 l 608 701 q 732 676 685 701 q 779 565 779 650 l 779 528 l 626 497 l 626 560 q 626 560 626 560 q 626 560 626 560 l 267 560 q 267 560 267 560 q 267 560 267 560 l 267 424 q 267 424 267 424 q 267 424 267 424 l 618 424 q 742 399 694 424 q 789 288 789 374 l 789 135 q 744 20 789 47 q 618 -7 699 -7 l 268 -7 q 143 20 188 -7 q 99 135 99 47 l 99 175 m 389 753 l 179 1006 l 336 1006 l 447 853 l 559 1006 l 712 1006 l 501 753 l 389 753 z "},"ţ":{"ha":599,"x_min":50,"x_max":551,"o":"m 347 -7 q 210 27 251 -7 q 169 142 169 61 l 169 553 l 50 553 l 50 694 l 169 694 l 169 864 l 342 864 l 342 694 l 551 694 l 551 553 l 342 553 l 342 135 q 342 135 342 135 q 342 135 342 135 l 544 135 l 515 -7 l 347 -7 m 335 -311 q 271 -303 300 -311 q 218 -276 242 -294 l 249 -224 q 273 -233 258 -229 q 303 -237 289 -237 q 342 -225 328 -237 q 355 -194 355 -214 q 341 -163 355 -174 q 302 -153 328 -153 q 272 -156 288 -153 q 240 -163 256 -158 l 317 3 l 347 3 l 377 3 l 338 -82 q 441 -110 406 -83 q 476 -192 476 -138 q 439 -280 476 -249 q 335 -311 402 -311 z "},"ť":{"ha":599,"x_min":50,"x_max":586,"o":"m 347 -7 q 210 27 251 -7 q 169 142 169 61 l 169 553 l 50 553 l 50 694 l 169 694 l 169 864 l 342 864 l 342 694 l 551 694 l 551 553 l 342 553 l 342 135 q 342 135 342 135 q 342 135 342 135 l 544 135 l 515 -7 l 347 -7 m 417 738 l 455 972 l 586 972 l 546 766 l 417 738 z "},"ŧ":{"ha":599,"x_min":50,"x_max":551,"o":"m 347 -7 q 210 27 251 -7 q 169 142 169 61 l 169 354 l 78 354 l 78 465 l 169 465 l 169 553 l 50 553 l 50 694 l 169 694 l 169 864 l 342 864 l 342 694 l 551 694 l 551 553 l 342 553 l 342 465 l 508 465 l 508 354 l 342 354 l 342 135 q 342 135 342 135 q 342 135 342 135 l 544 135 l 515 -7 l 347 -7 z "},"ũ":{"ha":947,"x_min":115,"x_max":832,"o":"m 115 135 l 115 694 l 288 694 l 288 149 q 288 149 288 149 q 288 149 288 149 l 660 149 q 660 149 660 149 q 660 149 660 149 l 660 694 l 832 694 l 832 135 q 786 20 832 47 q 661 -7 741 -7 l 285 -7 q 160 20 205 -7 q 115 135 115 47 m 196 805 q 267 939 214 905 q 372 972 319 972 q 433 963 404 972 q 487 941 462 953 q 535 920 513 930 q 576 910 557 910 q 614 923 596 910 q 640 972 633 935 l 751 953 q 680 818 733 852 q 575 785 628 785 q 514 794 543 785 q 460 816 485 804 q 413 838 435 828 q 372 847 390 847 q 333 835 351 847 q 307 785 315 822 l 196 805 z "},"ū":{"ha":947,"x_min":115,"x_max":832,"o":"m 115 135 l 115 694 l 288 694 l 288 149 q 288 149 288 149 q 288 149 288 149 l 660 149 q 660 149 660 149 q 660 149 660 149 l 660 694 l 832 694 l 832 135 q 786 20 832 47 q 661 -7 741 -7 l 285 -7 q 160 20 205 -7 q 115 135 115 47 m 241 823 l 241 934 l 706 934 l 706 823 l 241 823 z "},"ŭ":{"ha":947,"x_min":115,"x_max":832,"o":"m 115 135 l 115 694 l 288 694 l 288 149 q 288 149 288 149 q 288 149 288 149 l 660 149 q 660 149 660 149 q 660 149 660 149 l 660 694 l 832 694 l 832 135 q 786 20 832 47 q 661 -7 741 -7 l 285 -7 q 160 20 205 -7 q 115 135 115 47 m 474 766 q 376 775 415 766 q 314 809 337 785 q 282 875 291 833 q 272 979 272 916 l 380 979 q 384 926 380 947 q 398 894 388 906 q 426 878 408 883 q 474 874 444 874 q 520 878 502 874 q 548 894 538 883 q 562 926 558 906 q 566 979 566 947 l 674 979 q 665 875 674 916 q 633 809 656 833 q 571 775 610 785 q 474 766 533 766 z "},"ů":{"ha":947,"x_min":115,"x_max":832,"o":"m 115 135 l 115 694 l 288 694 l 288 149 q 288 149 288 149 q 288 149 288 149 l 660 149 q 660 149 660 149 q 660 149 660 149 l 660 694 l 832 694 l 832 135 q 786 20 832 47 q 661 -7 741 -7 l 285 -7 q 160 20 205 -7 q 115 135 115 47 m 474 749 q 402 755 429 749 q 360 774 375 760 q 340 814 345 788 q 335 880 335 839 q 340 946 335 921 q 360 986 345 972 q 402 1005 375 1000 q 474 1010 429 1010 q 544 1005 517 1010 q 586 986 572 1000 q 607 946 601 972 q 612 880 612 921 q 607 814 612 839 q 586 774 601 788 q 544 755 572 760 q 474 749 517 749 m 474 827 q 515 839 507 827 q 524 880 524 851 q 515 920 524 908 q 474 932 507 932 q 432 920 440 932 q 424 880 424 908 q 432 839 424 851 q 474 827 440 827 z "},"ű":{"ha":947,"x_min":115,"x_max":885,"o":"m 115 135 l 115 694 l 288 694 l 288 149 q 288 149 288 149 q 288 149 288 149 l 660 149 q 660 149 660 149 q 660 149 660 149 l 660 694 l 832 694 l 832 135 q 786 20 832 47 q 661 -7 741 -7 l 285 -7 q 160 20 205 -7 q 115 135 115 47 m 246 753 l 440 1006 l 600 1006 l 386 753 l 246 753 m 531 753 l 726 1006 l 885 1006 l 671 753 l 531 753 z "},"ų":{"ha":947,"x_min":115,"x_max":832,"o":"m 115 135 l 115 694 l 288 694 l 288 149 q 288 149 288 149 q 288 149 288 149 l 660 149 q 660 149 660 149 q 660 149 660 149 l 660 694 l 832 694 l 832 135 q 786 20 832 47 q 661 -7 741 -7 l 285 -7 q 160 20 205 -7 q 115 135 115 47 m 514 -297 q 397 -264 443 -297 q 351 -167 351 -231 q 384 -68 351 -112 q 473 0 417 -24 l 609 0 q 530 -36 561 -8 q 499 -102 499 -65 q 523 -150 499 -135 q 582 -166 547 -166 q 623 -161 602 -166 q 663 -145 643 -156 l 636 -269 q 578 -290 608 -283 q 514 -297 547 -297 z "},"ŵ":{"ha":1121,"x_min":3,"x_max":1117,"o":"m 252 0 l 3 694 l 181 694 l 343 226 l 502 694 l 642 694 l 804 228 l 964 694 l 1117 694 l 867 0 l 714 0 l 562 438 l 414 0 l 252 0 m 313 753 l 524 1006 l 635 1006 l 845 753 l 688 753 l 577 906 l 465 753 l 313 753 z "},"ŷ":{"ha":817,"x_min":3,"x_max":813,"o":"m 53 -297 l 22 -142 l 243 -142 q 243 -142 243 -142 q 243 -142 243 -142 l 331 44 l 3 694 l 206 694 l 424 241 l 637 694 l 813 694 l 390 -187 q 359 -241 375 -219 q 323 -274 344 -262 q 274 -292 302 -287 q 207 -297 246 -297 l 53 -297 m 142 753 l 353 1006 l 465 1006 l 675 753 l 518 753 l 407 906 l 295 753 l 142 753 z "},"ź":{"ha":786,"x_min":54,"x_max":732,"o":"m 54 0 l 54 61 l 469 564 l 463 549 l 96 549 l 96 694 l 728 694 l 728 633 l 312 126 l 319 145 l 732 145 l 732 0 l 54 0 m 243 753 l 460 1006 l 637 1006 l 399 753 l 243 753 z "},"ż":{"ha":786,"x_min":54,"x_max":732,"o":"m 54 0 l 54 61 l 469 564 l 463 549 l 96 549 l 96 694 l 728 694 l 728 633 l 312 126 l 319 145 l 732 145 l 732 0 l 54 0 m 373 800 q 319 808 327 800 q 310 861 310 816 l 310 904 q 319 957 310 949 q 373 965 327 965 l 415 965 q 469 957 460 965 q 477 904 477 949 l 477 861 q 469 808 477 816 q 415 800 460 800 l 373 800 z "},"ƒ":{"ha":865,"x_min":0,"x_max":865,"o":"m 0 -297 l 54 -156 l 256 -156 q 256 -156 256 -156 q 256 -156 256 -156 l 367 469 l 254 469 l 278 611 l 391 611 l 430 829 q 501 964 446 922 q 649 1006 556 1006 l 865 1006 l 810 864 l 608 864 q 608 864 608 864 q 608 864 608 864 l 563 611 l 759 611 l 735 469 l 539 469 l 435 -121 q 405 -223 423 -187 q 357 -275 386 -258 q 286 -294 328 -292 q 185 -297 244 -297 l 0 -297 z "},"ư":{"ha":947,"x_min":115,"x_max":977,"o":"m 115 135 l 115 694 l 288 694 l 288 149 q 288 149 288 149 q 288 149 288 149 l 660 149 q 660 149 660 149 q 660 149 660 149 l 660 694 l 832 694 l 832 135 q 786 20 832 47 q 661 -7 741 -7 l 285 -7 q 160 20 205 -7 q 115 135 115 47 m 739 615 l 739 694 l 746 694 q 820 718 797 694 q 843 797 843 742 q 841 844 843 817 q 833 904 838 872 l 961 928 q 973 848 969 885 q 977 783 977 811 q 964 707 977 738 q 924 656 951 676 q 852 627 896 637 q 746 615 808 618 l 739 615 z "},"ơ":{"ha":969,"x_min":106,"x_max":1051,"o":"m 106 142 l 106 560 q 147 668 106 635 q 283 701 188 701 l 686 701 q 823 668 782 701 q 864 560 864 635 l 864 142 q 824 27 864 61 q 686 -7 783 -7 l 283 -7 q 146 27 187 -7 q 106 142 106 61 m 278 149 q 278 149 278 149 q 278 149 278 149 l 692 149 q 692 149 692 149 q 692 149 692 149 l 692 546 q 692 546 692 546 q 692 546 692 546 l 278 546 q 278 546 278 546 q 278 546 278 546 l 278 149 m 813 582 l 813 661 l 819 661 q 894 685 871 661 q 917 763 917 708 q 914 811 917 783 q 906 871 912 838 l 1035 895 q 1047 815 1042 851 q 1051 749 1051 778 q 1038 673 1051 704 q 997 623 1025 642 q 926 594 969 603 q 819 582 882 585 l 813 582 z "},"Ǻ":{"ha":1149,"x_min":0,"x_max":1149,"o":"m 0 0 l 499 972 l 643 972 l 1149 0 l 932 0 l 816 226 l 317 226 l 201 0 l 0 0 m 403 393 l 731 393 l 567 712 l 403 393 m 437 1147 q 443 1206 437 1183 q 465 1243 449 1229 q 507 1261 481 1256 q 575 1267 534 1267 q 643 1261 616 1267 q 685 1242 669 1256 q 707 1205 701 1228 q 713 1147 713 1182 q 707 1088 713 1111 q 685 1051 701 1065 q 643 1032 669 1038 q 575 1027 616 1027 q 507 1033 534 1027 q 465 1052 481 1038 q 443 1089 449 1065 q 437 1147 437 1112 m 525 1147 q 535 1114 525 1122 q 575 1105 545 1105 q 615 1114 605 1105 q 625 1147 625 1122 q 615 1181 625 1172 q 575 1189 605 1189 q 535 1181 545 1189 q 525 1147 525 1172 m 636 1315 l 514 1315 l 634 1477 l 776 1477 l 636 1315 z "},"Ȁ":{"ha":1149,"x_min":0,"x_max":1149,"o":"m 0 0 l 499 972 l 643 972 l 1149 0 l 932 0 l 816 226 l 317 226 l 201 0 l 0 0 m 403 393 l 731 393 l 567 712 l 403 393 m 699 1031 l 490 1250 l 678 1250 l 857 1031 l 699 1031 m 347 1031 l 138 1250 l 326 1250 l 505 1031 l 347 1031 z "},"Ȃ":{"ha":1149,"x_min":0,"x_max":1149,"o":"m 0 0 l 499 972 l 643 972 l 1149 0 l 932 0 l 816 226 l 317 226 l 201 0 l 0 0 m 403 393 l 731 393 l 567 712 l 403 393 m 354 1044 q 366 1142 354 1103 q 403 1206 377 1182 q 472 1240 430 1230 q 576 1250 515 1250 q 679 1240 637 1250 q 747 1206 721 1230 q 784 1142 773 1182 q 796 1044 796 1103 l 678 1044 q 673 1088 678 1071 q 654 1115 667 1105 q 622 1129 642 1125 q 576 1133 603 1133 q 528 1129 548 1133 q 496 1115 508 1125 q 477 1088 483 1105 q 472 1044 472 1071 l 354 1044 z "},"Ǽ":{"ha":1741,"x_min":0,"x_max":1665,"o":"m 0 0 l 586 972 l 1651 972 l 1651 803 l 974 803 l 974 583 l 1383 583 l 1383 414 l 974 414 l 974 169 l 1665 169 l 1665 0 l 791 0 l 791 226 l 350 226 l 215 0 l 0 0 m 449 393 l 791 393 l 791 803 l 692 803 l 449 393 m 814 1031 l 1031 1283 l 1208 1283 l 970 1031 l 814 1031 z "},"Ȅ":{"ha":1089,"x_min":139,"x_max":1013,"o":"m 139 0 l 139 972 l 999 972 l 999 803 l 322 803 l 322 583 l 731 583 l 731 414 l 322 414 l 322 169 l 1013 169 l 1013 0 l 139 0 m 699 1031 l 491 1250 l 678 1250 l 858 1031 l 699 1031 m 347 1031 l 139 1250 l 326 1250 l 506 1031 l 347 1031 z "},"Ȇ":{"ha":1089,"x_min":139,"x_max":1013,"o":"m 139 0 l 139 972 l 999 972 l 999 803 l 322 803 l 322 583 l 731 583 l 731 414 l 322 414 l 322 169 l 1013 169 l 1013 0 l 139 0 m 355 1044 q 366 1142 355 1103 q 404 1206 378 1182 q 473 1240 431 1230 q 576 1250 515 1250 q 680 1240 638 1250 q 748 1206 722 1230 q 785 1142 774 1182 q 797 1044 797 1103 l 679 1044 q 673 1088 679 1071 q 655 1115 667 1105 q 623 1129 642 1125 q 576 1133 603 1133 q 529 1129 549 1133 q 497 1115 509 1125 q 478 1088 484 1105 q 472 1044 472 1071 l 355 1044 z "},"Ȉ":{"ha":461,"x_min":-206,"x_max":513,"o":"m 139 0 l 139 972 l 322 972 l 322 0 l 139 0 m 354 1031 l 146 1250 l 333 1250 l 513 1031 l 354 1031 m 2 1031 l -206 1250 l -19 1250 l 160 1031 l 2 1031 z "},"Ȋ":{"ha":461,"x_min":10,"x_max":451,"o":"m 139 0 l 139 972 l 322 972 l 322 0 l 139 0 m 10 1044 q 21 1142 10 1103 q 59 1206 33 1182 q 128 1240 85 1230 q 231 1250 170 1250 q 334 1240 292 1250 q 402 1206 376 1230 q 440 1142 428 1182 q 451 1044 451 1103 l 334 1044 q 328 1088 334 1071 q 310 1115 322 1105 q 278 1129 297 1125 q 231 1133 258 1133 q 184 1129 203 1133 q 151 1115 164 1125 q 133 1088 139 1105 q 127 1044 127 1071 l 10 1044 z "},"Ȍ":{"ha":1244,"x_min":118,"x_max":1126,"o":"m 118 792 q 184 946 118 910 q 356 982 251 982 l 888 982 q 1060 946 993 982 q 1126 792 1126 910 l 1126 189 q 1063 28 1126 65 q 888 -10 999 -10 l 356 -10 q 181 28 244 -10 q 118 189 118 66 l 118 792 m 301 813 l 301 160 q 301 160 301 160 q 301 160 301 160 l 943 160 q 943 160 943 160 q 943 160 943 160 l 943 813 q 943 813 943 813 q 943 813 943 813 l 301 813 q 301 813 301 813 q 301 813 301 813 m 745 1041 l 537 1260 l 724 1260 l 903 1041 l 745 1041 m 393 1041 l 185 1260 l 372 1260 l 551 1041 l 393 1041 z "},"Ȏ":{"ha":1244,"x_min":118,"x_max":1126,"o":"m 118 792 q 184 946 118 910 q 356 982 251 982 l 888 982 q 1060 946 993 982 q 1126 792 1126 910 l 1126 189 q 1063 28 1126 65 q 888 -10 999 -10 l 356 -10 q 181 28 244 -10 q 118 189 118 66 l 118 792 m 301 813 l 301 160 q 301 160 301 160 q 301 160 301 160 l 943 160 q 943 160 943 160 q 943 160 943 160 l 943 813 q 943 813 943 813 q 943 813 943 813 l 301 813 q 301 813 301 813 q 301 813 301 813 m 401 1053 q 412 1152 401 1113 q 450 1216 424 1192 q 519 1250 476 1240 q 622 1260 561 1260 q 725 1250 683 1260 q 793 1216 767 1240 q 831 1152 819 1192 q 842 1053 842 1113 l 725 1053 q 719 1098 725 1081 q 701 1125 713 1115 q 669 1139 688 1135 q 622 1142 649 1142 q 575 1139 594 1142 q 542 1125 555 1135 q 524 1098 530 1115 q 518 1053 518 1081 l 401 1053 z "},"Ǿ":{"ha":1385,"x_min":118,"x_max":1267,"o":"m 188 792 q 255 946 188 910 q 426 982 321 982 l 958 982 q 1130 946 1063 982 q 1197 792 1197 910 l 1197 189 q 1133 28 1197 65 q 958 -10 1069 -10 l 426 -10 q 251 28 314 -10 q 188 189 188 66 l 188 792 m 372 813 l 372 160 q 372 160 372 160 q 372 160 372 160 l 1013 160 q 1013 160 1013 160 q 1013 160 1013 160 l 1013 813 q 1013 813 1013 813 q 1013 813 1013 813 l 372 813 q 372 813 372 813 q 372 813 372 813 m 201 -42 l 118 51 l 1183 1014 l 1267 921 l 201 -42 m 549 1073 l 748 1292 l 956 1292 l 725 1073 l 549 1073 z "},"Ȑ":{"ha":1153,"x_min":139,"x_max":1119,"o":"m 139 0 l 139 972 l 793 972 q 965 936 899 972 q 1032 782 1032 901 l 1032 559 q 973 424 1032 469 q 793 378 913 378 l 733 378 l 1119 0 l 872 0 l 487 378 l 322 378 l 322 0 l 139 0 m 322 548 l 775 548 q 830 562 812 548 q 849 617 849 576 l 849 733 q 830 786 849 770 q 775 803 812 803 l 322 803 l 322 548 m 709 1031 l 501 1250 l 688 1250 l 867 1031 l 709 1031 m 357 1031 l 149 1250 l 336 1250 l 515 1031 l 357 1031 z "},"Ȓ":{"ha":1153,"x_min":139,"x_max":1119,"o":"m 139 0 l 139 972 l 793 972 q 965 936 899 972 q 1032 782 1032 901 l 1032 559 q 973 424 1032 469 q 793 378 913 378 l 733 378 l 1119 0 l 872 0 l 487 378 l 322 378 l 322 0 l 139 0 m 322 548 l 775 548 q 830 562 812 548 q 849 617 849 576 l 849 733 q 830 786 849 770 q 775 803 812 803 l 322 803 l 322 548 m 365 1044 q 376 1142 365 1103 q 414 1206 388 1182 q 483 1240 440 1230 q 586 1250 525 1250 q 689 1240 647 1250 q 757 1206 731 1230 q 795 1142 783 1182 q 806 1044 806 1103 l 689 1044 q 683 1088 689 1071 q 665 1115 677 1105 q 633 1129 652 1125 q 586 1133 613 1133 q 539 1129 558 1133 q 506 1115 519 1125 q 488 1088 494 1105 q 482 1044 482 1071 l 365 1044 z "},"Ȕ":{"ha":1178,"x_min":128,"x_max":1049,"o":"m 128 972 l 312 972 l 312 167 q 312 167 312 167 q 312 167 312 167 l 866 167 q 866 167 866 167 q 866 167 866 167 l 866 972 l 1049 972 l 1049 189 q 986 28 1049 66 q 810 -10 922 -10 l 366 -10 q 267 -2 311 -10 q 192 28 223 6 q 145 89 161 50 q 128 189 128 128 l 128 972 m 713 1031 l 504 1250 l 692 1250 l 871 1031 l 713 1031 m 360 1031 l 152 1250 l 340 1250 l 519 1031 l 360 1031 z "},"Ȗ":{"ha":1178,"x_min":128,"x_max":1049,"o":"m 128 972 l 312 972 l 312 167 q 312 167 312 167 q 312 167 312 167 l 866 167 q 866 167 866 167 q 866 167 866 167 l 866 972 l 1049 972 l 1049 189 q 986 28 1049 66 q 810 -10 922 -10 l 366 -10 q 267 -2 311 -10 q 192 28 223 6 q 145 89 161 50 q 128 189 128 128 l 128 972 m 368 1044 q 380 1142 368 1103 q 417 1206 391 1182 q 486 1240 444 1230 q 590 1250 528 1250 q 693 1240 651 1250 q 761 1206 735 1230 q 798 1142 787 1182 q 810 1044 810 1103 l 692 1044 q 686 1088 692 1071 q 668 1115 681 1105 q 636 1129 656 1125 q 590 1133 617 1133 q 542 1129 562 1133 q 510 1115 522 1125 q 491 1088 497 1105 q 485 1044 485 1071 l 368 1044 z "},"Ș":{"ha":1106,"x_min":83,"x_max":1015,"o":"m 83 253 l 258 289 l 258 160 q 258 160 258 160 q 258 160 258 160 l 840 160 q 840 160 840 160 q 840 160 840 160 l 840 407 q 840 407 840 407 q 840 407 840 407 l 342 407 q 243 415 287 407 q 168 445 199 424 q 120 507 137 467 q 104 607 104 546 l 104 792 q 122 889 104 851 q 170 947 139 926 q 245 975 201 967 q 342 982 289 982 l 763 982 q 860 975 816 982 q 935 947 903 967 q 984 889 967 926 q 1001 792 1001 851 l 1001 722 l 826 688 l 826 813 q 826 813 826 813 q 826 813 826 813 l 279 813 q 279 813 279 813 q 279 813 279 813 l 279 576 q 279 576 279 576 q 279 576 279 576 l 776 576 q 874 569 830 576 q 949 541 917 562 q 998 483 981 520 q 1015 386 1015 446 l 1015 189 q 952 28 1015 66 q 776 -10 888 -10 l 321 -10 q 222 -2 266 -10 q 147 28 178 6 q 100 89 116 50 q 83 189 83 128 l 83 253 m 524 -430 l 474 -412 l 544 -265 l 528 -265 q 474 -256 482 -265 q 465 -199 465 -247 l 465 -162 q 474 -106 465 -114 q 528 -97 482 -97 l 569 -97 q 625 -106 617 -97 q 633 -162 633 -114 l 633 -199 q 632 -235 633 -220 q 624 -258 630 -249 l 524 -430 z "},"Ț":{"ha":983,"x_min":14,"x_max":969,"o":"m 400 0 l 400 803 l 14 803 l 14 972 l 969 972 l 969 803 l 583 803 l 583 0 l 400 0 m 466 -420 l 417 -403 l 486 -255 l 471 -255 q 416 -246 424 -255 q 408 -190 408 -237 l 408 -152 q 416 -96 408 -104 q 471 -87 424 -87 l 512 -87 q 567 -96 559 -87 q 576 -152 576 -104 l 576 -190 q 574 -225 576 -210 q 567 -249 572 -240 l 466 -420 z "},"Ȫ":{"ha":1244,"x_min":118,"x_max":1126,"o":"m 118 792 q 184 946 118 910 q 356 982 251 982 l 888 982 q 1060 946 993 982 q 1126 792 1126 910 l 1126 189 q 1063 28 1126 65 q 888 -10 999 -10 l 356 -10 q 181 28 244 -10 q 118 189 118 66 l 118 792 m 301 813 l 301 160 q 301 160 301 160 q 301 160 301 160 l 943 160 q 943 160 943 160 q 943 160 943 160 l 943 813 q 943 813 943 813 q 943 813 943 813 l 301 813 q 301 813 301 813 q 301 813 301 813 m 455 1065 q 401 1074 409 1065 q 392 1128 392 1082 l 392 1178 q 401 1231 392 1223 q 455 1239 409 1239 l 503 1239 q 558 1231 549 1239 q 566 1178 566 1223 l 566 1128 q 558 1074 566 1082 q 503 1065 549 1065 l 455 1065 m 740 1065 q 685 1074 694 1065 q 677 1128 677 1082 l 677 1178 q 685 1231 677 1223 q 740 1239 694 1239 l 788 1239 q 842 1231 834 1239 q 851 1178 851 1223 l 851 1128 q 842 1074 851 1082 q 788 1065 834 1065 l 740 1065 m 389 1308 l 389 1426 l 854 1426 l 854 1308 l 389 1308 z "},"Ȭ":{"ha":1244,"x_min":118,"x_max":1126,"o":"m 118 792 q 184 946 118 910 q 356 982 251 982 l 888 982 q 1060 946 993 982 q 1126 792 1126 910 l 1126 189 q 1063 28 1126 65 q 888 -10 999 -10 l 356 -10 q 181 28 244 -10 q 118 189 118 66 l 118 792 m 301 813 l 301 160 q 301 160 301 160 q 301 160 301 160 l 943 160 q 943 160 943 160 q 943 160 943 160 l 943 813 q 943 813 943 813 q 943 813 943 813 l 301 813 q 301 813 301 813 q 301 813 301 813 m 338 1086 q 367 1168 347 1136 q 412 1219 387 1201 q 466 1245 438 1238 q 520 1253 494 1253 q 581 1244 552 1253 q 635 1225 610 1235 q 683 1207 660 1215 q 724 1198 705 1198 q 762 1207 744 1198 q 788 1253 781 1216 l 905 1233 q 876 1150 896 1182 q 831 1099 856 1117 q 777 1073 806 1080 q 723 1065 749 1065 q 662 1074 691 1065 q 608 1093 633 1083 q 560 1111 583 1103 q 519 1120 538 1120 q 481 1111 499 1120 q 455 1066 463 1103 l 338 1086 m 389 1308 l 389 1426 l 854 1426 l 854 1308 l 389 1308 z "},"Ȱ":{"ha":1244,"x_min":118,"x_max":1126,"o":"m 118 792 q 184 946 118 910 q 356 982 251 982 l 888 982 q 1060 946 993 982 q 1126 792 1126 910 l 1126 189 q 1063 28 1126 65 q 888 -10 999 -10 l 356 -10 q 181 28 244 -10 q 118 189 118 66 l 118 792 m 301 813 l 301 160 q 301 160 301 160 q 301 160 301 160 l 943 160 q 943 160 943 160 q 943 160 943 160 l 943 813 q 943 813 943 813 q 943 813 943 813 l 301 813 q 301 813 301 813 q 301 813 301 813 m 599 1081 q 542 1089 551 1081 q 533 1147 533 1098 l 533 1193 q 542 1250 533 1242 q 599 1259 551 1259 l 644 1259 q 701 1250 692 1259 q 710 1193 710 1242 l 710 1147 q 701 1089 710 1098 q 644 1081 692 1081 l 599 1081 m 389 1322 l 389 1440 l 854 1440 l 854 1322 l 389 1322 z "},"Ȳ":{"ha":1088,"x_min":0,"x_max":1088,"o":"m 461 0 l 461 425 l 0 972 l 263 972 l 560 593 l 860 972 l 1088 972 l 644 426 l 644 0 l 461 0 m 311 1083 l 311 1201 l 776 1201 l 776 1083 l 311 1083 z "},"Ẁ":{"ha":1371,"x_min":0,"x_max":1371,"o":"m 328 0 l 0 972 l 210 972 l 412 340 l 624 972 l 767 972 l 983 336 l 1194 972 l 1371 972 l 1038 0 l 899 0 l 681 626 l 467 0 l 328 0 m 653 1031 l 422 1250 l 630 1250 l 829 1031 l 653 1031 z "},"Ẃ":{"ha":1371,"x_min":0,"x_max":1371,"o":"m 328 0 l 0 972 l 210 972 l 412 340 l 624 972 l 767 972 l 983 336 l 1194 972 l 1371 972 l 1038 0 l 899 0 l 681 626 l 467 0 l 328 0 m 542 1031 l 741 1250 l 949 1250 l 718 1031 l 542 1031 z "},"Ẅ":{"ha":1371,"x_min":0,"x_max":1371,"o":"m 328 0 l 0 972 l 210 972 l 412 340 l 624 972 l 767 972 l 983 336 l 1194 972 l 1371 972 l 1038 0 l 899 0 l 681 626 l 467 0 l 328 0 m 519 1056 q 465 1064 473 1056 q 456 1118 456 1072 l 456 1168 q 465 1221 456 1213 q 519 1229 473 1229 l 567 1229 q 622 1221 613 1229 q 630 1168 630 1213 l 630 1118 q 622 1064 630 1072 q 567 1056 613 1056 l 519 1056 m 803 1056 q 749 1064 758 1056 q 741 1118 741 1072 l 741 1168 q 749 1221 741 1213 q 803 1229 758 1229 l 852 1229 q 906 1221 898 1229 q 915 1168 915 1213 l 915 1118 q 906 1064 915 1072 q 852 1056 898 1056 l 803 1056 z "},"ǻ":{"ha":936,"x_min":99,"x_max":821,"o":"m 269 -7 q 144 20 189 -7 q 99 135 99 47 l 99 281 q 160 391 99 366 q 297 415 222 415 l 649 415 l 649 560 q 649 560 649 560 q 649 560 649 560 l 281 560 q 281 560 281 560 q 281 560 281 560 l 281 499 l 108 531 l 108 565 q 156 676 108 651 q 279 701 203 701 l 650 701 q 774 676 726 701 q 821 565 821 651 l 821 0 l 649 0 l 649 104 q 580 17 631 40 q 467 -7 530 -7 l 269 -7 m 271 135 q 271 135 271 135 q 271 135 271 135 l 649 135 l 649 274 l 271 274 q 271 274 271 274 q 271 274 271 274 l 271 135 m 328 869 q 335 928 328 905 q 357 965 341 951 q 399 984 372 978 q 467 989 426 989 q 534 983 508 989 q 577 964 561 978 q 599 927 592 951 q 605 869 605 904 q 599 810 605 833 q 577 773 592 787 q 534 755 561 760 q 467 749 508 749 q 399 755 426 749 q 357 774 372 760 q 335 811 341 788 q 328 869 328 834 m 417 869 q 427 836 417 844 q 467 827 437 827 q 507 836 497 827 q 517 869 517 844 q 507 903 517 894 q 467 911 497 911 q 427 903 437 911 q 417 869 417 894 m 528 1038 l 406 1038 l 526 1199 l 668 1199 l 528 1038 z "},"ȁ":{"ha":936,"x_min":56,"x_max":821,"o":"m 269 -7 q 144 20 189 -7 q 99 135 99 47 l 99 281 q 160 391 99 366 q 297 415 222 415 l 649 415 l 649 560 q 649 560 649 560 q 649 560 649 560 l 281 560 q 281 560 281 560 q 281 560 281 560 l 281 499 l 108 531 l 108 565 q 156 676 108 651 q 279 701 203 701 l 650 701 q 774 676 726 701 q 821 565 821 651 l 821 0 l 649 0 l 649 104 q 580 17 631 40 q 467 -7 530 -7 l 269 -7 m 271 135 q 271 135 271 135 q 271 135 271 135 l 649 135 l 649 274 l 271 274 q 271 274 271 274 q 271 274 271 274 l 271 135 m 554 753 l 340 1006 l 500 1006 l 694 753 l 554 753 m 269 753 l 56 1006 l 215 1006 l 410 753 l 269 753 z "},"ȃ":{"ha":936,"x_min":99,"x_max":821,"o":"m 269 -7 q 144 20 189 -7 q 99 135 99 47 l 99 281 q 160 391 99 366 q 297 415 222 415 l 649 415 l 649 560 q 649 560 649 560 q 649 560 649 560 l 281 560 q 281 560 281 560 q 281 560 281 560 l 281 499 l 108 531 l 108 565 q 156 676 108 651 q 279 701 203 701 l 650 701 q 774 676 726 701 q 821 565 821 651 l 821 0 l 649 0 l 649 104 q 580 17 631 40 q 467 -7 530 -7 l 269 -7 m 271 135 q 271 135 271 135 q 271 135 271 135 l 649 135 l 649 274 l 271 274 q 271 274 271 274 q 271 274 271 274 l 271 135 m 266 766 q 275 871 266 830 q 308 936 285 912 q 369 970 331 960 q 467 979 408 979 q 565 970 526 979 q 626 936 603 960 q 658 871 649 912 q 667 766 667 830 l 560 766 q 556 819 560 799 q 542 851 552 840 q 514 867 531 863 q 467 872 496 872 q 420 867 438 872 q 392 851 402 863 q 377 819 381 840 q 374 766 374 799 l 266 766 z "},"ǽ":{"ha":1460,"x_min":99,"x_max":1354,"o":"m 269 -7 q 198 -1 229 -7 q 144 20 166 5 q 110 64 122 36 q 99 135 99 91 l 99 288 q 111 357 99 331 q 146 399 124 384 q 200 418 169 413 q 269 424 231 424 l 640 424 l 640 560 q 640 560 640 560 q 640 560 640 560 l 281 560 q 281 560 281 560 q 281 560 281 560 l 281 497 l 108 528 l 108 565 q 121 634 108 608 q 156 675 133 660 q 210 696 178 690 q 279 701 241 701 l 610 701 q 705 687 664 701 q 767 640 745 672 q 835 687 790 673 q 938 701 880 701 l 1185 701 q 1253 696 1222 701 q 1307 675 1285 690 q 1342 634 1329 660 q 1354 565 1354 608 l 1354 278 l 813 278 l 813 135 q 813 135 813 135 q 813 135 813 135 l 1176 135 q 1176 135 1176 135 q 1176 135 1176 135 l 1176 207 l 1349 175 l 1349 135 q 1337 64 1349 91 q 1304 20 1326 36 q 1250 -1 1282 5 q 1179 -7 1219 -7 l 844 -7 q 748 9 790 -7 q 683 58 706 24 q 621 9 662 24 q 526 -7 581 -7 l 269 -7 m 271 135 l 640 135 q 640 135 640 135 q 640 135 640 135 l 640 278 l 271 278 q 271 278 271 278 q 271 278 271 278 l 271 135 q 271 135 271 135 q 271 135 271 135 m 813 424 l 1182 424 l 1182 560 q 1182 560 1182 560 q 1182 560 1182 560 l 813 560 q 813 560 813 560 q 813 560 813 560 l 813 424 m 590 753 l 806 1006 l 983 1006 l 746 753 l 590 753 z "},"ȅ":{"ha":956,"x_min":66,"x_max":850,"o":"m 106 174 l 106 549 q 152 662 106 623 q 293 701 198 701 l 661 701 q 803 661 756 701 q 850 546 850 622 l 850 279 l 278 279 l 278 135 q 278 135 278 135 q 278 135 278 135 l 678 135 q 678 135 678 135 q 678 135 678 135 l 678 211 l 850 181 l 850 174 q 799 35 850 76 q 629 -7 749 -7 l 313 -7 q 157 34 208 -7 q 106 174 106 75 m 278 421 l 678 421 l 678 560 q 678 560 678 560 q 678 560 678 560 l 278 560 q 278 560 278 560 q 278 560 278 560 l 278 421 m 565 753 l 351 1006 l 510 1006 l 705 753 l 565 753 m 280 753 l 66 1006 l 225 1006 l 420 753 l 280 753 z "},"ȇ":{"ha":956,"x_min":106,"x_max":850,"o":"m 106 174 l 106 549 q 152 662 106 623 q 293 701 198 701 l 661 701 q 803 661 756 701 q 850 546 850 622 l 850 279 l 278 279 l 278 135 q 278 135 278 135 q 278 135 278 135 l 678 135 q 678 135 678 135 q 678 135 678 135 l 678 211 l 850 181 l 850 174 q 799 35 850 76 q 629 -7 749 -7 l 313 -7 q 157 34 208 -7 q 106 174 106 75 m 278 421 l 678 421 l 678 560 q 678 560 678 560 q 678 560 678 560 l 278 560 q 278 560 278 560 q 278 560 278 560 l 278 421 m 276 766 q 286 871 276 830 q 318 936 295 912 q 380 970 341 960 q 478 979 419 979 q 575 970 537 979 q 637 936 614 960 q 669 871 660 912 q 678 766 678 830 l 570 766 q 566 819 570 799 q 552 851 563 840 q 524 867 542 863 q 478 872 506 872 q 431 867 449 872 q 402 851 413 863 q 388 819 392 840 q 384 766 384 799 l 276 766 z "},"ȉ":{"ha":422,"x_min":-200,"x_max":439,"o":"m 125 0 l 125 694 l 297 694 l 297 0 l 125 0 m 299 753 l 85 1006 l 244 1006 l 439 753 l 299 753 m 14 753 l -200 1006 l -41 1006 l 154 753 l 14 753 z "},"ȋ":{"ha":422,"x_min":10,"x_max":412,"o":"m 125 0 l 125 694 l 297 694 l 297 0 l 125 0 m 10 766 q 20 871 10 830 q 52 936 29 912 q 114 970 75 960 q 212 979 153 979 q 309 970 271 979 q 371 936 348 960 q 403 871 394 912 q 412 766 412 830 l 304 766 q 300 819 304 799 q 286 851 297 840 q 258 867 276 863 q 212 872 240 872 q 165 867 183 872 q 136 851 147 863 q 122 819 126 840 q 118 766 118 799 l 10 766 z "},"ǿ":{"ha":1057,"x_min":106,"x_max":951,"o":"m 149 142 l 149 560 q 191 668 149 635 q 327 701 232 701 l 730 701 q 866 668 825 701 q 908 560 908 635 l 908 142 q 867 27 908 61 q 730 -7 827 -7 l 327 -7 q 190 27 231 -7 q 149 142 149 61 m 322 149 q 322 149 322 149 q 322 149 322 149 l 735 149 q 735 149 735 149 q 735 149 735 149 l 735 546 q 735 546 735 546 q 735 546 735 546 l 322 546 q 322 546 322 546 q 322 546 322 546 l 322 149 m 181 -42 l 106 42 l 243 165 l 246 168 l 726 601 l 727 601 l 876 736 l 951 653 l 800 516 l 800 516 l 317 83 l 313 78 l 181 -42 m 378 753 l 594 1006 l 772 1006 l 534 753 l 378 753 z "},"ȍ":{"ha":969,"x_min":74,"x_max":864,"o":"m 106 142 l 106 560 q 147 668 106 635 q 283 701 188 701 l 686 701 q 823 668 782 701 q 864 560 864 635 l 864 142 q 824 27 864 61 q 686 -7 783 -7 l 283 -7 q 146 27 187 -7 q 106 142 106 61 m 278 149 q 278 149 278 149 q 278 149 278 149 l 692 149 q 692 149 692 149 q 692 149 692 149 l 692 546 q 692 546 692 546 q 692 546 692 546 l 278 546 q 278 546 278 546 q 278 546 278 546 l 278 149 m 572 753 l 358 1006 l 518 1006 l 713 753 l 572 753 m 288 753 l 74 1006 l 233 1006 l 428 753 l 288 753 z "},"ȏ":{"ha":969,"x_min":106,"x_max":864,"o":"m 106 142 l 106 560 q 147 668 106 635 q 283 701 188 701 l 686 701 q 823 668 782 701 q 864 560 864 635 l 864 142 q 824 27 864 61 q 686 -7 783 -7 l 283 -7 q 146 27 187 -7 q 106 142 106 61 m 278 149 q 278 149 278 149 q 278 149 278 149 l 692 149 q 692 149 692 149 q 692 149 692 149 l 692 546 q 692 546 692 546 q 692 546 692 546 l 278 546 q 278 546 278 546 q 278 546 278 546 l 278 149 m 284 766 q 293 871 284 830 q 326 936 303 912 q 388 970 349 960 q 485 979 426 979 q 583 970 544 979 q 644 936 622 960 q 676 871 667 912 q 685 766 685 830 l 578 766 q 574 819 578 799 q 560 851 570 840 q 532 867 549 863 q 485 872 514 872 q 438 867 456 872 q 410 851 420 863 q 395 819 399 840 q 392 766 392 799 l 284 766 z "},"ȑ":{"ha":793,"x_min":27,"x_max":751,"o":"m 125 0 l 125 694 l 297 694 l 297 629 q 365 683 318 665 q 493 701 411 701 l 531 701 q 631 692 590 701 q 700 661 673 682 q 739 607 726 640 q 751 528 751 574 l 751 487 l 579 454 l 579 546 q 579 546 579 546 q 579 546 579 546 l 297 546 l 297 0 l 125 0 m 526 760 l 312 1013 l 472 1013 l 666 760 l 526 760 m 241 760 l 27 1013 l 186 1013 l 381 760 l 241 760 z "},"ȓ":{"ha":793,"x_min":125,"x_max":751,"o":"m 125 0 l 125 694 l 297 694 l 297 629 q 365 683 318 665 q 493 701 411 701 l 531 701 q 631 692 590 701 q 700 661 673 682 q 739 607 726 640 q 751 528 751 574 l 751 487 l 579 454 l 579 546 q 579 546 579 546 q 579 546 579 546 l 297 546 l 297 0 l 125 0 m 238 773 q 247 878 238 837 q 279 943 256 919 q 341 977 302 967 q 439 986 380 986 q 536 977 498 986 q 598 943 575 967 q 630 878 621 919 q 639 773 639 837 l 531 773 q 527 826 531 806 q 513 858 524 847 q 485 874 503 869 q 439 878 467 878 q 392 874 410 878 q 363 858 374 869 q 349 826 353 847 q 345 773 345 806 l 238 773 z "},"ȕ":{"ha":947,"x_min":63,"x_max":832,"o":"m 115 135 l 115 694 l 288 694 l 288 149 q 288 149 288 149 q 288 149 288 149 l 660 149 q 660 149 660 149 q 660 149 660 149 l 660 694 l 832 694 l 832 135 q 786 20 832 47 q 661 -7 741 -7 l 285 -7 q 160 20 205 -7 q 115 135 115 47 m 561 753 l 347 1006 l 507 1006 l 701 753 l 561 753 m 276 753 l 63 1006 l 222 1006 l 417 753 l 276 753 z "}}}
